<?xml version="1.0" encoding="utf-8"?>
<!-- Generator: Adobe Illustrator 16.0.0, SVG Export Plug-In . SVG Version: 6.00 Build 0)  -->
<!DOCTYPE svg PUBLIC "-//W3C//DTD SVG 1.1//EN" "http://www.w3.org/Graphics/SVG/1.1/DTD/svg11.dtd">
<svg version="1.1" id="图层_1" xmlns="http://www.w3.org/2000/svg" xmlns:xlink="http://www.w3.org/1999/xlink" x="0px" y="0px"
	 width="157.27px" height="78.667px" viewBox="0 0 157.27 78.667" enable-background="new 0 0 157.27 78.667" xml:space="preserve">
<path fill="#9A292F" d="M157.27,70.164c0,4.695-3.807,8.504-8.504,8.504H8.505c-4.697,0-8.504-3.809-8.504-8.504V8.503
	C0.001,3.807,3.808,0,8.505,0h140.261c4.697,0,8.504,3.807,8.504,8.504V70.164z"/>
<g>
	<path fill="#FFFFFF" d="M32.398,23.56c-1.06,4.978-2.303,8.871-3.732,11.674c-1.43,2.806-3.521,5.746-6.274,8.815
		c-0.425-0.636-1.484-1.43-3.177-2.383c3.916-3.069,6.775-7.329,8.577-12.784c1.799-5.452,2.752-11.142,2.859-17.074
		c1.163,0.532,2.433,0.901,3.812,1.111C34.25,13.342,33.563,16.889,32.398,23.56z M47.09,26.815
		c1.534,6.091,4.63,11.197,9.292,15.327c-1.167,0.212-2.382,0.953-3.653,2.224c-2.331-2.858-4.289-5.821-5.877-8.894
		c-1.484-3.177-2.621-6.722-3.415-10.642c-0.793-3.916-1.563-8.895-2.302-14.931c1.271,0.108,2.486,0.108,3.652,0
		C44.786,15.09,45.553,20.728,47.09,26.815z"/>
	<path fill="#FFFFFF" d="M67.181,28.166v9.53c2.645,2.648,7.517,3.97,14.612,3.97c7.093,0,12.282-0.316,15.565-0.952
		c-0.635,1.271-1.008,2.594-1.11,3.972c-8.474,0.104-14.481,0-18.027-0.318c-3.549-0.316-6.433-1.032-8.656-2.143
		c-2.225-1.112-3.708-1.271-4.448-0.477c-0.742,0.794-1.643,2.089-2.7,3.89c-0.954-1.06-1.907-1.96-2.859-2.701
		c1.693-1.48,3.335-2.857,4.924-4.128V25.147c-0.848,0-2.173,0.056-3.972,0.16v-3.018c1.693,0.108,3.972,0.16,6.83,0.16
		C67.233,24.568,67.181,26.474,67.181,28.166z M69.087,15.619c-1.166,0.635-2.119,1.377-2.858,2.224
		c-0.742-1.588-2.119-3.705-4.129-6.354c0.846-0.636,1.747-1.271,2.7-1.906C66.599,12.124,68.027,14.136,69.087,15.619z
		 M94.341,9.423c-1.483,1.695-3.045,3.284-4.685,4.766c-1.644,1.484-3.097,2.858-4.367,4.129H94.5
		c-0.107,2.33-0.159,4.606-0.159,6.83v10.959c0.104,1.378-0.266,2.279-1.112,2.7c-0.849,0.425-2.119,0.794-3.812,1.112
		c-0.213-0.953-0.741-2.065-1.587-3.336c1.587-0.104,2.645-0.262,3.177-0.476c0.529-0.211,0.738-1.216,0.636-3.018h-7.146v6.513
		h-2.859v-6.513h-6.99v6.513h-2.859c0.104-3.495,0.159-6.989,0.159-10.483c0-3.493-0.054-7.091-0.159-10.801h9.371
		c-0.53-0.846-1.695-2.009-3.494-3.494c0.739-0.636,1.429-1.322,2.064-2.065c1.906,1.484,3.228,2.597,3.971,3.335
		c1.692-1.799,3.018-3.177,3.971-4.129H77.506c-2.119,0-3.971,0.055-5.559,0.159V9.265c1.588,0.107,3.335,0.159,5.242,0.159h17.151
		V9.423z M81.635,24.195v-3.494h-6.988v3.494H81.635z M81.635,30.548v-3.812h-6.988v3.812H81.635z M91.642,24.195v-3.494h-7.147
		v3.494H91.642z M91.642,30.548v-3.812h-7.147v3.812H91.642z"/>
	<path fill="#FFFFFF" d="M108.239,14.586c-1.008,1.747-2.358,3.891-4.05,6.432c2.541-0.104,4.288-0.159,5.242-0.159
		c0.953-1.588,1.799-3.335,2.541-5.242c1.057,0.742,2.224,1.327,3.494,1.748c-1.06,1.06-2.144,2.49-3.256,4.289
		c-1.111,1.802-3.045,4.871-5.797,9.211c2.857-0.211,5.398-0.421,7.623-0.636c-0.317,1.06-0.478,1.961-0.478,2.701
		c-0.741,0-2.381,0.134-4.922,0.397c-2.542,0.265-4.606,0.611-6.194,1.032c-0.107-1.057-0.425-2.168-0.953-3.335
		c1.271-0.317,2.435-1.163,3.494-2.542c1.058-1.374,2.168-3.122,3.335-5.242c-3.494,0.213-5.718,0.636-6.67,1.271
		c-0.317-1.163-0.794-2.328-1.43-3.494c1.374-0.954,2.7-2.514,3.971-4.685c1.271-2.168,2.434-4.685,3.495-7.545
		c1.057,0.742,2.275,1.327,3.652,1.747C110.277,11.489,109.243,12.838,108.239,14.586z M115.308,38.647
		c-2.649,0.532-5.031,1.06-7.147,1.588c-2.12,0.531-4.078,1.111-5.877,1.748c-0.317-1.165-0.901-2.329-1.747-3.496
		c2.963-0.317,5.241-0.607,6.83-0.873c1.588-0.262,4.232-0.818,7.941-1.668C115.199,37.115,115.199,38.013,115.308,38.647z
		 M120.866,14.188c0-1.588-0.16-3.335-0.477-5.242c1.374,0.107,2.803,0.265,4.288,0.476c-0.317,0.636-0.532,1.668-0.636,3.097
		c-0.107,1.43-0.107,3.47,0,6.115l5.399-0.954c1.8-0.421,3.599-0.898,5.4-1.43l0.636,3.019c-1.803,0.213-3.652,0.477-5.56,0.793
		l-5.718,1.112c0,1.695,0.104,3.177,0.316,4.448l6.194-1.112c2.117-0.421,4.13-0.953,6.036-1.588l0.477,3.018
		c-1.906,0.317-3.919,0.69-6.036,1.111l-6.194,1.112c0.212,2.12,0.739,4.077,1.589,5.876c0.953-0.739,1.878-1.588,2.779-2.542
		c0.897-0.953,1.72-2.009,2.463-3.177c1.587,1.271,2.803,2.121,3.652,2.542c-1.378,0.636-2.462,1.35-3.256,2.144
		c-0.795,0.794-2.093,2.041-3.892,3.733c1.271,2.12,2.406,3.47,3.415,4.05c1.005,0.585,1.718,0.611,2.143,0.08
		c0.422-0.529,0.794-1.64,1.112-3.335c0.952,0.742,2.064,1.326,3.335,1.747c-1.802,4.658-3.76,6.537-5.877,5.638
		c-2.119-0.902-4.343-2.993-6.671-6.274c-1.483,1.167-2.938,2.25-4.367,3.256c-1.429,1.005-3.204,2.037-5.321,3.097
		c-0.531-1.06-1.325-2.014-2.381-2.858c2.116-0.739,3.915-1.532,5.4-2.382c1.481-0.846,3.177-2.064,5.082-3.653
		c-0.954-2.116-1.644-4.606-2.064-7.464c-3.178,0.532-5.4,1.009-6.671,1.43l-0.477-3.019c1.271,0,3.439-0.317,6.512-0.953
		c-0.213-1.692-0.317-3.122-0.317-4.289c-2.857,0.636-4.82,1.111-5.876,1.43l-0.636-3.018c1.058,0,3.121-0.317,6.194-0.953v-5.082
		H120.866z M126.743,11.807l2.541-1.271c0.421,0.531,1.481,1.802,3.177,3.812c-1.06,0.425-1.961,0.953-2.7,1.588
		C129.018,14.772,128.014,13.395,126.743,11.807z"/>
</g>
<g>
	<path fill="#FFFFFF" d="M24,56.367h4.863c0.964,0,1.682,0.039,2.154,0.119c0.474,0.08,0.896,0.248,1.271,0.502
		c0.374,0.256,0.685,0.594,0.934,1.018s0.374,0.897,0.374,1.425c0,0.569-0.153,1.093-0.461,1.567
		c-0.307,0.477-0.723,0.834-1.249,1.07c0.742,0.217,1.313,0.584,1.71,1.104c0.398,0.521,0.598,1.133,0.598,1.836
		c0,0.553-0.129,1.091-0.386,1.613c-0.258,0.522-0.608,0.94-1.055,1.254c-0.445,0.313-0.995,0.504-1.647,0.576
		c-0.41,0.045-1.396,0.072-2.963,0.084H24V56.367z M26.457,58.391v2.813h1.609c0.958,0,1.553-0.015,1.785-0.041
		c0.42-0.051,0.751-0.195,0.992-0.437s0.361-0.558,0.361-0.951c0-0.376-0.104-0.683-0.313-0.917
		c-0.207-0.234-0.516-0.378-0.925-0.427c-0.244-0.028-0.943-0.042-2.1-0.042L26.457,58.391L26.457,58.391z M26.457,63.23v3.254
		h2.273c0.886,0,1.447-0.023,1.686-0.074c0.364-0.066,0.663-0.229,0.892-0.484c0.23-0.258,0.345-0.604,0.345-1.034
		c0-0.365-0.088-0.675-0.266-0.931c-0.177-0.254-0.433-0.438-0.768-0.555c-0.335-0.117-1.063-0.176-2.18-0.176H26.457z"/>
	<path fill="#FFFFFF" d="M47.242,68.535h-2.674l-1.063-2.764h-4.864l-1.004,2.764h-2.605l4.739-12.168h2.599L47.242,68.535z
		 M42.718,63.72l-1.677-4.516l-1.645,4.516H42.718z"/>
	<path fill="#FFFFFF" d="M50.022,68.535V58.425h-3.61v-2.059h9.67v2.059h-3.604v10.109H50.022z"/>
	<path fill="#FFFFFF" d="M56.862,62.525c0-1.238,0.187-2.279,0.557-3.121c0.276-0.619,0.653-1.176,1.133-1.668
		c0.479-0.492,1.003-0.857,1.573-1.096c0.758-0.321,1.632-0.482,2.623-0.482c1.793,0,3.228,0.557,4.304,1.67
		c1.077,1.111,1.615,2.658,1.615,4.639c0,1.966-0.534,3.502-1.603,4.611c-1.067,1.109-2.496,1.664-4.283,1.664
		c-1.81,0-3.248-0.552-4.315-1.654C57.396,65.982,56.862,64.46,56.862,62.525z M59.394,62.442c0,1.378,0.318,2.423,0.955,3.134
		s1.444,1.066,2.424,1.066c0.98,0,1.783-0.354,2.412-1.059c0.628-0.705,0.942-1.765,0.942-3.176c0-1.395-0.307-2.435-0.917-3.121
		c-0.611-0.687-1.423-1.029-2.437-1.029c-1.013,0-1.829,0.349-2.448,1.043C59.705,59.994,59.394,61.042,59.394,62.442z"/>
	<path fill="#FFFFFF" d="M70.608,68.535V56.367h2.392l4.979,8.125v-8.125h2.283v12.168h-2.465l-4.906-7.936v7.936H70.608z"/>
	<path fill="#FFFFFF" d="M88.521,64.06v-2.051h5.296v4.849c-0.515,0.498-1.26,0.937-2.235,1.315
		c-0.979,0.379-1.968,0.568-2.969,0.568c-1.272,0-2.383-0.268-3.328-0.802c-0.946-0.534-1.657-1.298-2.134-2.291
		c-0.476-0.993-0.714-2.073-0.714-3.241c0-1.268,0.267-2.394,0.797-3.377c0.531-0.986,1.31-1.742,2.332-2.268
		c0.78-0.404,1.752-0.605,2.914-0.605c1.512,0,2.69,0.316,3.54,0.95c0.851,0.634,1.396,1.509,1.641,2.627l-2.44,0.457
		c-0.172-0.599-0.494-1.069-0.967-1.416c-0.475-0.346-1.064-0.519-1.772-0.519c-1.073,0-1.928,0.341-2.561,1.021
		c-0.634,0.683-0.951,1.69-0.951,3.03c0,1.443,0.321,2.527,0.963,3.25c0.644,0.723,1.483,1.083,2.523,1.083
		c0.515,0,1.03-0.101,1.549-0.304c0.517-0.201,0.961-0.446,1.332-0.733V64.06H88.521z"/>
	<path fill="#FFFFFF" d="M100.873,68.535v-12.07h2.457v10.02h6.108v2.051H100.873z"/>
	<path fill="#FFFFFF" d="M111.174,58.524v-2.157h2.332v2.157H111.174z M111.174,68.535V59.72h2.332v8.814H111.174z"/>
	<path fill="#FFFFFF" d="M123.916,68.535h-2.332v-4.498c0-0.953-0.05-1.568-0.149-1.848c-0.099-0.279-0.262-0.497-0.484-0.652
		c-0.226-0.154-0.494-0.231-0.811-0.231c-0.404,0-0.767,0.11-1.088,0.332c-0.32,0.222-0.541,0.516-0.659,0.881
		c-0.119,0.364-0.179,1.04-0.179,2.024v3.992h-2.333V59.72h2.167v1.295c0.769-0.996,1.737-1.494,2.905-1.494
		c0.515,0,0.983,0.094,1.41,0.277c0.427,0.187,0.748,0.423,0.968,0.709c0.219,0.289,0.371,0.615,0.457,0.98
		c0.085,0.365,0.128,0.889,0.128,1.568V68.535z"/>
	<path fill="#FFFFFF" d="M131.386,65.729l2.324,0.39c-0.299,0.854-0.771,1.502-1.415,1.947c-0.645,0.445-1.451,0.668-2.42,0.668
		c-1.532,0-2.667-0.501-3.403-1.502c-0.581-0.803-0.871-1.814-0.871-3.039c0-1.461,0.382-2.604,1.146-3.432
		c0.764-0.828,1.729-1.241,2.896-1.241c1.313,0,2.348,0.433,3.104,1.299c0.759,0.866,1.121,2.192,1.088,3.979h-5.844
		c0.017,0.691,0.203,1.229,0.563,1.615c0.359,0.385,0.808,0.576,1.345,0.576c0.365,0,0.672-0.1,0.921-0.299
		S131.259,66.171,131.386,65.729z M131.519,63.373c-0.017-0.676-0.189-1.188-0.521-1.541c-0.332-0.352-0.736-0.526-1.212-0.526
		c-0.511,0-0.931,0.187-1.263,0.557c-0.332,0.371-0.495,0.874-0.489,1.511H131.519L131.519,63.373z"/>
</g>
</svg>
