<?xml version="1.0" encoding="utf-8"?>
<!-- Generator: Adobe Illustrator 24.1.0, SVG Export Plug-In . SVG Version: 6.00 Build 0)  -->
<svg version="1.1" id="Layer_1" xmlns="http://www.w3.org/2000/svg" xmlns:xlink="http://www.w3.org/1999/xlink" x="0px" y="0px"
	 viewBox="0 0 289.7888184 49.7006874" style="enable-background:new 0 0 289.7888184 49.7006874;" xml:space="preserve">
<style type="text/css">
	.st0{fill:#4A1A16;}
</style>
<g>
	<g>
		<path class="st0" d="M286.7098083,32.6698799c1.3800049,0,2.4620056-1.073,2.4620056-2.5500202
			c0-1.4429932-1.0820007-2.5289917-2.4620056-2.5289917c-1.3840027,0-2.4830017,1.0859985-2.4830017,2.5289917
			C284.2268066,31.59688,285.3258057,32.6698799,286.7098083,32.6698799 M283.6188354,30.1198597
			c0-1.7489929,1.4139709-3.0359802,3.0909729-3.0359802c1.6590271,0,3.07901,1.2869873,3.07901,3.0359802
			c0,1.7640076-1.4199829,3.0590229-3.07901,3.0590229C285.0328064,33.1788826,283.6188354,31.8838673,283.6188354,30.1198597"/>
		<path class="st0" d="M286.7010193,29.9149647c0.4510193,0,0.8530273-0.0350037,0.8530273-0.5769958
			c0-0.4320068-0.4020081-0.5169983-0.7630005-0.5169983h-0.723999v1.0939941H286.7010193 M286.0670471,31.8839588h-0.5320129
			v-3.51297h1.3359985c0.8339844,0,1.2349854,0.3059998,1.2349854,1.0029907c0,0.6340027-0.3839722,0.8930054-0.9059753,0.9679871
			l0.9979858,1.5419922h-0.5920105l-0.9309998-1.5249939h-0.6079712V31.8839588z"/>
	</g>
	<g>
		<path class="st0" d="M155.854126,6.1417718c0.5019989,2.2110295,2.845993,3.4380193,7.1899872,3.1860051
			c1.1920013-0.0690002,3.3400116-0.0559998,4.8400116-0.3569946c1.8529968-0.367981,3.0879974-0.5650024,3.6159973-0.2340088
			c0.3649902,0.2290039,0.4689941,1.276001,0.4980011,2.9290161c0.1380005,6.8420095,0.0469971,24.9400024-0.1849976,27.0740051
			c-0.1320038,1.1799927-1.3310089,3.617981-2.5190125,5.9719849c-0.743988,1.4880066,0.6590118,3.0320129,2.0190125,2.1270142
			c1.0559998-0.6910095,5.7779846-4.2980042,8.289978-5.7149963c0.7619934-0.4260254,0.9410095-1.5940247,0.178009-2.3340149
			c-0.7720032-0.7349854-1.2120056-1.552002-1.2120056-3.3720093c-0.0400085-8.8490009-0.0579834-11.5130024-0.0319824-12.9129963
			c0.0189819-1.0769958,0.0189819-1.315979,0.7819824-1.3459778c0.7610168-0.0350037,5.7650146-0.1360168,6.3919983,0
			c0.6440125,0.1309814,1.6730042,0.9959717,2.57901,1.6019897c0.6099854,0.401001,2.0270081,0.2340088,1.6610107-0.8649902
			c-0.3670044-1.105011-0.7960205-2.5870056-0.9980164-3.4920044c-0.6419983-2.7700186-0.9450073-4.532012-3.6210022-2.2250061
			c0,0-0.1789856,0.3160095-0.4819946,0.3160095c-0.3070068,0-5.8040161,0.1109924-6.1359863-0.2250061
			c-0.3390198-0.3319998-0.23703-3.3330069-0.1730042-4.8380117c0.0669861-1.5010071-0.7910156-3.6419988,4.2059937-3.8779912
			c3.3549805-0.1589966,7.6839905-0.5069885,11.1359863-0.2070007c3.2700195,0.2730103,5.8630066,0.7739873,7.6260071,1.6099858
			c1.7659912,0.8320007,3.0159912,0.1470032,3.5469971-0.1869812c0.1660156-0.1020203,0.882019-0.7789922,0.6360168-1.8650212
			c-0.2340088-1.0979919-0.3040161-2.4609985-1.2730103-3.4759824c-0.7940063-0.8399963-3.0130005-1.0130005-4.4700012-1.2200012
			c-4.6929932-0.6700135-12.6900024,0.2210083-19.0549927,1.2430115c1.9389954-0.2990112-9.0679932,2.0419919-13.6459961,1.4849851
			c-5.2129974-0.6099854-6.2330017-1.5339963-6.4720001-1.9360044c-0.125-0.2030029-0.7220001-1.3229982-1.9020081-1.2579957
			C156.9641113,1.8237787,155.2221222,3.3087947,155.854126,6.1417718"/>
		<path class="st0" d="M223.9772186,18.5587635c-0.6060181,0.5950012-0.7250061,1.7520142,0.4169922,1.7260132
			c0.0249939,0,1.071991-0.0320129,1.3389893-0.0320129c0.2550049,0.0040283,0.5280151,0.1270142,0.5360107,0.3970032
			c0.0109863,0.1480103,0.1019897,3.2200012,0.1019897,5.2600098c0,3.5209961-0.5559998,4.1860046-0.2980042,5.0159912
			c0.4940186,1.6950092,2.4900208,2.5190144,4.5400085,2.6110249c2.3410034,0,4.3710022-0.9670105,5.1589966-1.7940083
			c1.2000122-1.2340088,0.5580139-2.7279968-1.0029907-1.8150024c-0.8260193,0.4779968-1.7229919,1.1549988-2.6100159,0.9389954
			c-0.7940063-0.1959839-1.0679932-0.8590088-1.1929932-1.8980103c-0.1300049-1.0329895-0.0799866-7.1749878-0.0799866-7.7379761
			c0-0.5580139,0.0159912-0.9260254,0.4249878-0.9909973c0.4049988-0.0630188,3.7690125-0.0620117,4.3630066-0.0620117
			c0.178009,0,0.5159912-1.7610168,0.5610046-1.9850159c0.0439758-0.2249756-0.0230103-0.4489746-0.4190063-0.4979858
			c-0.4039917-0.0379944-3.8269958,0.1090088-4.82901-0.1600037c-0.2599792-2.2250051-0.151001-4.4949942-0.151001-5.2210073
			c0-0.6149902-0.5820007-1.0509949-1.2149963-0.414978C228.8712006,12.6467772,227.2012177,15.3997679,223.9772186,18.5587635"/>
		<path class="st0" d="M268.8375549,17.7736683c-0.8070068,0.0860291-1.1440125,1.5090027,0.01297,2.0140076
			c1.1610107,0.5079956,1.4590149,1.2960205,1.6660156,1.7600098c0.6570129,1.446991,4.0570068,9.3840027,4.8429871,10.7359943
			l0.1220093,0.2950134c-4.1650085,5.6389771-7.006012,7.7529907-9.5559998,8.75
			c-1.5799866,0.6149902-2.947998,0.473999-3.9700012,0.0599976c-1.3720093-0.5440063-1.5610046-2.6490173-1.4029846-3.0190125
			c0.4609985-1.0180054-0.9710083-1.5879822-2.5120239-1.1809998c-1.5309753,0.3999939-2.957016,2.0650024-2.0149841,4.2690125
			c1.1069946,2.6139832,4.5329895,3.9259949,8.8630066,2.940979c3.79599-0.8549805,7.696991-3.0479736,11.4339905-7.1369934
			c2.7279968-2.9360046,4.1380005-5.2369995,5.7980042-8.225008c1.875-3.4009705,3.2359924-7.4889832,3.3769836-7.9029846
			c0.2680054-0.7879944,1.0940247-1.4779968,1.5-1.7000122c0.4020081-0.2139893,0.6289978-1.5829773-0.3109741-1.6900024
			c-0.9390259-0.098999-6.4330139-0.151001-7.105011,0.0890198c-0.6809998,0.2479858-0.4389954,1.3389893,0.2799988,1.7210083
			c0.3569946,0.1879883,0.980011,0.4039917,1.1419983,0.7809753c0.1560059,0.3760071,0.0849915,1.178009-0.1560059,1.9370117
			c-0.8829956,2.7789917-2.3670044,5.3129883-2.492981,5.3320007c-0.1180115,0.0220032-0.9350281-1.5679932-1.7200012-3.2969971
			c-0.7620239-1.6530151-1.3460083-3.2659912-1.4210205-3.5620117c-0.1279907-0.6289978,0.3340149-1.1730042,1.0360107-1.2779846
			c0.7030029-0.105011,0.7579956-1.6600037-0.3930054-1.7230225c-0.5660095-0.0349731-1.8999939,0-3.1009827,0.0600281
			C271.2945251,17.8716908,269.4785461,17.7186756,268.8375549,17.7736683"/>
		<path class="st0" d="M260.4508362,20.6588612c-0.3410034,0.4400024-0.6010132,0.28302-0.6010132,0.0900269
			c0-0.1940002,0.0100098-1.3870239-0.0310059-1.9440002c-0.0899963-1.7969971-1.6139832-0.7090149-3.125,0.1739807
			c-1.2930145,0.7340088-3.0660248,1.8309937-3.2930145,2.0280151c-0.2430115,0.1950073-0.3209839,1.0220032,0.3399963,1.302002
			c0.4400024,0.1940002,0.8800049,0.0109863,1.2460022,0.3619995c0.1790161,0.1719971,0.2669983,0.821991,0.2520142,1.447998
			c-0.026001,1.6619873,0.0780029,5.4729919-0.1360168,6.276001c-0.2109985,0.789978-1.2109985,0.7539978-1.8630066,1.3710022
			c-0.6459961,0.6300068-0.3069763,1.7349873,0.6660156,1.7099934c0.9769897-0.0180054,6.1190033,0.0299988,6.8190155,0.0299988
			c1.1829834,0,1.4119873-1.4289856,0.7009888-1.8320026c-0.867981-0.4960022-1.4819946-0.8359985-1.5759888-1.5610046
			c-0.3399963-2.3309937-0.1950073-4.4389954,0.0859985-5.8590088c0.1199951-0.5939941,0.7109985-1.6359863,1.644989-2.0099792
			c0.6419983-0.2449951,1.3940125-0.3580017,2.3240051,0.6600037c0,0,0.4200134,0.7039795,0.7390137,1.0269775
			c0.321991,0.3190002,1.1549988,0.1380005,1.3049927-0.6749878c0.1539917-0.8169861,0.7550049-2.6369934,1.1959839-3.7659912
			c0.3880005-0.9580078,0.4370117-1.9550171-2.1699829-1.6960144
			C262.178833,18.0828724,261.105835,19.8588734,260.4508362,20.6588612"/>
		<path class="st0" d="M247.8584137,23.2579823c-1.0350037-2.4059753-2.9760132-4.6419983-5.375-4.0379944
			c-1.9249878,0.4810181-2.8510132,3.1820068-1.1170044,7.6159973c1.131012,2.8900146,3.2850037,5.6650105,6.151001,4.3040161
			C249.2544098,30.3059864,249.5284271,27.1779957,247.8584137,23.2579823 M243.4684296,17.3009815
			c3.5709839-0.2999878,6.5229797,1.2580261,8.3819885,3.4970093c3.3540039,4.0379944,3.2389832,10.3800049-2.723999,12.2380085
			c-6.9259949,1.8450012-13.2350159-0.7890015-13.2350159-7.3510151
			C235.8164215,21.3289967,238.6844025,17.6819935,243.4684296,17.3009815"/>
		<path class="st0" d="M195.7046967,25.7721729c-0.8769836,0.3959961-1.9019775,1.6029968-1.5289917,2.9440002
			c0.4169922,1.4960022,1.3959961,2.8330078,4.0899963,2.2749939c2.6910095-0.5700073,1.3699951-3.7630005,1.0980225-4.4110107
			c-0.2669983-0.6479797-0.5470276-1.0589905-1.1860046-1.1099854
			C197.5196991,25.4141712,196.6007233,25.36516,195.7046967,25.7721729 M196.8727264,17.2951527
			c1.2509766-0.0419922,4.2019958,0.2400208,5.4629822,3.5200195c1.25,3.2210083,2.6289978,7.92099,3.1950073,8.9109802
			c0.5639954,0.9950256,1.4400024,1.4350281,1.9580078,0.9450073c0.4639893-0.427002,0.7869873,0.2030029,0.7789917,0.7640076
			c0,0.6950092-0.5849915,1.7279987-2.1239929,2.1019917c-1.480011,0.3619995-3.6750183-0.1479797-4.1300049-0.7869873
			c-0.3439941-0.4819946-0.6530151-0.9710102-1.03302-0.9440022c-1.1079712,0.0780029-2.197998,1.592989-5.6539917,1.7860126
			c-4.4109802,0.2589722-6.54599-2.4600239-6.243988-4.7710285c0.321991-2.4129944,1.4859924-3.625,3.6749878-4.5709839
			c1.3590088-0.5899963,4.2130127-0.7890015,5.256012-0.7780151c0.4989929,0.006012,0.1369934-0.7839966,0.0939941-0.9919739
			c-0.6470032-2.7210083-2.8070068-2.8900146-4.572998-2.25c-1.0559998,0.3849792-1.9859924,1.1469727-2.2650146,1.2890015
			c-0.7799988,0.4029846-1.4709778-0.5250244-0.7639771-1.3790283
			C192.7657013,17.4211597,194.7457123,17.345171,196.8727264,17.2951527"/>
		<path class="st0" d="M216.3600311,17.3800526c-3.631012,0.0270081-8.7950134,2.2000122-8.9480286,8.3400269
			c-0.1369934,6.1340027,4.8380127,8.0369892,8.6360168,8.1349812c5.8179932-0.3009949,7.1069946-3.3989887,7.6459961-4.4039936
			c0.3529968-0.6669922-0.7879944-1.5820007-1.5409851-0.5570068c-1.7880249,2.4309998-4.2440186,2.7579956-5.7130127,2.3240051
			c-2.4859924-0.7380066-3.3930054-2.6789856-3.7269897-5.7340088c-0.2990112-2.6809998,0.5929871-6.1859741,3.5609741-6.1219788
			c3.1640015,0.0929871,3.3230286,3.7019958,3.7160034,4.4230042c0.3940125,0.7249756,1.0039978,0.6729736,1.4240112-0.2230225
			c0.4049988-0.8519897,0.7799988-2.1340027,1.3389893-3.071991c0.5299988-0.9320068,0.0469971-1.3359985-0.6699829-1.7330017
			C220.628006,17.9580555,219.1190033,17.3700733,216.3600311,17.3800526"/>
	</g>
	<g>
		<path class="st0" d="M30.4322338,2.7257564c-0.427002,0.1410217-1.1520004-0.1429749-1.7210007-0.3099976
			c-2.0620041-0.642975-4.4000015-1.1119996-6.788002-1.1080018c-5.8010025,0-13.1350021,2.553009-18.2300034,11.3120117
			c-2.1879959,3.7569876-3.1409988,6.4739981-3.5779953,10.8879995c-0.3320007,3.5230103,0.0359955,7.8080139,1.3310013,11.2749958
			c2.4399948,6.5050049,8.9219971,13.9519958,18.5049973,14.8280029c4.064003,0.3560181,9.6999969-0.3450012,12.9109974-2.105011
			c4.9260025-2.7659912,7.8710022-7.7069702,8.4030075-8.5429993c0.7139969-1.1079712-0.5570068-2.1349792-1.4320068-1.1429749
			c-1.0799942,1.2119751-4.5389938,6.2279968-11.7549992,7.348999c-5.9169998,0.8880005-11.6610031-1.9700012-14.6329956-5.6719971
			C9.3192272,34.3827705,8.9882336,28.327776,8.8272305,25.9187794C8.6882305,13.3057737,14.7962322,5.0717645,22.1612301,4.9267755
			c3.1429977-0.1409912,5.8069992,1.071991,8.1110001,2.6929932c5.3340015,3.7659917,5.6530018,8.1700134,7.6589985,8.9790039
			c0.9300003,0.3710022,2.8700027-0.125,2.8700027-1.2699881c0.0029984-2.6900024-1.6910019-4.8789978-3.4250031-8.8390198
			c-1.3309937-3.0509946-2.470993-6.0109863-2.9839935-6.4259949c-0.2260056-0.0899963-1.1840057-0.0920105-1.3800049,0.0410156
			c-0.3759995,0.2419739-0.9169998,1.0049744-1.5889988,1.6059875C30.826231,2.2477596,30.8662319,2.5827816,30.4322338,2.7257564"
			/>
		<path class="st0" d="M133.6695251,8.7409544c-0.5150146,0.3230286-0.3710022,1.2070007,0.1329956,1.4730225
			c0.5189972,0.2649841,1.7070007,0.2859802,1.7899933,1.2049866c0,11.9299917-0.0619965,17.4020081-0.0619965,18.3970032
			c0,1.3240051-1.9129944,1.2460022-1.9129944,2.1300049c-0.0220032,0.6749897,0.1209869,1.3110065,1.0629883,1.3110065
			c0.9440002,0,5.5850067,0.0249939,6.6070099,0.0249939c0.5579987,0,1.1629944-0.6340027,0.9850006-1.2080078
			c-0.1439972-0.4769917-1.0090027-0.895998-1.2830048-1.0059834c-0.5-0.1920166-0.723999-1.0960083-0.7709961-1.5540161
			c-0.053009-0.4530029-0.0160065-1.8119812-0.0160065-2.3529968c0-0.5400085,1.2440033-1.9129944,1.9710083-1.9129944
			c0.1499939,0,0.522995,0.3460083,0.7929993,0.8249817c1.0820007,1.927002,3.1719971,7.2480183,3.7030029,7.2480183
			c0.8579865,0,3.9629974,0.0090027,4.6869965,0.0090027c0.9680023,0,1.7249908-1.1750183,0.473999-1.9660053
			c-0.3110046-0.1960144-0.9210052-0.428009-1.3840027-0.8800049c-0.5189972-0.5019836-0.9170074-1.2359924-1.5010071-2.4530029
			c-1.3319855-2.7080078-2.2269897-4.190979-2.6629944-5.1809998c-0.2590027-0.5780029-0.4530029-0.992981-0.423996-1.2879944
			c0.0979919-0.6319885,1.7050018-1.8640137,2.776001-2.0079956c1.7639923-0.256012,1.2679901-2.0029907,0.0130005-2.0029907
			c-3.0240021,0.0249939-4.2150116-0.0500183-5.2770081-0.0160217c-1.8589935,0.0490112-1.1889954,1.4519958-1.2359924,1.3180237
			c0.0800018,0.2359924,1.2850037,0.4799805,1.2480011,1.0139771c-0.0490112,0.6629944-0.6419983,1.4230042-1.0039978,1.7860107
			c-0.4320068,0.42099-0.75,0.9379883-1.4620056,1.5669861c-0.3119965,0.2790222-0.5189972,0.0160217-0.5339966-0.2099915
			c-0.1410065-7.2680044,0.0950012-14.6979971,0.0950012-16.6099854c0-1.4230042-1.2120056-0.7090149-1.8140106-0.3900146
			C137.8155212,6.4559808,134.3335114,8.3179808,133.6695251,8.7409544"/>
		<path class="st0" d="M73.3688278,17.9049549c-1.2240143-0.1359863-1.8110046-0.6039734-4.5120087-0.5599976
			c-1.3090057,0.0350037-3.6089935,0.3240051-4.6069946,2.7530212c-0.5800018,1.4049988-0.1500092,2.7969971,0.0540009,3.2859802
			c1.0370026,2.5880127,4.7740021,3.1080017,6.7519989,3.802002c2.5339966,0.8970032,3.5709991,1.2140198,3.401001,2.3699951
			c-0.1350098,1.0020142-1.3590088,2.0320129-5.2109985,1.2650146c-1.553009-0.3120117-3.427002-1.6300049-4.6560059-2.8760071
			c-0.4400024-0.4230042-1.2810059-0.1000061-1.0079956,0.8760071c0.2719879,0.9639893,2.6009979,4.764986,2.8439941,5.1940022
			c0.2460022,0.4299927,0.9470062,0.6329956,1.2290039,0.1419983c0.2570038-0.4460144,0.3779907-0.8890076,0.9680023-1.0010071
			c0.6619873-0.125,1.8669891,0.1260071,3.5449982,0.3370056c2.1989899,0.2369995,4.3269958-0.0939941,5.6539917-1.118988
			c1.3639984-1.0599995,1.8980103-2.8420124,1.6950073-4.3490009c-0.3619995-2.631012-2.3820038-3.8640137-5.3560028-4.6300049
			c-1.9929962-0.5180054-4.1139984-1.0310059-4.8209991-1.5379944c-0.7369995-0.5160217-0.9320068-1.2810059-0.3009949-1.9620056
			c0.8179932-0.8670044,2.7659912-0.5480042,3.7539978-0.3150024c1.2850037,0.302002,2.4169922,0.881012,3.8629913,2.1090088
			c0.8310089,0.7129822,1.2860107,0.5950012,1.4650116,0.4489746c0.6699982-0.5679932-0.5600128-1.6009827-1.348999-3.0959778
			c-0.9440002-1.7890015-1.2710114-2.3959961-1.878006-2.2250061
			C74.3668137,16.9699574,73.8258133,17.9579639,73.3688278,17.9049549"/>
		<path class="st0" d="M105.83564,17.3009815c-3.6330109,0.0220032-8.7950134,2.1890259-8.9380035,8.3260193
			c-0.154007,6.1380005,4.8410034,8.0339985,8.6299896,8.1420002c5.8080139-0.2980042,7.1030121-3.4100056,7.6460114-4.4100056
			c0.3549957-0.6579895-0.7890015-1.5769958-1.5350037-0.5539856c-1.7900085,2.4229736-4.2510071,2.7669983-5.7210083,2.3269958
			c-2.4839935-0.7369995-3.3869934-2.6790161-3.7279968-5.7319946c-0.3009949-2.6900024,0.5930023-6.1940002,3.5700073-6.1170044
			c3.1569977,0.0789795,3.3139954,3.697998,3.7070007,4.4100037c0.3929901,0.7200012,1.0110016,0.6779785,1.4219971-0.2150269
			c0.4100037-0.8559875,0.7810059-2.1369934,1.3439941-3.0739746c0.529007-0.9349976,0.0469971-1.3400269-0.6649933-1.7290039
			C110.1076279,17.8759937,108.6036301,17.2780018,105.83564,17.3009815"/>
		<path class="st0" d="M37.2051315,19.2828846c-1.0039978,0.1300049-1.7580032,0.9570007-2.052002,2.125
			c-0.3669968,1.5370178,0.0370026,3.5859985,0.5149994,3.8120117c0.487999,0.2070007,4.8649979-1.3850098,5.1720047-1.9089966
			C41.2291336,22.6538868,40.0591278,18.9098988,37.2051315,19.2828846 M30.3951321,24.1998768
			c0.447998-3.2359924,3.2370014-6.5309753,7.0059986-6.8549805c3.7699966-0.3179932,5.2360001,0.7250061,6.3079987,1.6419983
			c1.2750015,1.0820007,2.8450012,3.9169922,2.2659988,4.5650024c-0.5950012,0.6479797-6.6019974,2.1470032-8.923996,3.0879822
			c-0.4370041,0.1750183-1.0019989,0.3130188-0.7919998,0.90802c0.401001,1.125,1.6829987,2.7460022,3.3059998,3.2120056
			c2.272995,0.6749878,4.5449982-0.5480042,5.9509964-1.6730042c0.7430038-0.6010132,1.5820007-0.0390015,0.9420013,1.1369934
			c-0.4199982,0.7690125-2.8069992,2.9719868-7.1780014,3.2019978
			C32.7851334,33.7108955,29.7831249,28.6248951,30.3951321,24.1998768"/>
		<path class="st0" d="M120.4441299,25.7721729c-0.8870087,0.3959961-1.9160004,1.6029968-1.5390015,2.9440002
			c0.4189911,1.4960022,1.4019928,2.8330078,4.0970001,2.2749939c2.6929932-0.5700073,1.3690033-3.7630005,1.0979919-4.4110107
			c-0.2720032-0.6479797-0.5479889-1.0589905-1.1900024-1.1099854
			C122.2521286,25.4141712,121.3271255,25.36516,120.4441299,25.7721729 M121.6061325,17.2951527
			c1.2509918-0.0419922,4.2049866,0.2400208,5.4679871,3.5200195c1.2450027,3.2210083,2.6269913,7.92099,3.1949997,8.9109802
			c0.5549927,0.9950256,1.4389954,1.4350281,1.9559937,0.9450073c0.4629974-0.427002,0.7810059,0.2030029,0.7810059,0.7640076
			c0,0.6950092-0.5749969,1.6220112-2.128006,1.9909992c-1.4729919,0.3569946-3.4649887-0.2189941-4.0229874-0.6759949
			c-0.4629974-0.3739929-0.7660065-0.9710102-1.1410065-0.9440022c-1.1059875,0.0780029-2.1989899,1.592989-5.6489868,1.7860126
			c-4.4210052,0.2589722-6.5580139-2.4600239-6.2460022-4.7710285c0.3190002-2.4129944,1.4830017-3.625,3.6749878-4.5709839
			c1.3640137-0.5899963,4.2100067-0.7890015,5.25-0.7780151c0.5,0.006012,0.1400146-0.7839966,0.0910034-0.9919739
			c-0.6470032-2.7210083-2.7979889-2.8900146-4.5690002-2.25c-1.0569916,0.3849792-1.9810028,1.1469727-2.2610016,1.2890015
			c-0.7799988,0.4029846-1.4639893-0.5250244-0.7659912-1.3790283
			C117.5021286,17.4211597,119.4811325,17.345171,121.6061325,17.2951527"/>
		<path class="st0" d="M24.0504284,17.605669c-1.0490036-0.0389709-2.6650009,0.3390198-3.5690002,1.585022
			c-0.1990051,0.276001-0.7060013,0.3169861-0.7060013-0.0460205c0-0.3629761,0.012001-8.9029837,0.012001-9.3619986
			c0-0.4749756-0.7310028-0.3649902-1.0250015-0.1869812c-0.2830048,0.1869812-4.7639999,3.0950012-5.1590042,3.3779907
			c-0.4009933,0.2950134-0.4319992,1.0339966,0.0350037,1.2470093c0.4680023,0.2250061,1.6039963,0.5400085,1.6039963,1.1080017
			c-0.0389938-0.5549927,0.1450043,11.6369925-0.1169968,14.5989981c-0.1399994,1.3659973-1.314003,1.6690063-1.7450027,1.9889832
			c-0.4339981,0.3170185-0.151001,1.5090046,0.5979996,1.5090046s6.1110001,0.0710144,6.6840057,0.0710144
			c0.5690002,0,1.3639984-0.7090149,0.8569946-1.5300007c-0.3289948-0.5350037-1.272995-0.5039978-1.6349945-1.7160034
			c-0.439003-1.4299927-0.1790009-6.0320129,0.0659943-7.5320129c0.1040039-0.7009888,0.3980026-1.1319885,1.0350037-1.4649963
			c0.6449966-0.3240051,1.1279984-0.1869812,1.4899979,0.1230164c0.6220016,0.4949951,1.1040039,1.5910034,1.3659973,2.1309814
			c0.6560059,1.4450073,1.5060043,4.9790039,1.5060043,7.756012c0,7.9169941-3.6389999,10.0289936-4.4380035,10.5679951
			c-0.772995,0.5379944-0.1069946,1.302002,0.5200043,1.1080017c1.6829987-0.5010071,2.9960022-1.6289978,4.0719986-2.8099976
			c0.5780029-0.6329956,2.5830002-2.6629944,3.6559982-5.9609985c1.0780029-3.3099995,0.8219986-5.5220051,0.8219986-6.8510151
			C29.9794216,23.5906849,27.558424,17.7686939,24.0504284,17.605669"/>
		<path class="st0" d="M87.0576401,19.4366932c-0.9980011,0.1350098-1.7730103,0.9630127-2.0460052,2.1329956
			c-0.375,1.5329895,0.0289917,3.5849915,0.5159912,3.8089905c0.4780121,0.2150269,4.8630066-1.3899841,5.1660004-1.9069824
			C91.079628,22.8177052,89.9116287,19.0636768,87.0576401,19.4366932 M80.2516403,24.3566761
			c0.4379883-3.2329712,3.2309875-6.5239868,7.0019989-6.8559875c3.7709961-0.3129883,5.2329865,0.7290039,6.3099976,1.6440125
			c1.2769928,1.0849915,2.845993,3.9189758,2.2519989,4.5699768c-0.5830078,0.6440125-6.5859985,2.1430054-8.9120026,3.0820007
			c-0.4329987,0.1750183-0.9989929,0.3250122-0.7899933,0.9049988c0.3939972,1.131012,1.6809998,2.7540283,3.2979889,3.223999
			c2.2779999,0.6710205,4.5510101-0.5479736,5.9520111-1.6779785c0.75-0.605011,1.5759888-0.0310059,0.9509888,1.1380005
			c-0.423996,0.7749939-2.8150024,2.9709797-7.173996,3.1999836C82.6406326,33.8766975,79.6446304,28.7836781,80.2516403,24.3566761
			"/>
		<path class="st0" d="M157.2110291,19.4366932c-1.0059967,0.1350098-1.7649994,0.9630127-2.0550079,2.1329956
			c-0.375,1.5329895,0.0400085,3.5849915,0.5140076,3.8089905c0.4850006,0.2150269,4.8730011-1.3899841,5.1750031-1.9069824
			C161.2320251,22.8177052,160.0610199,19.0636768,157.2110291,19.4366932 M150.3990326,24.3566761
			c0.4459991-3.2329712,3.2409973-6.5239868,7.0069885-6.8559875c3.7669983-0.3129883,5.2380066,0.7290039,6.3140106,1.6440125
			c1.2689972,1.0849915,2.8429871,3.9189758,2.25,4.5699768c-0.5890045,0.6440125-6.5980072,2.1430054-8.9130096,3.0820007
			c-0.4400024,0.1750183-0.9980011,0.3250122-0.7910004,0.9049988c0.3899994,1.131012,1.6809998,2.7540283,3.303009,3.223999
			c2.2679901,0.6710205,4.5449982-0.5479736,5.947998-1.6779785c0.746994-0.605011,1.8580017-0.2430115,1.2310028,0.9309998
			c-0.4240112,0.7739868-2.9680023,3.2789936-7.4650116,3.4069843
			C152.78302,33.7156868,149.7950287,28.7836781,150.3990326,24.3566761"/>
		<path class="st0" d="M53.6757278,19.4547901c-1.0119934,0.1350098-1.7559967,0.9559937-2.0419922,2.1319885
			c-0.3760071,1.5339966,0.022995,3.5840149,0.5099945,3.8070068c0.4830017,0.2130127,4.8619995-1.3859863,5.1710052-1.9100037
			C57.7007217,22.8307972,56.5327225,19.0887928,53.6757278,19.4547901 M46.8697357,24.3707752
			c0.4509964-3.2259827,3.2360001-6.519989,7.0029984-6.8429871c3.7679901-0.321991,5.2419891,0.7189941,6.3089905,1.6350098
			c1.2810059,1.0899963,2.8570099,3.9230042,2.2630005,4.5629883c-0.5919952,0.6530151-6.5979919,2.1530151-8.9149933,3.0889893
			c-0.4400024,0.1820068-1.0080109,0.3200073-0.8000031,0.9050293c0.401001,1.1359863,1.6860046,2.75,3.3079987,3.2189941
			c2.272995,0.6749878,4.5540009-0.5440063,5.9450073-1.6790161c0.7449951-0.6019897,1.5839996-0.0329895,0.9609985,1.1419983
			c-0.4340057,0.7669983-2.8190002,2.9710102-7.1849976,3.2040119
			C49.2597275,33.8937874,46.2597351,28.8037891,46.8697357,24.3707752"/>
	</g>
	<g>
		<path class="st0" d="M52.0279312,0.9537532c0.1159973-0.098999,0.5349884-0.1519775,0.6349945,0.2210082
			c0.095993,0.3739929-1.2120056,2.7409973-1.3200073,3.2350159c-0.651001,1.1359863-0.8279877-0.2120056-1.2009888-1.0270078
			c-0.375-0.8110046-1.9430084-0.6679993-2.0900116,0.1340027c-0.1360016,0.8179929-0.0279999,6.928009,0.1230011,7.8410034
			c0.0449982,0.2949829,0.131012,0.7689819,0.6880035,1.0329895c0.6930084,0.3210144,0.6930084,1.0840149-0.0679932,1.0840149
			c-0.4780121,0-1.3460083,0.0589905-2.0849991,0.0589905c-0.7350006,0-1.5190048,0.0079956-2.2350006,0.0079956
			c-0.4680023,0-0.7120056-0.776001-0.1320038-1.0839844c0.3899994-0.1950073,0.598999-0.6190186,0.6030045-1.03302
			c0.0759964-2.697998,0.0579987-6.4880071-0.2280045-8.0059814c-0.1549988-0.8200073-1.2879944-0.5970154-2.1139984-0.0700073
			c-0.737999,0.4599915-1.2959976,1.2129819-1.4810028,1.3819883c-0.2519989,0.2359924-1.3709946,0.6360168-0.7759933-0.6690063
			c0.385994-0.8299863,0.8249969-1.6799924,1.7299957-3.1080015c0.1529999,0.0180054,0.5599976-0.2839966,0.8799973,0.350006
			c4.3880005,0.052002,6.5990067,0.0390015,8.2699966-0.0169983C51.5219193,1.2777582,51.8639297,1.0817744,52.0279312,0.9537532"/>
		<path class="st0" d="M52.6627274,2.9230831c-0.451004,0.8950195,0.6009979,0.7480164,0.6499939,1.2140195
			c0.0899963,0.9089966,0.0209961,7.0189824,0.0209961,7.6199956c0,0.5799866-0.6040039,0.6260071-0.6949921,0.9320068
			c-0.1300049,0.375-0.026001,0.7109985,0.5449982,0.7109985h3.2579956c0.75,0,0.4779968-0.7380066-0.1920013-1.1270142
			c-0.1660004-0.1019897-0.3359985-0.4769897-0.3359985-0.8240051c-0.0169983-1.4269714-0.0169983-3.3279724,0.0379944-3.6089787
			c0.4250031-0.802002,1.098999-0.8840027,1.6010132-0.3359985c0.8269958,0.9249883,1.7189941,3.0390019,1.7059937,5.0879827
			c-0.0130005,1.1549988,0.151001,2.0020142-0.6750031,3.0339966c-0.272995,0.3250122-1.0820007,1.1600027,0.3630066,0.7060232
			c1.8170013-0.9770193,1.9279938-2.4660025,2.1399994-3.9690237c0.2579956-1.7839966-0.0540009-3.5569763-0.7900085-5.0279851
			c-0.5999908-1.1679993-0.9629974-1.8269958-2.1459961-2.0090027c-0.7899933-0.1229858-1.3580017,0.5180054-2.2539978,0.9849854
			c0-2.17099-0.0379944-3.9159849-0.0500031-4.5269775c-0.0090027-0.7630005-0.2630005-0.7270203-0.7529907-0.3890076
			C54.6837234,1.6650873,53.792717,2.1371028,52.6627274,2.9230831"/>
		<path class="st0" d="M64.7823257,6.4899774c-1.0050049,0.197998-1.2559967,2.3679814-0.6029968,2.7299809
			c1.1209869-0.0649719,1.7839966-0.51297,2.8019867-0.9119873C66.4783249,6.8389764,65.7883224,6.2919793,64.7823257,6.4899774
			 M61.4703293,9.9699583c-0.2170105-2.3629766,1.5-4.9119878,4.9789886-4.4979863
			c2.3680115,0.2850037,2.980011,2.7929997,3.0550079,3.0880132c-2.7409973,1.1829834-4.7839966,1.6959839-5.105011,1.7890015
			c0.0220032,0.2799988,0.5020142,1.6629944,1.6880035,2.0419922c0.6760101,0.2179871,1.8240051,0.1669922,3-0.7870178
			c0.4960022-0.4129944,1.1320038-0.276001,0.4430084,0.6360168c0,0-1.2710114,1.3309937-3.2830048,1.4029846
			C63.2023239,13.7469664,61.6523209,11.9549742,61.4703293,9.9699583"/>
	</g>
</g>
</svg>
