<?xml version="1.0" encoding="UTF-8"?>
<svg id="Layer_2" data-name="Layer 2" xmlns="http://www.w3.org/2000/svg" width="1991" height="1214.34" viewBox="0 0 1991 1214.34">
  <defs>
    <style>
      .cls-1 {
        fill: none;
      }

      .cls-2 {
        fill: #ff9901;
      }

      .cls-3 {
        fill: #3e0e0a;
      }
    </style>
  </defs>
  <g id="Layer_2-2" data-name="Layer 2">
    <g id="Layer_1-2" data-name="Layer 1">
      <path class="cls-2" d="M205.71,958l.78,1.03s.03-.06.05-.08c4.57,4.2,9.19,8.36,13.9,12.48,4.72,4.14,9.51,8.22,14.37,12.26,181.82,150.86,454.61,230.62,788.86,230.64h2.21c388.64-.39,558.91-87.05,687.99-168.25,106.48-66.99,300.94-264.07,274.68-530.44-14.64-146.84-75.31-263.76-190.93-367.99-119.97-108.18-256.38-127.52-361.83-132.29-80.87-3.58-188.73,15.59-319.85,56.84-22.29,7.05-43.8,10.32-67.69,10.32-29.88,0-62.86-5.49-98-16.31-3.01-.92-6.62-1.87-10.73-1.87-15.19,0-23.23,12.85-26.15,17.82-1.53,2.21-3.1,4.55-4.73,6.96-14.96,22.26-31.92,47.5-66.66,47.5-2.01,0-4.09-.09-6.19-.25-32.31-2.55-60.54-21-96.3-44.34C676.68,51.04,598.51,0,449.55,0,320.85,0,204,53.81,120.5,151.5c-5.01,5.85-9.86,11.84-14.58,17.94-2.78,3.59-5.4,7.31-8.08,10.98-1.86,2.55-3.81,5.05-5.63,7.64-3.67,5.25-7.18,10.62-10.65,16.01-.71,1.1-1.47,2.16-2.17,3.26-4.01,6.34-7.87,12.8-11.59,19.34-.11.19-.23.37-.33.56-15.33,26.96-32.04,59.43-38.67,85.32-117.22,457.81,176.91,645.45,176.91,645.45"/>
      <path class="cls-3" d="M1783.32,822.62l.19,11.32-109.36.05-.5-12.73s12.88.94,12.88-9.12v-213.13l-.26-10.97c0-12.46-8.13-13.13-8.13-13.13v-16.61l82.85-16.95,10.87,6s.46,30.1.08,42.65c-.01,71.46.03,212.73.03,222.15,0,12.29,11.36,10.48,11.36,10.48M206.42,959.55l.11-.51s18.6,16.6,28.32,24.66c181.82,150.86,454.6,230.61,788.86,230.64h2.21c388.64-.39,558.91-87.05,687.99-168.25,106.49-66.99,300.94-264.06,274.69-530.44-14.65-146.83-75.32-263.76-190.93-367.99-119.97-108.18-256.39-127.52-361.84-132.28-80.86-3.59-188.73,15.58-319.85,56.84-22.29,7.04-43.79,10.32-67.69,10.32-29.88,0-62.86-5.48-98-16.31-3-.92-6.62-1.87-10.73-1.87-15.19,0-23.23,12.85-26.15,17.82-1.53,2.21-3.1,4.54-4.73,6.96-14.95,22.26-31.92,47.5-66.66,47.5-2.01,0-4.09-.08-6.18-.25-32.32-2.55-60.54-20.99-96.3-44.34C676.72,51.05,598.54.01,449.58.01,320.88.01,204.04,53.81,120.54,151.51c-39.98,46.79-71.25,101.33-91.7,161.06-42.66,124.63-69.35,444.02,156.15,629.02l21.43,17.97ZM602.42,1082.17v-244.2s1.71-9.57,12.48-11.37c9.13-1.44,88.57-27.8,119.34,47.93,37.87,93.23,9.69,204.81-88.08,236.83-21.16,6.93-43.74,1.53-43.74-29.18M602.42,735.57v-110.51s.85-4.78,6.25-5.69c4.57-.73,45.37-14.33,59.67,23.96,16.89,45.21-3.38,80.94-44.04,98.95-12.52,5.55-21.87,8.63-21.87-6.71M59.82,315.54C117.31,157.91,250.01,29.68,449.58,29.68c140.14,0,214.21,48.36,273.73,87.23,37.74,24.64,70.33,45.92,110.18,49.07,2.87.23,5.74.34,8.53.34,50.55,0,75.06-36.48,91.28-60.61,1.65-2.45,3.23-4.82,4.78-7.04l.64-1,2.18-3.26.66.2c37.98,11.7,73.9,17.63,106.73,17.63,26.64,0,51.71-3.83,76.61-11.7,117.88-37.09,215.84-55.9,291.2-55.9,6.28,0,12.47.14,18.4.4,48.8,2.21,104.51,7.68,161.85,24.36-155.44,2.67-308.92,213.2-403.14,336.02h1.23s-3.66.26-3.66.26c0-39.75-.02-82.3,0-111.33.36-11.84-.08-40.25-.08-40.25l-10.26-5.66-78.21,16v15.68s7.68.64,7.68,12.4l.26,10.36v214.31c-1.16,7.24-11.7,6.62-11.7,6.62l.46,10.95,101.16-.06-.17-9.72s-9.1,1.34-10.35-7.02l1.23-6.89c0-4.21,0-37.82-.01-79.21,1.77-1.03,4.73-.49,5.6,2.19,1.24,3.85,36.51,66.17,41.46,77.23,4.95,11.06-5.58,13.44-5.58,13.44v10.5l113.86.35v-10.86s-11.74-1.56-29.71-23.46c-25.98-31.72-42.99-96.33-42.99-96.33,0,0-2.78-1.08-7.42-2.89-14.55,6.48-26.76,9.49-35.28,10.81l-9.59.13c-.81-.26-3.15-2.48,1.25-3.37,2.54-.5,11.23-2.04,14.71-3.66,2.61-1.22,7.94-7.45,13.04-13.99,76.8-88.9,220.4-350.97,446.11-280.9,27.71,15.58,55.09,34.81,81.55,58.66,109.79,98.99,167.4,209.86,181.26,348.88,24.82,251.91-159.85,438.78-260.95,502.4-125.58,79-291.47,163.31-672.23,163.69h-2.17c-127.53,0-245.74-11.83-353.04-34.85,21.55-1.45,44.27-4.24,68.09-8.78,219.85-46.97,184.75-268.41,99.37-315.68-46.51-30.42-119.29-32.43-159.34-32.6-18.79-.11-16.55-8.29,1.73-9.6,92.54-6.68,116.03-61.55,116.03-103.36,0-55.44-35.66-91.77-72.82-102.87-24.58-6.43-44.93-4.65-44.93-4.65l-237.85-.61v14.55s13.9,1.57,15.38,13.69l.05.05.53,3.48c0,30.13,0,80.6.01,137.39-60.58-24.78-116.85-81.6-144.04-199.13-53-322.81,222.51-360.73,261.36-302.16,7.18,10.83-29.91,44.78-29.91,44.78l12.12,14.85,137.77-64.91s-170.22-186.36-418.48-12.7c-49.55,39.74-74.37,76.87-102.62,137.26-86.42,184.7,64.08,342.02,64.08,342.02,0,0,47.53,47.49,104.75,77.54,39.21,20.59,78.38,29.76,114.99,32.97.02,125.81.04,254.79-.04,255.39-.33,6-2.21,9.87-9.44,12.12-72.95-32.26-137.83-71.65-193.69-118-11.99-9.95-22.88-20.91-34.59-30.74C-25.11,725,22.36,414.83,59.82,315.54M1189.41,518.8h0s0,0,0,0ZM1649.03,754.63s-4.32-.03-5.59,3.68c-1.31,3.65-12.84,23.29-35.51,22.91-18.93-.32-35.57-9.82-39.43-42.31-.54-4.58,1.74-7.31,7.71-7.26l88.21.31s3.96.42,4.83-3.62c.78-4.06,2.96-34.05-12.89-57.45-17.42-25.69-50.77-42.56-78.63-42.7-11.92-.33-80.06,6.05-100.79,71.8-9.3,29.5-4.94,53.13,2.89,72.55,14.95,37.01,55.95,63.48,90.68,63.48,86.32,0,103.69-80.05,103.69-80.05.05-2.62-25.18-1.34-25.18-1.34M1569.48,671.89c1.92-5.56,8-14.23,17.36-11.58,4.51,1.27,7.58,6.25,10.29,13.1,4.55,11.47,16.09,40.31-16.08,39.65-9.96-.2-15.1.41-15.47-15.98-.14-6.17.26-14.53,3.9-25.18M1658.05,540.84h-110.96v-10.91s7.79.68,10.07-7.53c-.05-23.91-.26-133.42-.26-134.96,0-12.59-8.22-13.27-8.22-13.27v-16.77l83.67-17.12,10.99,6.06s.05,16.03.11,38.29l1.05-.73s14.97-17.74,38.38-31.74c16.73-9.99,56.05-15.17,74.49,14.48,16.6,26.65-30.55,53.08-30.55,53.08,0,0-10.29,4.58-18.03,9.39-3.9,2.41-10.2,3.38-8.39-8.19,4.48-28.49-23.62-38.76-39.65-27.47-10.31,7.29-16.06,20.84-16.06,35.91v88.09c0,7.27.66,11.43,13.37,11.43-.35,4.69,0,11.96,0,11.96M1430.87,544.47c86.32,0,103.69-80.05,103.69-80.05.06-2.62-25.18-1.35-25.18-1.35,0,0-4.31-.03-5.58,3.69-1.3,3.66-12.84,23.29-35.52,22.92-18.92-.33-35.57-9.83-39.42-42.31-.54-4.59,1.74-7.31,7.72-7.26l88.19.31s3.97.43,4.83-3.61c.78-4.06,2.96-34.06-12.89-57.45-17.41-25.7-50.75-42.56-78.62-42.7-11.93-.34-80.08,6.04-100.8,71.8-9.3,29.5-4.94,53.13,2.9,72.55,14.94,37.01,55.94,63.48,90.67,63.48M1429.84,380.34c1.91-5.56,7.98-14.23,17.36-11.59,4.51,1.26,7.58,6.25,10.29,13.1,4.53,11.47,16.08,40.3-16.08,39.65-9.97-.2-15.1.41-15.47-15.98-.14-6.17.25-14.53,3.9-25.18M870.53,528.47s-9.51-2.64-9.51-10.58v-169.58l-12.14-7.37s-12.91,16.74-52.07,1.5c-19.31-7.51-61.87-8.92-91.65,13.61-33.61,25.47-48.14,57.51-49.18,88.45-1.93,57.46,28.52,80.45,36.97,86.44,22.92,16.26,58.69,16.64,87.45,2.52l2.75,6.05h87.38v-11.04ZM787.48,495.66c0,8.33-7.9,13.17-14.39,13.17-15.96,0-34.11-20.66-34.11-67.52s18.15-70.06,34.11-70.06c6.49,0,14.39,4.21,14.39,12.27v112.13ZM634.86,419.71s-10.29,4.58-18.04,9.39c-3.89,2.41-10.19,3.38-8.38-8.19,4.47-28.49-23.63-38.76-39.64-27.47-10.33,7.29-16.09,20.84-16.09,35.91v88.09c0,7.27.66,11.43,13.38,11.43-.34,4.69,0,11.96,0,11.96h-110.95v-10.91s7.78.68,10.06-7.53c-.05-23.91-.26-133.42-.26-134.96,0-12.59-8.22-13.27-8.22-13.27v-16.77l83.68-17.12,10.97,6.06s.05,16.03.1,38.29l1.06-.73s14.97-17.74,38.38-31.74c16.73-9.99,56.04-15.17,74.49,14.48,16.59,26.65-30.55,53.08-30.55,53.08M1445.35,712.41s-10.29,4.58-18.04,9.39c-3.89,2.41-10.2,3.38-8.38-8.19,4.48-28.49-23.63-38.76-39.65-27.47-10.31,7.29-16.06,20.84-16.06,35.91v88.09c0,7.28.64,11.43,13.36,11.43-.33,4.69,0,11.96,0,11.96h-110.94v-10.91s7.78.69,10.07-7.53c-.05-23.9-.26-133.41-.26-134.96,0-12.59-8.22-13.27-8.22-13.27v-16.77l83.68-17.12,10.98,6.06s.05,16.03.11,38.29l1.03-.73s14.97-17.74,38.39-31.74c16.73-9.99,56.04-15.17,74.49,14.48,16.59,26.65-30.56,53.08-30.56,53.08M1021.92,810.98v-170.43l-12.13-7.41s-12.91,16.83-52.07,1.51c-19.31-7.54-61.87-8.96-91.64,13.68-33.62,25.59-48.15,57.8-49.19,88.9-1.93,57.74,28.52,80.85,36.98,86.86,22.93,16.34,58.7,16.72,87.45,2.54l2.75,6.09h87.38v-11.1s-9.52-2.65-9.52-10.63M948.38,788.64c0,8.37-7.9,13.23-14.39,13.23-15.96,0-34.11-20.76-34.11-67.86s18.15-70.41,34.11-70.41c6.49,0,14.39,4.24,14.39,12.33v112.7ZM1258.11,659.33c16.59,26.65-30.56,53.08-30.56,53.08,0,0-10.29,4.58-18.04,9.39-3.89,2.41-10.2,3.38-8.38-8.19,4.47-28.49-23.64-38.76-39.65-27.47-10.32,7.29-16.08,20.84-16.08,35.91v88.09c0,7.28.66,11.43,13.37,11.43-.33,4.69,0,11.96,0,11.96h-110.94v-10.91s7.78.69,10.06-7.53c-.05-23.9-.26-133.41-.26-134.96,0-12.59-8.22-13.27-8.22-13.27v-16.77l83.69-17.12,10.98,6.06s.05,16.03.1,38.29l1.06-.73s14.96-17.74,38.38-31.74c16.73-9.99,56.04-15.17,74.49,14.48M900.87,394.9c21.89-40.23,57.86-52.37,78.83-57.13,21.15-4.65,38.24,1.56,48.5,4.19,12.69,5.85,21.94,6.68,28.3,5.85,7.46-2.34,10.51-6.06,10.51-6.06l12.63,7.38v77.41l-.44.46-.08.97c-.55,2.6-10.82,1.47-15.26.75-4.38-.82-7.25-4.11-7.23-6.73,0-2.54-5.27-21.7-8.07-29.12-3.01-7.44-20.5-33.46-38.09-32.63-13.77.67-21.89,10.36-26.58,24.67-10.47,31.64-2.14,65.98,6.31,81.09,7.98,14.26,24.6,24.2,38.58,24.2,20.18,0,33-16.57,43.18-23.49l13.81,7.73c-6.15,14.39-23.35,50.22-62.16,64.02-35.63,12.66-67.25,4.61-87.59-4.05-34.65-14.71-72.8-70.31-35.15-139.52"/>
      <rect class="cls-1" x="0" width="1990.99" height="1214.34"/>
      <path class="cls-3" d="M1576.74,914.23c-12.49,0-20.36,7.87-20.36,20.02v43.86c0,12.15,7.87,20.02,20.36,20.02s20.35-7.87,20.35-20.02v-43.86c0-12.15-7.87-20.02-20.35-20.02M1583.6,978.45c0,4.27-1.46,7.88-6.86,7.88s-6.86-3.6-6.86-7.88v-44.54c0-4.27,1.47-7.88,6.86-7.88s6.86,3.6,6.86,7.88v44.54Z"/>
      <path class="cls-3" d="M1508.81,977.55c0,12.6-8.22,20.59-20.03,20.59s-20.01-8.66-20.01-20.69v-8.44h12.48v7.42c0,6.31,2.14,9.9,7.43,9.9,3.6,0,7.2-1.68,7.2-7.76,0-7.54-5.63-12.6-12.48-19.11-6.75-6.53-14.06-13.96-14.06-25.53,0-10.35,5.73-19.69,19.45-19.69,11.81,0,19.01,6.86,19.01,22.04v5.17h-12.48v-4.49c0-8.22-2.26-11.14-6.53-11.14-4.5,0-6.52,3.38-6.52,7.54,0,6.3,4.72,10.91,11.8,17.88,8.33,8.22,14.74,15.19,14.74,26.32"/>
      <polygon class="cls-3" points="1510.94 915.58 1552.68 915.58 1552.68 927.61 1538.61 927.61 1538.61 996.79 1525.23 996.79 1525.23 927.61 1510.94 927.61 1510.94 915.58"/>
      <path class="cls-3" d="M1391.16,961.13c6.86-3.27,9.79-7.88,9.79-21.27s-3.15-24.29-18.9-24.29h-21.03v81.21h13.5v-33.74h4.84l9.23,33.74h13.16l-10.57-35.65ZM1379.8,952.25h-5.29v-25.42h5.29c6.08,0,7.88,2.81,7.88,12.71s-1.81,12.71-7.88,12.71"/>
      <polygon class="cls-3" points="1435.14 915.58 1448.74 915.58 1433 963.61 1433 996.79 1419.05 996.79 1419.05 963.61 1403.31 915.58 1416.92 915.58 1426.03 948.31 1435.14 915.58"/>
      <polygon class="cls-3" points="1668.41 984.75 1690.68 984.75 1690.68 996.79 1655.02 996.79 1655.02 915.57 1689.78 915.57 1689.78 927.39 1668.41 927.39 1668.41 949.1 1684.16 949.1 1684.16 960.46 1668.41 960.46 1668.41 984.75"/>
      <path class="cls-3" d="M1636.57,961.13c6.87-3.27,9.79-7.88,9.79-21.27s-3.14-24.29-18.89-24.29h-21.03v81.21h13.5v-33.74h4.83l9.22,33.74h13.16l-10.58-35.65ZM1625.22,952.25h-5.29v-25.42h5.29c6.06,0,7.87,2.81,7.87,12.71s-1.81,12.71-7.87,12.71"/>
      <path class="cls-3" d="M1070.61,915.58h-19.24v81.21h19.24c15.87,0,21.26-9.22,21.26-21.93v-37.35c0-12.71-5.39-21.93-21.26-21.93M1078.37,975.75c0,6.41-1.68,9.56-8.21,9.56h-5.4v-58.26h5.4c6.53,0,8.21,3.15,8.21,9.56v39.14Z"/>
      <polygon class="cls-3" points="1313.43 915.58 1355.17 915.58 1355.17 927.61 1341.1 927.61 1341.1 996.79 1327.73 996.79 1327.73 927.61 1313.43 927.61 1313.43 915.58"/>
      <path class="cls-3" d="M982.31,914.23c-12.48,0-20.35,7.87-20.35,20.02v43.86c0,12.15,7.87,20.02,20.35,20.02s20.36-7.87,20.36-20.02v-43.86c0-12.15-7.87-20.02-20.36-20.02M989.18,978.45c0,4.27-1.47,7.88-6.87,7.88s-6.86-3.6-6.86-7.88v-44.54c0-4.27,1.46-7.88,6.86-7.88s6.87,3.6,6.87,7.88v44.54Z"/>
      <polygon class="cls-3" points="1024.05 984.86 1044.41 984.86 1044.41 996.79 1010.66 996.79 1010.66 915.57 1024.05 915.57 1024.05 984.86"/>
      <polygon class="cls-3" points="1295.56 915.58 1307.7 915.58 1307.7 996.79 1296.68 996.79 1278.57 946.85 1278.57 996.79 1266.43 996.79 1266.43 915.58 1278.57 915.58 1295.56 963.49 1295.56 915.58"/>
      <path class="cls-3" d="M1242.58,915.58h13.5v62.54c0,12.15-7.87,20.02-20.36,20.02s-20.37-7.87-20.37-20.02v-62.54h13.51v62.88c0,4.27,1.46,7.88,6.86,7.88s6.87-3.6,6.87-7.88v-62.88Z"/>
      <path class="cls-3" d="M1159.47,933.91v11.93h-13.05v-12.26c0-4.5-1.8-7.42-6.41-7.42-5.06,0-7.08,2.92-7.08,7.76v44.54c0,4.95,2.02,7.76,7.08,7.76,4.61,0,6.41-2.93,6.41-7.42v-13.16h13.05v12.82c0,12.04-7.42,19.68-19.58,19.68s-20.47-7.87-20.47-20.02v-43.86c0-12.15,8.21-20.02,20.47-20.02s19.58,7.64,19.58,19.68"/>
      <path class="cls-3" d="M1187.35,914.23c-12.48,0-20.35,7.87-20.35,20.02v43.86c0,12.15,7.87,20.02,20.35,20.02s20.37-7.87,20.37-20.02v-43.86c0-12.15-7.88-20.02-20.37-20.02M1194.22,978.45c0,4.27-1.47,7.88-6.87,7.88s-6.86-3.6-6.86-7.88v-44.54c0-4.27,1.46-7.88,6.86-7.88s6.87,3.6,6.87,7.88v44.54Z"/>
      <rect class="cls-1" x="0" width="1991" height="1214.34"/>
    </g>
  </g>
</svg>