<svg version="1.1" xmlns="http://www.w3.org/2000/svg" xmlns:xlink="http://www.w3.org/1999/xlink" width="330.57397" height="221.60628" viewBox="0,0,330.57397,221.60628"><g transform="translate(-74.71301,-69.19686)"><g data-paper-data="{&quot;isPaintingLayer&quot;:true}" fill-rule="nonzero" stroke="none" stroke-linecap="butt" stroke-linejoin="miter" stroke-miterlimit="10" stroke-dasharray="" stroke-dashoffset="0" style="mix-blend-mode: normal"><path d="M389.11474,165.51098c6.79895,6.93096 16.17225,14.45601 16.17225,14.45601c0,0 -9.3733,7.52505 -16.17225,14.52202c-17.16239,17.75647 -42.83996,51.0251 -80.06914,75.58051c-3.49849,2.31032 -7.12899,4.48862 -10.82551,6.4689c-17.62445,10.29743 -41.25574,14.45601 -58.2201,14.25798c-17.03037,0.19803 -40.66165,-4.02656 -58.2201,-14.25798c-3.69651,-1.98028 -7.32702,-4.15858 -10.82551,-6.4689c-37.16317,-24.55541 -62.84074,-57.82404 -80.06914,-75.58051c-6.79895,-6.99697 -16.17225,-14.52202 -16.17225,-14.52202c0,0 9.3733,-7.45904 16.17225,-14.45601c17.16239,-17.75647 42.83996,-51.0251 80.06914,-75.58051c3.49849,-2.31032 7.12899,-4.48862 10.82551,-6.4689c17.62445,-10.29743 41.25574,-14.45601 58.2201,-14.25798c16.96436,-0.19803 40.66165,4.02656 58.2201,14.25798c3.69651,1.98028 7.32702,4.15858 10.82551,6.4689c37.16317,24.55541 62.84074,57.82404 80.06914,75.58051" fill="#ef3d42" stroke-width="1"/><path d="M384.69212,136.53295c-37.09716,-26.13964 -95.51528,-45.41432 -143.04189,-44.29216c-19.93477,0.46206 -38.74739,3.69651 -55.71175,9.17528c23.82931,-15.44615 56.23982,-25.28152 92.0168,-26.07363c36.7011,-0.85812 79.67308,10.23142 114.45992,27.3278z" fill="#faab54" stroke-width="1"/><path d="M95.30788,223.40104c37.09716,26.13964 95.51528,45.41432 143.04189,44.29216c19.93477,-0.46206 38.74739,-3.69651 55.64574,-9.17528c-23.82931,15.38014 -56.23982,25.28152 -92.0168,26.07363c-36.7011,0.85812 -79.67308,-10.23142 -114.45992,-27.3278z" fill="#007ac2" stroke-width="1"/><path d="M150.2866,123.62445c0,0 30.51867,0.08715 65.16148,0c34.01644,-0.12741 28.48297,24.29838 28.43643,24.47275c-0.60491,9.20153 -12.45964,49.42095 -12.45964,49.42095c0,0 -9.53539,26.70532 -41.87409,26.70532c-32.39233,0 -66.1018,-0.04033 -66.1018,-0.04033l26.83762,-100.55872M164.47607,210.67631h14.70736c12.25951,0 17.32272,-12.68874 17.32272,-12.68874l12.68343,-47.99914c0,0 1.86356,-11.6562 -9.42595,-13.20543l-15.60003,0.12742" fill="#ffffff" stroke-width="1.69468"/><path d="M343.2887,198.04401c0,0 -2.93182,14.36547 -15.31738,20.30085c-12.38707,5.94208 -25.33605,6.32445 -25.33605,6.32445l-5.18826,23.09733l-12.03819,0.00011c0,0 -8.74004,0.60365 -12.29696,-3.65496c-3.50762,-4.29885 -2.19182,-9.20134 -2.19182,-9.20134l2.34854,-10.45554c0,0 -14.15881,0.21473 -24.00531,-6.1095c-9.79723,-6.36451 -7.15488,-20.03931 -7.15488,-20.03931l11.07101,-49.67633c0,0 4.12355,-15.10355 20.16446,-21.03903c14.09775,-6.06289 36.10637,-5.63366 36.10637,-5.63366c0,0 22.75313,-0.55667 35.14374,6.32442c13.07443,7.27005 9.64914,19.83165 9.64914,19.83165l-10.94536,49.8906M288.81906,148.3279l-11.21447,50.10544c0,0 -2.37624,11.74326 12.29208,11.91755c14.65926,0.21451 17.11799,-12.04514 17.11799,-12.04514l11.36188,-50.58151c0,0 2.70929,-11.70308 -11.77461,-11.74341c-14.96912,0.00001 -17.79186,12.3873 -17.79186,12.3873" fill="#ffffff" stroke-width="1.69468"/></g></g></svg>