<?xml version="1.0" encoding="utf-8"?>
<!-- Generator: Adobe Illustrator 22.0.1, SVG Export Plug-In . SVG Version: 6.00 Build 0)  -->
<svg version="1.1" id="IHOP_Pancakes_RGB" xmlns="http://www.w3.org/2000/svg" xmlns:xlink="http://www.w3.org/1999/xlink" x="0px"
	 y="0px" viewBox="0 0 395.7 254" style="enable-background:new 0 0 395.7 254;" xml:space="preserve">
<style type="text/css">
	.st0{fill:#0065A3;}
	.st1{fill:#D8272E;}
</style>
<title>HOP_1831_IHOB_CMYK_Blue_HORIZ_SM_V1R[1]</title>
<path class="st0" d="M383.8,50.6c-0.3-0.2-0.3-0.6-0.1-0.8c0.1-0.2,0.3-0.3,0.5-0.2c0.1,0,0.3,0,0.4,0.1c0.4,0.3,1,0.5,1.5,0.5
	c0.5,0,0.8-0.2,0.8-0.6l0,0c0-0.3-0.2-0.5-1.2-0.7c-1.2-0.3-1.9-0.6-1.9-1.8l0,0c0-1,0.9-1.8,1.9-1.8c0,0,0.1,0,0.1,0
	c0.6,0,1.3,0.2,1.8,0.5c0.2,0.1,0.3,0.3,0.3,0.5c0,0.3-0.2,0.6-0.6,0.6c0,0,0,0,0,0c-0.1,0-0.2,0-0.3-0.1c-0.4-0.2-0.8-0.4-1.2-0.4
	c-0.5,0-0.8,0.2-0.8,0.5l0,0c0,0.4,0.2,0.5,1.3,0.8c1.2,0.3,1.8,0.7,1.8,1.7l0,0c0,1.2-0.9,1.8-2.1,1.8
	C385.2,51.3,384.5,51.1,383.8,50.6z"/>
<path class="st0" d="M389.2,46.1c0-0.3,0.3-0.6,0.6-0.6c0,0,0,0,0,0h0.1c0.2,0,0.5,0.1,0.6,0.3l1.5,2.5l1.6-2.5
	c0.1-0.2,0.3-0.3,0.6-0.3h0.1c0.3,0,0.6,0.3,0.6,0.6c0,0,0,0,0,0v4.6c0,0.4-0.2,0.7-0.6,0.7s-0.7-0.2-0.7-0.6c0-0.1,0-0.1,0-0.2
	v-2.9l-1.1,1.7c-0.2,0.3-0.5,0.4-0.8,0.2c-0.1-0.1-0.2-0.1-0.2-0.2l-1.1-1.7v2.9c0,0.3-0.3,0.6-0.6,0.6l0,0c-0.3,0-0.6-0.3-0.6-0.6
	c0,0,0,0,0,0L389.2,46.1z"/>
<path class="st0" d="M196.5,98.8c0-11.9,9.7-21.6,21.6-21.6c11.9,0,21.6,9.7,21.6,21.6c0,11.9-9.7,21.6-21.6,21.6
	C206.2,120.4,196.5,110.7,196.5,98.8C196.5,98.8,196.5,98.8,196.5,98.8z M218.1,154.8c30.9,0,56-25,56-55.9c0-30.9-25-56-55.9-56
	c-30.9,0-56,25-56,55.9c0,0,0,0,0,0C162.1,129.7,187.2,154.7,218.1,154.8z"/>
<path class="st0" d="M317.3,98.9c0-11.9,9.7-21.6,21.6-21.6c11.9,0,21.6,9.7,21.6,21.6c0,11.9-9.7,21.6-21.6,21.6
	C327,120.4,317.3,110.8,317.3,98.9C317.3,98.9,317.3,98.9,317.3,98.9z M317.7,47h-0.2V17.3c0-9.5-7.7-17.3-17.3-17.3
	c-9.5,0-17.3,7.7-17.3,17.3c0,0,0,0,0,0l0.1,81.5c0,30.9,25.1,55.9,56,55.9c30.9,0,55.9-25.1,55.9-56c0-30.9-25.1-55.9-56-55.9
	C331.6,42.9,324.4,44.3,317.7,47L317.7,47z"/>
<path class="st0" d="M34,59.6c-0.5-9.4-8.5-16.6-17.9-16.1C7.4,44,0.5,50.9,0,59.6v78.2c0.6,9.4,8.6,16.5,18,16
	c8.6-0.5,15.4-7.4,16-16L34,59.6L34,59.6z"/>
<path class="st0" d="M82.8,111.9v25.9c0,9.4-7.6,17-17,17s-17-7.6-17-17l0,0V59.6c0-9.4,7.6-17,17-17s17,7.6,17,17v23h33.9v-23
	c0-9.4,7.6-17,17-17s17,7.6,17,17v78.2c0,9.4-7.6,17-17,17s-17-7.6-17-17v-25.9L82.8,111.9L82.8,111.9z"/>
<path class="st1" d="M278.6,254c-24.5,0.1-48.6-7-69.1-20.5C187.7,219,171.2,197.8,162,172c-1.5-4.2,0.6-8.9,4.8-10.4
	c4.2-1.5,8.9,0.6,10.4,4.8c0,0,0,0.1,0,0.1c8.1,22.4,22.3,40.9,41.2,53.4c36.5,23.7,83.6,23.7,120.2,0c18.9-12.5,33.2-31,41.2-53.4
	c1.5-4.2,6.2-6.4,10.4-4.8c4.2,1.5,6.3,6.1,4.9,10.3c-9.3,25.8-25.7,47-47.5,61.5C327.2,246.9,303.1,254.1,278.6,254z"/>
</svg>
