<?xml version="1.0" encoding="UTF-8" standalone="no"?>
<svg xmlns="http://www.w3.org/2000/svg" xmlns:xlink="http://www.w3.org/1999/xlink" width="1164.24118" height="756.75676" viewBox="0,0,1164.24118,756.75676"><g transform="translate(-127.70423,-93.86261)"><g fill-rule="nonzero" stroke="none" stroke-linecap="butt" stroke-linejoin="miter" stroke-miterlimit="10" stroke-dasharray="" stroke-dashoffset="0" style="mix-blend-mode: normal"><path d="M127.70423,850.61937v-756.75676h1164.24118v756.75676z" fill="#ef0000" stroke-width="0"/><path d="M813.9473,276.36454c-45.63424,0 -82.62674,177.54927 -82.62848,396.5819h-66.08948c0,-219.03263 -37.00401,-396.5819 -82.63433,-396.5819c-45.61665,0 -82.61087,192.34422 -82.61087,429.61489h-66.11295c0,-255.52829 66.59979,-462.66746 148.72384,-462.66746c46.72329,0 88.42563,62.25341 115.67517,159.60058c27.26127,-97.34717 68.94798,-159.60058 115.67713,-159.60058c82.12403,0 148.716,207.13917 148.716,462.66746h-66.10514c0,-237.27067 -36.98836,-429.61489 -82.61087,-429.61489" id="path3" fill="#ffc300" stroke-width="1"/></g></g></svg>