<?xml version="1.0" encoding="UTF-8"?>
<svg width="2203.8" height="771.49" version="1.1" xmlns="http://www.w3.org/2000/svg">
 <path d="m106.78 367.5c-72.46 91.63-89.1 221.67-28 241 69.76 22.74 159.96-87.18 180-137.02 23.51-60.24 32.26-125.24-5-157.97-37.74-32.27-100.24 77.73-112.97 110-16.02 5.23-32.27-2.27-41.02-7.03-8.75-5.24-6.25-16.49-1.01-28.99 2.14-5.98 5.07-13.08 8-20l16.02-37c14.3-22.18 70.16-96.7 150.98-59.01 77.26 49.76 47.26 177.26 22.03 230-24.77 52.26-147.27 192.26-242.03 147.03-95.24-44.77-52.74-279.77 40-337.03 6.17 3.4 14.64 14.88 29.02 19.02l-16.02 37m403.02-99c-22.5-7.26-40 12.74-46.02 27.98-6.49 14.76 0.93 38.86 19.02 42.03 32 6.48 63.24-44.77 27-70" fill="#063" stroke-width="10"/>
 <path d="m738.78 406.48c1.09 0.54 2.3 0.82 4.02 1.01 34.5 5 47-36.25 42-46.01-4.54-9.34-38.92 7.46-46.02 45l-32.98-15.98c9.96-31.6 28.86-54.77 56.99-64.02 39.5-13.99 59.5 21.01 57 51.01-2.47 29.38-30.13 76.45-84 75-0.42 31.8 7.94 57.19 72 63.99-26.1 30.23-113.48 46.36-111.02-70.98a89.32 89.32 0 0 1-33.98-23c-14.26 46.24-70.5 126.24-113 121-16.26-1-30-18.5-25-44.02-22.5 39.26-102.5 98.01-115 38.01-17.5 26.25-41.26 52.5-62 52-21.76 0.5-40.5-42-24.02-130 16.01-87 59.76-190.75 96.01-232 15 17.5 30 46.25 36.02 65-31.02 30-88.52 110-97.03 205-2.74 28.75-2.74 41.25 10 41.02 12.26 0.23 63.51-109.77 75-170 11.01 7.73 33.51 20.23 50 25.97-21.49 39.26-52.74 114.26-30.98 120 20.74 6.76 69.5-81.99 97-156.99 13.74 10 33.74 21.25 48 28.99-25.5 41.01-46.76 92.26-35 96.01 10.74 3.75 45.74-32.5 62-88.98-10-11.02-7.5-24.77-1.02-39.03 6.01-13.24 14.76-18.24 32.03-3 10.78 8.78 23.63 25.54 40 39.02l32.97 15.98" fill="#063" stroke-width="10"/>
 <path d="m1078.8 525.5c-8.75 19.84-17.66 37.26-25 48.98-82.74 118.01-231.49 153.01-277.97 155-46.02 3.01-61.6-32.85-38.01-61.99 23.24-30 137.58-114.41 245-131.01 38.51-6.37 69.76-9.65 95.98-10.98h34.02c44.84 1.4 75.12 10.43 112 22-10-8.76-30-38.76-39-55-19.17-2.35-38.04-3.8-56-5 29.37-68.76 50.97-135.2 53-151.02 2-26.49-29.26-31.49-48-17.97-18.76 13.98-56.26 42.73-112 92.97-56.76 49.76-84.26 49.76-99.02 37.03-15.24-12.27-5.24-64.77 24.02-96.02 89.5-97.5 180.74-97.5 250-88l45.98-70c-258.99-10.75-365.24 170.5-367.97 225-2.07 50.85 20.23 74.25 57.97 75 37.26 1.75 157.26-82 195-115.98-3.6 26.99-17.35 69.1-32.97 108.98-262.9 3.2-401.64 164.14-413.01 191.02-13.05 30.58-19.26 93.98 65.98 92.97 153.51-1.49 259.76-72.74 317.03-160 16.25-24.61 32.18-54.73 46.99-85.98h-34.02" fill="#063" stroke-width="10"/>
 <path d="m1729.8 443.5c3.04 8.87 10.34 15.24 25 15 33.74 0.24 90-53.5 116-76 26.5-22.5 57.74-33.76 72.98-24 14.76 10.24 21.01 21.5 14.02 45.98 54.5-9.49 85.74 6.76 128 33.01 42.74 26.25 80.24 28.75 117.98 20l-32.97 46.02c-19.77 0.23-47.27 11.48-86.02-19.03-38.75-29.49-63.75-40.74-95-45.97-31.25-4.77-58.75 18.98-80 40-21.25 21.48-36.25 21.48-42 18.98-6.75-2.5-15.5-18.75 5-43 15.75-19.5 30.75-37 22-42s-28.75 15-47 30c-48 43.75-86.75 47.5-104.01 46.02-12.04-0.63-39.1-7.19-50.98-30-73.4 26.99-89.34 8.63-94.02-14.03-12.74 15.51-50.24 48.01-82.97 35-11.8-4.14-18.17-13.4-20-25.97-23.68 18.75-47.62 33.12-63.01 20.97-19.26-13.24-3-54.49 20-95l-12-3c-39.76 73.51-94.76 106.01-108 108-14.26 3.01-40.5 4.26-49.02-25.97-33.99 21.48-61.49 32.73-83.99 17.97l23-33.99c12 7.5 33.25-12.5 55.99-36.01 22.26-23.99 38.51-36.49 30-52-12.74-11.99-39.61 6.14-63.99 29.03-23.12 22.18-32.38 53.04-22 58.98l-23 33.99c-22.5-15.24-31.25-45.24-2-93.99 42-68.75 119.5-75 145-60 0 0 7-11.25 20.99-23.98 11.01 6.48 26.01 25.23 36.01 40-48.75 33.98-78.75 93.98-70 100.97 8.75 8.01 25-3.24 43-23 39.5-38.99 45.75-76.49 53.02-117 11.48 1.76 32.73 6.76 43.98 15-23.75 34.26 13.75 34.26 53 32-64.25 67.26-61.75 91.01-54.01 96.01 5.82 4.02 12.85 5.4 27.03-6.01l40-2c16.48 11.14 82.73-49.49 66.99-75.97-13-9.77-43 15.23-55 30.97-13 16.76-17.66 42.2-12 45l-40 2c2.43-18.17 11.1-39.8 24-62 27.5-45.74 95-68.24 103.98-46.99 16.01-35 82.26-137.5 125-178.98 11.01-1.02 34.76-1.02 61.01 2.97-72.5 59.76-146.25 177.26-160 210-13.75 32.26-26.25 68.51 3 76.01 7.98 2.23 20.17-0.08 34-5-0.51-5.39 0.15-11.72 1.99-18.98 13.51-59.77 67.26-91.02 100-87.03 32.26 3.51 39.76 24.76 36.01 46.01-3.16 17.93-38.51 45.67-95 71.02l-1.01-29.03c17.34-9.3 32.5-18.47 39.02-21.99 14.5-8.75 24.5-23.75 15-31.01-15.78-11.68-49.26 26.01-53 45-0.52 2.26-1.02 5-1.02 8l1.01 29.03" fill="#063" stroke-width="10"/>
 <path d="m907.8 103.5c3.55 4-2.38 12.74-9.02 22.98-6.49 11.01-15.86 19.45-17.97 18-2.9-1.68-1.64-11.68 3.98-20.97 5.63-9.46 16.56-22.27 23-20l20-20c-11.75-13.52-31.75-12.27-45-5-13.55 7.34-45.62 42.58-35 83.98-18.47-3.2-36.51-17.7-51.98-28-17.27-10.75-46.64-12.62-58.01-0.98-9.26 8.98-16.76 3.98-10-7.03 4.5-12.2 8.71-22.62 15-35.98l15-26.02c15.9-23.12 37.23-44.92 38-30 1.22 14.93-11.99 24.85-38 30l-15 26.02c33.9-6.4 61.17-14.1 70.98-22 12.26-9.76 32.26-51 9.02-64.02-26.72-13.28-68 3.01-94.02 48.01-3.44 5.5-6.53 11.17-8.99 17-8.67 0.5-17.54 0.81-27 1l15-56c-23 9.25-43 11.75-54.01 13l-7 43c-30.74 0.13-62.73-0.5-88-1-7.74 19.25-11.49 30.5-18.99 49.02 20.24-0.43 63.75-6.17 102-12.03l-18.01 125 29.02-7 32-123.98c9.48-1.6 17.14-2.81 21.98-4.02-15.15 36.71-27.7 78.24-40.97 123 22.73-1.99 41.48-6.99 65-35.97 23.98-28.52 53.98-23.52 92.97-5 12.8 6.56 24.3 7.97 35 5.97 20.35 28.71 59.18 30.36 86.01 22l18-32c-38.82 22.15-62.69 11.06-75-3 7.74-6.1 15-13.25 22-20 22.5-22.74 28.75-53.99 18-67.97l-20 20" fill="#063" stroke-width="10"/>
</svg>
