<?xml version="1.0" encoding="utf-8"?>
<!-- Generator: Adobe Illustrator 24.3.0, SVG Export Plug-In . SVG Version: 6.00 Build 0)  -->
<svg version="1.1" id="Layer_1" xmlns="http://www.w3.org/2000/svg" xmlns:xlink="http://www.w3.org/1999/xlink" x="0px" y="0px"
	 viewBox="0 0 1920 1080" style="enable-background:new 0 0 1920 1080;" xml:space="preserve">
<style type="text/css">
	.st0{fill:#E42313;}
</style>
<g>
	<path class="st0" d="M547.32,490.36l8.46,52.29h-16.91L547.32,490.36z M796.75,472.78l12.24,59.85h-25.14L796.75,472.78z
		 M1519.2,490.13c10.68,0,19.8,10.01,25.81,18.47v-45.39c-9.79-8.45-19.8-13.35-36.71-13.35c-35.16,0-56.74,35.82-56.74,78.76
		c0,48.51,20.91,77.43,63.19,77.43c12.91,0,21.58-2.22,30.26-7.12v-40.72c-7.12,6.01-14.91,8.9-24.92,8.9
		c-18.47,0-28.7-16.69-28.7-38.27C1491.39,508.82,1498.96,490.13,1519.2,490.13 M1262.44,562c-12.9,0-18.69-23.14-18.69-58.74
		c0-35.16,5.79-58.3,18.69-58.3c12.91,0,18.91,23.14,18.91,58.3C1281.35,538.86,1275.34,562,1262.44,562 M421.17,601.83V487.02
		c5.12-2,9.57-3.11,19.13-4.45v119.26h42.94V434.29c-38.94,6.68-74.98,13.57-105.02,26.48v141.07H421.17z M934.7,561.78
		c8.9-10.23,12.91-30.48,12.91-78.1v-58.3h18.69v136.39H934.7z M487.03,601.83h42.28l4.01-24.25h28.03l4.01,24.25h44.5l-37.6-185.79
		c-15.13,1.11-33.38,4.23-45.61,7.57L487.03,601.83z M1380.59,495.47v-73.2c-10.46-2.23-32.48-6.45-43.39-7.57v187.12h43.39v-66.3
		h21.58v66.3h43.39V435.4c-13.57-3.78-30.04-6.9-43.39-8.9v68.97H1380.59z M1261.33,400.91c-41.83,0-65.19,41.38-65.19,102.35
		c0,66.3,23.81,102.79,66.3,102.79c41.61,0,66.53-40.72,66.53-102.79C1328.97,446.97,1307.61,400.91,1261.33,400.91 M656.35,601.83
		v-156.2l18.47-1.56v157.75h43.39V398.24c-32.93,1.11-71.64,4.45-105.02,10.9v192.68H656.35z M721.32,601.83h47.62l6.23-29.15h41.83
		l6.01,29.15h48.51l-51.62-212.49c-11.79,0-33.6,1.56-44.28,2.89L721.32,601.83z M1206.37,396.91c-16.02-2.23-29.37-3.78-45.39-4.45
		l-22.47,86.78v-88.11c-12.24-1.11-28.03-2.23-41.61-2.45v89l-19.36-89.89c-14.91-0.89-29.59-1.33-44.72-1.56l25.59,104.13
		l-28.48,111.47h45.39l21.58-88.55v88.55h41.61v-87.44l20.03,87.44h45.17l-28.26-107.47L1206.37,396.91z M1010.35,385.78
		c-31.82-1.11-67.42-1.56-99.01-0.89v99.46c0,35.82-0.67,46.95-2.45,59.18c-2.22,13.79-4.67,18.24-12.01,18.24h-7.79v40.05h135.28
		v-40.05h-14.02V385.78z"/>
</g>
</svg>
