<?xml version="1.0" encoding="utf-8"?>
<!-- Generator: Adobe Illustrator 18.1.1 via Limmidy, SVG Export Plug-In . SVG Version: 6.00 Build 0)  -->
<svg version="1.1" id="Layer_1" xmlns="http://www.w3.org/2000/svg" xmlns:xlink="http://www.w3.org/1999/xlink" x="0px" y="0px"
	 viewBox="1.3 55.1 898.7 183.9" enable-background="new 1.3 55.1 898.7 183.9" xml:space="preserve">
<title>Qdoba</title>
<path fill="#F99D1C" d="M899.7,179.9c-3.3-7.7-9-16.6-12.3-24.7c-15.6-31.8-27.8-60.6-43-91.3c-0.6-1.7-1.8-3-3.3-4h-15.8
	c-7.5,0-15.6-0.5-23.4,0s-15.8,0.7-22.5,0.8l-1.1,0.8c-13.5,25.9-21.3,46.6-33.7,72.9c-7.4,12.1-12.9,27.8-20.2,40.4
	c-1,3.2-5.5,5.8-3.5,9.4c5.6,0.5,11.2,0.5,16.8,0c10.9,0.6,21.3,0,31.7,0c4.1-1,9.4,1.6,11.9-2.8c2.6-4.4,2.6-6.7,4.3-10.4
	c1.8-3.6,4.5-2.6,6.7-2.8c5.3,0.6,10.2-1.2,15.8,0h0.8c7.4-0.6,15,0,22,0c2.8,0,2.3,4.9,3.7,6.7c0.9,3.2,2.2,6.3,4,9.2
	c3.7,0.6,7.4,0.8,11.1,0.8c14.8-0.8,25.1,0,39.8,0c2.6-0.4,6,0,8.2,0C900,185.1,900.1,181.8,899.7,179.9L899.7,179.9z M801.3,142.4
	h-5.5l-0.7-0.5c-0.1-0.2-0.1-0.5,0-0.7v-0.7c0.9-1.4,1.7-2.9,2.4-4.5l1.1-2.5c0-0.5,1.3-2.7,1.5-3.3l0.5-1.3l1.9-6.7
	c0.3-0.4,0.5-0.9,0.7-1.4l1.8-4.8c0,0,0.9-2,1-2.3c0.6-1.5,1-3.8,1.2-4.4c0.1-0.4,0.5-0.7,0.9-0.7c0,0,0,0,0,0h3.2
	c0.5,0.1,0.9,0.5,0.9,1.1c0,0,0.7,2.5,1.3,4.1l2,5.3v0.9l1.8,4c0,0.5,1.1,4,1.3,4.4l1.4,3.1l0.4,0.9l2,4.5c0.8,1.6,1.8,3.1,2.8,4.6
	c0.1,0.2,0.1,0.5,0,0.7l-0.7,0.7c-0.3,0-0.6,0-0.9,0l-3.8-0.5L801.3,142.4z M545.7,101.3c-3.6-10.3-9.5-19.7-17.3-27.4
	c-4.3-3.8-9.1-6.8-14.3-9.1c-4.9-2.3-10-4.1-15.2-5.3c-3.2-0.7-6.5-1.1-9.8-1c-3.6-0.3-7.3-0.3-10.9,0h-24.1c-1.8,0.2-3.7,0.2-5.5,0
	c-5.9,0.6-12.6,0.6-18.4,1.2c-11.1,0.7-21.8,4.6-30.8,11.2c-1.6,0.6-3,1.8-3.8,3.2c-9.5,8.8-16,20.4-18.7,33.1
	c-1.4,6.9-1.8,13.9-1.1,20.9c0.2,4.2,0.8,8.4,1.9,12.5c0.6,2.7,1.4,5.3,2.3,7.9c3.2,9.5,9.2,17.9,17.2,23.9c2.4,2.3,5.2,4.1,8.2,5.3
	c3.7,2.4,7.7,4.4,11.9,5.7c3.6,0.6,7.8,1,11.7,1.8s6.7,0,9.6,0.6c12.8,0,30,0.4,42.8-0.4c8.1,0.3,16.2-0.3,24.1-1.8
	c4.3-0.7,8.5-1.9,12.5-3.6c1.3-1.6,3.2-1.4,4.4-2.8c3.5-2,6.7-4.3,9.6-7.1c2.9-0.4,2.5-4,5-5.1c3.3-3.8,5.8-8.1,7.5-12.8
	c2.3-4.6,3.8-9.5,4.4-14.6C549.7,125.4,548.7,113.2,545.7,101.3L545.7,101.3z M491.1,137c-2.5,2.6-5.5,4.6-8.9,6
	c-2.1,1.1-4.4,1.9-6.7,2.4c-3.4,0-6.8,0.3-10.2,0.7c-7.4-1.2-19.4,0-24.9-5.8c-9.1-6.8-11.8-19.4-6.3-29.4
	c3.1-6.8,9.9-11.1,17.4-11.2c1.6,0.4,3.2,0.2,4.6-0.4c3.2,1,13.5-0.7,17,0c4.3,0.3,8.4,1.5,12.1,3.7c4.1,2.1,7.3,5.7,9,10
	C496.9,121,495.7,129.9,491.1,137L491.1,137z M343.9,75.7c-5.2-4.3-11-7.9-17.2-10.8c-11.6-4-23.8-5.9-36.1-5.5
	c-17.1,0-17.9,0.4-35.1,0.4h-12.7c-4.2,0-9,0-13.5,0.4c-7.6-0.6-13.5,0.8-21.7,0c-1,0.5-2.1,0.7-3.2,0.4c-0.9,0.2-1.5,0.9-1.5,1.8
	c-0.4,14.9-0.4,31.7-0.4,46c0,22.3,0.4,45.5-0.7,68.3c1.1,2-0.5,5.2,1.3,6.7c8.4,0.7,16.9,0.9,25.3,0.6c4-0.6,8.1-0.7,12.2-0.5
	c4-0.3,8-0.3,11.9,0c17.9,0,21,0.4,38.7,0c4,0.6,8.4-0.9,12.3-0.5c8.2-0.2,16.3-1.6,24.1-4c1.5-1.4,3.8-1.6,5.3-2.8
	c3.9-2.3,7.6-4.9,11-8c4.2-3.9,7.8-8.4,10.6-13.5c8-12.5,8.2-27.6,7.8-43.4C361,97.6,354.4,84.8,343.9,75.7z M303.5,135.9
	c-1.5,2-3.3,3.8-5.3,5.3c-3.3,2.6-7.4,4.3-11.6,4.6c-2.6,0.4-5.2,0.5-7.7,0.3c-1.4,0.3-2.9,0.1-4.2-0.5c-4.2,0.7-10.4-0.4-14.6,0
	c-1.4-0.5-2.4-1.9-2.4-3.4c0.8-8-0.5-20.2,0.4-28.2c-0.8-5-0.8-10,0-15l0.7-0.4c6.3-0.6,12.5-0.6,18.8,0c5.4-0.8,10.9,0,15.8,2.3
	c4.7,1.5,8.4,5.1,10.2,9.6c1,1.8,1.9,3.6,2.5,5.6c0.8,3.2,1.1,6.5,0.7,9.8C306.5,129.5,305.4,132.9,303.5,135.9z M163.9,72
	c-4.8-4-10.1-7.2-15.8-9.5c-5.4-2.6-11-4.6-16.7-6.1c-3.6-0.8-7.3-1.1-11-1.1c-4.1-0.3-8.3-0.3-12.4,0H90.7c-2.1,0.2-4.2,0.2-6.3,0
	C77.7,56,70.1,56,63.6,56.7c-12.5,0.7-24.6,4.8-35,11.9c-1.8,0.6-3.3,1.9-4.3,3.4C13.7,81.1,6.2,93.3,2.9,107
	c-1.6,7.3-2,14.8-1.3,22.2c0.1,4.6,0.8,9.1,2,13.5c0.7,2.9,1.6,5.7,2.6,8.4c3.7,10.3,10.6,19.2,19.5,25.5c2.7,2.5,5.9,4.4,9.4,5.6
	c4.2,2.6,8.7,4.7,13.5,6.1c4.1,0.7,8.9,1.1,13.5,2c4.6,0.9,7.6,0,10.8,0.7s9.5,0,13.5,0c2-0.1,4,1,4.9,2.8c0.8,1.2,1.6,2.3,2.5,3.4
	c2.5,3,5.1,6.3,8.1,9.2c2.9,3.2,5.9,6.3,9,9.2c1.7,1.4,3.5,2.7,5.3,4c1.8,1.3,4.5,2.8,6.4,4c3.1,1.8,6.4,3.5,9.7,4.9
	c2,1,4,1.8,5.9,2.7l2.9,1.3l3,1.1l5.8,2l4,0.8c1.9,0.1,3.7-0.9,4.4-2.6l1.3-2.2c4.7-9,8.7-16.1,13.5-25.7l0.8-2
	c0.9-1.5,0.5-3.4-1-4.3c-0.2-0.1-0.3-0.2-0.5-0.2c-1.8-0.5-3.5-1.2-5.2-2c-1-0.5-2.5-0.9-3.6-1.5c-1.1-0.5-3-1.7-3.6-2
	c-0.5-0.3-3.2-1.3-4.2-2.2c-1-0.8-3-1.5-4.4-2.9l-2.4-2c0,0-2-1.7-0.5-2.9l2-0.7c2.2-0.9,5.7-1.9,7.8-2.9c4.8-2.1,9.2-5,13.1-8.5
	c0.8-1,1.7-1.9,2.6-2.8c3.7-3.9,6.5-8.5,8.5-13.5c2.6-4.8,4.3-10.1,5-15.6c1.4-13.1,0.4-26.4-3-39.1C180,89.8,173,79.9,163.9,72
	L163.9,72z M120.5,142.4c-1.6,1.7-3.7,2.8-6,3.1c-2.5,1.5-5.9,0.4-8.1,2.1c-3,0.1-6,0.4-8.9,0.9c-2.4-0.4-4.8-0.4-7.2-0.4
	c-6.6,0.5-13.1-1.3-18.6-4.9c-11.4-6.7-12.7-18.9-9.6-29.8c1.2-2.9,2.8-5.5,4.9-7.8c4.8-3.7,10.6-5.7,16.6-5.7
	c1.9,0.3,3.8,0.1,5.6-0.6c3.8,0.9,8.6-0.5,12.5,0.5c4.8,0,9.5,1.1,13.9,3.2c4.8,2.2,8.7,6,11,10.8
	C129.3,123.8,127.1,134.4,120.5,142.4z M709.1,130.4c-4.1-3.5-9-5.8-14.3-6.7c-0.4-0.1-0.7-0.4-0.7-0.8c0-0.4,0-0.8,0-1.1
	c-0.1-0.2,0-0.5,0.2-0.6c13.8-5,21.7-19.4,18.7-33.7c-1.6-6.3-4.7-12.1-9-16.9c-0.8-0.9-1.7-1.6-2.7-2.3c-5.2-4-11.5-6.4-18.1-6.7
	c-4.5-0.4-9-0.6-13.5-0.4c-8.2,0-16-0.5-24.3-0.5c-12.9,0-23-0.4-33.7-0.5c-7.3,0-14.8,0.6-22.7,0.7c-8,0.1-16.6-0.4-24.8-0.4
	c-1.2,0.6-2,1.7-2.1,3c-0.5,17.1,1.3,33.7,0.8,51.1c0.5,1.9,0.5,3.9,0,5.8c0,18.3,1.4,36.4,0.9,55.3c-0.4,2.6-0.2,5.3,0.7,7.7
	c5.3,0.6,10.7,0.8,16.1,0.8h53.2c1.9-0.1,3.8-0.1,5.7,0c6.7,0.4,9.4,0,15.6,0c4.6-0.5,9.2-0.7,13.9-0.6c2.6,0,5.2-0.2,7.8-0.6
	c9.4,0.7,18.7-1.4,27-5.8c2.9-2.1,5.5-4.6,7.8-7.4c1.9-3,3.6-6.2,4.9-9.6c2-6.8,1.6-14.2-1.1-20.8C713.9,136,711.8,133,709.1,130.4
	L709.1,130.4z M619.7,92c6.7,0,11.8,0,17.9-0.4c6.7,1.1,8,0.5,15.8,1.5c3.5,1,6,4.2,6,7.9c0.4,2-0.1,4.2-1.3,5.9
	c-6.7,4.7-15,1.7-22.2,2.8c-5.4-0.3-10.9-0.3-16.3,0c-0.6-1.9-1-3.9-1.2-5.9C617.6,99.7,618.1,95.7,619.7,92L619.7,92z M661.2,147.5
	c-2.1,2.5-5.3,3.8-8.6,3.4c-5.6,0.3-11.3,0.3-16.9,0c-3.4-0.7-8.1,0.5-11.7,0c-1.9-0.4-4.9,0.9-5.7-1.3c-0.3-4.9-0.3-9.9,0-14.8
	c4.7-1.1,9.5-1.5,14.2-1.1c2.7,0.3,5.4,0.3,8,0l10.2,0.9c3.9-0.6,7.7,1.3,9.7,4.7C661.9,141.9,662.2,144.9,661.2,147.5L661.2,147.5z
	"/>
<path d="M241.3,237.8v-23.6l-2,4.5l-9.2,19.1H224l-9.1-19.1l-2-4.5v23.6h-9.4v-35.2h14l8.7,18.9l1.4,3.3l1.7-3.3l8.6-18.9h13.5v35.2
	L241.3,237.8L241.3,237.8z M280.6,237.8v-35.1h31.8v7.6h-21.6v6.7h15.4v5.9h-15.4v6.7h21.6v8L280.6,237.8L280.6,237.8z M364.8,220
	l13.5,17.8h-11.4l-8.6-11.6l-8.8,11.6h-11l13.8-17.5l-13.5-17.7h11.7l8.6,11.5l8.6-11.5h11L364.8,220z M408,237.8v-35.1h10v35.2
	L408,237.8L408,237.8z M479.2,214.3c-2.6-3.2-6.5-5-10.6-5c-5-0.5-9.5,3.2-10,8.2c0,0.3,0,0.6,0,0.9v3.8c0.1,5.1,4.3,9.1,9.4,9
	c0.3,0,0.6,0,0.9-0.1c4.1,0,8-1.8,10.6-5l5.7,4.8c-4,5.3-10.4,8.3-17.1,8c-12.3,0-20.2-7.5-20.2-16.8v-3.6c0.6-10,9.3-17.6,19.3-17
	c0.3,0,0.6,0,0.9,0.1c6.7-0.3,13.2,2.6,17.4,8L479.2,214.3z M538.1,237.8l-3-7.3h-15l-3,7.3h-9.5l15.4-35.2h10.4l15.6,35.2H538.1
	L538.1,237.8z M527.8,212.1l-5.1,12.3h9.9L527.8,212.1z M602.1,237.8l-15.6-18.1l-2.5-3v21.2h-10v-35.1h8.9l15.7,18.2l2.4,3v-21.2
	h9.6v35.2L602.1,237.8L602.1,237.8z M666.6,237.8v-35.1h31.8v7.6h-21.6v6.7h15.4v5.9h-15.4v6.7h21.6v8L666.6,237.8L666.6,237.8z
	 M754.9,237.8l-3-7.3h-15l-3,7.3h-9.3l15.4-35.2h10.4l15.6,35.2H754.9z M744.8,212.1l-5.1,12.3h10.1L744.8,212.1z M808.4,210.5v27
	h-10.3v-27h-13v-7.8h36.2v7.9L808.4,210.5L808.4,210.5z M861.7,239c-6.8,0-13.5-1.9-19.2-5.5l4.1-6.2c4.6,2.9,9.9,4.5,15.3,4.7
	c5.3,0,7.4-1.8,7.4-3.8c0-5.9-25.1-2.4-25.1-15.2c0-6.3,6.7-11.5,17.5-11.5c6.3-0.1,12.5,1.9,17.5,5.7l-4.7,5.5
	c-3.8-2.6-8.4-4.1-13-4.2c-4.7,0-7.4,1.5-7.4,3.7c0,5.7,25.3,2.7,25.3,15.2C879.3,234.2,871.8,239,861.7,239L861.7,239z
	 M900.1,208.7c0.1,3.5-2.6,6.4-6.1,6.5c-3.5,0.1-6.4-2.6-6.5-6.1c-0.1-3.5,2.6-6.4,6.1-6.5c0.1,0,0.2,0,0.3,0
	C897.2,202.6,900,205.3,900.1,208.7C900.1,208.7,900.1,208.7,900.1,208.7z M889,208.7c-0.1,2.6,2,4.8,4.6,4.9c0,0,0.1,0,0.1,0
	c2.6,0,4.7-2.2,4.7-4.8c0,0,0,0,0-0.1c0-2.6-2.1-4.7-4.7-4.8C891.2,204,889,206.1,889,208.7L889,208.7L889,208.7z M892.8,212h-1.4
	v-6.2c0.8-0.1,1.6-0.1,2.4,0c0.7-0.1,1.5,0.1,2.2,0.5c0.4,0.3,0.6,0.8,0.6,1.3c-0.1,0.7-0.6,1.3-1.3,1.4c0.6,0.2,1.1,0.8,1.1,1.5
	c0.1,0.5,0.2,1.1,0.5,1.5h-1.5c-0.2-0.5-0.4-1-0.5-1.5c-0.1-0.6-0.6-1-1.2-1c0,0-0.1,0-0.1,0h-0.7v2.5L892.8,212z M892.8,208.5h0.7
	c0.8,0,1.4,0,1.4-0.9s-0.4-0.9-1.3-0.9h-0.8v2.1L892.8,208.5z"/>
</svg>
