<svg id="svg" version="1.1" xmlns="http://www.w3.org/2000/svg" xmlns:xlink="http://www.w3.org/1999/xlink" width="400" height="400" viewBox="0, 0, 400,400"><g id="svgg"><path id="path0" d="M186.037 2.790 C 174.716 3.890,171.754 4.272,165.782 5.397 C 164.051 5.723,161.750 6.130,160.669 6.302 C 157.928 6.737,149.669 8.785,144.739 10.252 C 142.468 10.928,140.209 11.574,139.719 11.687 C 139.229 11.801,138.732 12.049,138.614 12.240 C 138.496 12.430,138.101 12.589,137.735 12.592 C 135.801 12.610,123.129 17.702,114.165 22.065 C 110.653 23.774,107.600 25.172,107.381 25.172 C 107.161 25.172,106.981 25.349,106.981 25.565 C 106.981 25.782,106.809 25.959,106.599 25.959 C 106.389 25.959,104.870 26.755,103.224 27.729 C 101.577 28.702,100.160 29.499,100.073 29.499 C 99.905 29.499,97.020 31.295,92.625 34.137 C 70.604 48.377,51.132 67.512,36.107 89.676 C 32.670 94.745,25.959 105.942,25.959 106.606 C 25.959 106.813,25.782 106.981,25.565 106.981 C 25.349 106.981,25.172 107.160,25.172 107.378 C 25.172 107.596,23.777 110.649,22.071 114.162 C 17.713 123.140,12.611 135.798,12.592 137.679 C 12.589 138.015,12.440 138.457,12.261 138.663 C 12.082 138.868,11.731 139.744,11.480 140.610 C 11.229 141.475,10.671 143.307,10.240 144.682 C 9.217 147.941,6.692 158.152,6.286 160.669 C 6.112 161.750,5.531 165.202,4.995 168.338 C 3.207 178.797,2.360 188.928,2.360 199.864 C 2.360 213.703,3.012 220.316,6.293 239.725 C 6.780 242.606,8.844 250.908,10.254 255.654 C 10.929 257.925,11.574 260.185,11.687 260.674 C 11.801 261.164,12.049 261.662,12.240 261.779 C 12.430 261.897,12.586 262.419,12.586 262.940 C 12.586 263.461,12.847 264.468,13.166 265.178 C 13.485 265.889,14.393 268.240,15.184 270.403 C 15.976 272.566,17.020 275.221,17.505 276.303 C 17.990 277.384,19.133 279.951,20.044 282.006 C 25.593 294.515,41.657 320.944,43.712 320.944 C 43.898 320.944,44.051 321.140,44.051 321.380 C 44.051 321.774,48.661 327.666,49.712 328.614 C 49.951 328.830,50.855 329.889,51.721 330.968 C 53.321 332.962,65.553 345.341,68.050 347.493 C 68.803 348.143,70.482 349.559,71.780 350.640 C 73.078 351.721,74.228 352.707,74.336 352.832 C 75.217 353.843,88.508 363.757,90.907 365.192 C 91.269 365.408,93.131 366.574,95.045 367.784 C 96.959 368.993,99.410 370.471,100.492 371.070 C 101.573 371.668,102.635 372.291,102.852 372.454 C 103.283 372.780,108.617 375.649,111.111 376.897 C 111.976 377.330,113.127 377.909,113.668 378.185 C 121.586 382.216,135.316 387.418,147.296 390.926 C 154.106 392.920,168.415 395.766,175.221 396.481 C 194.882 398.544,205.583 398.539,225.172 396.458 C 230.999 395.839,244.510 393.299,249.361 391.911 C 250.551 391.571,252.144 391.116,252.901 390.900 C 253.658 390.685,254.897 390.368,255.654 390.197 C 258.712 389.504,272.243 384.691,276.696 382.712 C 287.948 377.709,295.319 374.044,298.192 372.023 C 298.767 371.619,299.346 371.288,299.480 371.288 C 299.614 371.288,301.763 370.005,304.256 368.437 C 306.748 366.868,309.211 365.320,309.728 364.995 C 313.600 362.568,325.717 353.439,325.991 352.742 C 326.064 352.559,326.373 352.409,326.680 352.409 C 326.986 352.409,327.237 352.263,327.237 352.084 C 327.237 351.906,328.432 350.802,329.892 349.631 C 333.307 346.893,346.848 333.348,349.626 329.891 C 350.800 328.431,351.906 327.237,352.084 327.237 C 352.263 327.237,352.409 326.986,352.409 326.680 C 352.409 326.373,352.559 326.064,352.742 325.991 C 353.421 325.724,363.149 312.833,364.799 310.014 C 365.016 309.644,366.043 308.037,367.083 306.443 C 368.908 303.644,374.435 294.306,374.435 294.021 C 374.435 293.944,375.036 292.816,375.772 291.515 C 376.896 289.526,379.104 284.812,382.712 276.696 C 384.718 272.183,389.525 258.675,390.201 255.654 C 390.370 254.897,390.685 253.658,390.900 252.901 C 391.116 252.144,391.571 250.551,391.911 249.361 C 396.740 232.485,399.143 204.379,397.411 185.054 C 396.218 171.756,395.278 165.504,392.929 155.266 C 389.901 142.069,383.617 124.338,378.185 113.668 C 377.909 113.127,377.330 111.976,376.897 111.111 C 375.649 108.617,372.780 103.283,372.454 102.852 C 372.291 102.635,371.668 101.573,371.070 100.492 C 370.471 99.410,368.993 96.959,367.784 95.045 C 366.574 93.131,365.408 91.269,365.192 90.907 C 363.724 88.454,353.761 75.111,352.818 74.336 C 352.686 74.228,352.211 73.660,351.761 73.074 C 348.184 68.408,337.445 57.491,329.576 50.520 C 326.306 47.624,321.780 44.051,321.380 44.051 C 321.140 44.051,320.944 43.912,320.944 43.743 C 320.944 41.652,283.032 18.879,279.553 18.879 C 279.399 18.879,278.162 18.371,276.804 17.751 C 275.447 17.130,272.566 15.975,270.403 15.184 C 268.240 14.393,265.889 13.485,265.178 13.166 C 264.468 12.847,263.486 12.586,262.996 12.586 C 262.505 12.586,261.936 12.437,261.731 12.255 C 260.883 11.504,244.807 7.149,239.725 6.294 C 238.643 6.112,235.634 5.595,233.038 5.145 C 218.861 2.687,197.900 1.637,186.037 2.790 M214.159 10.042 C 234.831 11.735,247.943 14.628,268.285 21.983 C 283.188 27.372,300.459 37.008,315.831 48.512 C 342.986 68.833,367.251 101.248,378.410 132.109 C 389.621 163.112,393.124 190.657,389.746 221.239 C 387.949 237.505,384.772 250.692,378.410 268.285 C 360.983 316.479,316.479 360.983,268.285 378.410 C 250.813 384.728,237.474 387.943,221.239 389.749 C 190.808 393.134,163.070 389.606,132.109 378.410 C 86.043 361.753,44.127 321.401,24.780 275.085 C 23.885 272.943,22.997 270.836,22.807 270.403 C 21.762 268.020,18.456 258.488,17.351 254.671 C 5.391 213.349,6.883 173.868,21.983 132.109 C 36.292 92.536,68.861 54.941,107.375 33.538 C 113.180 30.312,126.288 23.992,127.174 23.992 C 127.321 23.992,128.192 23.651,129.109 23.234 C 151.060 13.260,186.440 7.771,214.159 10.042 M225.369 105.479 L 225.369 178.564 203.343 178.564 L 181.318 178.564 181.318 105.998 L 181.318 33.432 180.433 33.437 C 179.946 33.441,178.486 33.688,177.188 33.986 C 175.890 34.285,173.278 34.743,171.384 35.005 C 169.490 35.266,167.852 35.624,167.743 35.799 C 167.609 36.016,167.443 328.002,167.551 374.140 C 167.551 374.302,167.817 374.435,168.142 374.435 C 168.466 374.435,168.732 374.600,168.732 374.801 C 168.732 375.003,169.130 375.292,169.617 375.443 C 170.103 375.594,171.209 376.032,172.075 376.416 C 173.511 377.054,179.342 378.368,180.736 378.368 C 181.248 378.368,181.318 367.295,181.318 286.136 L 181.318 193.904 203.343 193.904 L 225.369 193.904 225.369 285.742 L 225.369 377.581 226.647 377.581 C 228.592 377.581,233.744 376.515,236.695 375.503 L 239.331 374.598 239.331 204.518 L 239.331 34.437 235.792 33.595 C 233.845 33.132,230.703 32.672,228.810 32.573 L 225.369 32.393 225.369 105.479 M138.643 46.277 C 85.183 64.914,46.183 109.509,33.442 166.568 C 19.739 227.940,46.801 296.021,99.410 332.524 L 102.655 334.775 102.633 325.991 L 102.611 317.207 98.614 314.061 C 81.569 300.641,66.314 280.316,55.957 257.227 C 48.756 241.176,44.186 218.316,44.514 200.000 L 44.641 192.920 98.820 192.821 L 152.999 192.721 152.999 185.053 L 152.999 177.384 99.474 177.384 L 45.949 177.384 46.205 175.713 C 53.971 125.192,89.203 81.413,137.856 61.828 L 142.576 59.928 142.576 52.683 C 142.576 44.347,142.859 44.807,138.643 46.277 M313.455 60.132 C 299.803 65.908,290.690 73.864,281.048 88.424 C 274.912 97.690,272.684 102.925,270.387 113.471 C 267.878 124.996,268.176 144.009,271.011 153.196 C 276.630 171.402,284.050 181.806,309.047 206.531 C 328.923 226.191,332.608 231.125,335.161 241.495 C 335.890 244.459,335.895 261.084,335.168 264.897 C 332.888 276.841,332.001 279.953,328.105 289.676 C 320.523 308.597,305.084 327.847,284.351 344.232 L 281.221 346.706 281.219 350.639 C 281.217 352.802,281.100 356.857,280.957 359.650 L 280.698 364.727 282.630 363.409 C 296.362 354.037,314.338 337.177,324.433 324.202 C 347.948 293.979,357.080 251.085,345.078 227.224 C 341.013 219.142,336.160 213.396,318.592 195.870 C 295.344 172.676,288.399 163.170,284.814 149.632 C 280.981 135.158,282.863 113.795,288.954 102.655 C 297.812 86.453,307.038 78.030,323.192 71.397 C 327.531 69.616,327.628 70.135,321.854 64.237 C 316.427 58.695,316.624 58.791,313.455 60.132 " stroke="none" fill="#000000" fill-rule="evenodd"></path><path id="path1" d="M187.611 9.859 C 172.801 10.970,159.632 13.326,145.723 17.351 C 141.056 18.702,132.118 21.867,129.109 23.234 C 128.192 23.651,127.321 23.992,127.174 23.992 C 126.288 23.992,113.180 30.312,107.375 33.538 C 68.861 54.941,36.292 92.536,21.983 132.109 C 6.883 173.868,5.391 213.349,17.351 254.671 C 18.456 258.488,21.762 268.020,22.807 270.403 C 22.997 270.836,23.885 272.943,24.780 275.085 C 44.127 321.401,86.043 361.753,132.109 378.410 C 163.070 389.606,190.808 393.134,221.239 389.749 C 237.474 387.943,250.813 384.728,268.285 378.410 C 316.479 360.983,360.983 316.479,378.410 268.285 C 384.772 250.692,387.949 237.505,389.746 221.239 C 393.124 190.657,389.621 163.112,378.410 132.109 C 367.251 101.248,342.986 68.833,315.831 48.512 C 300.459 37.008,283.188 27.372,268.285 21.983 C 240.496 11.935,213.672 7.904,187.611 9.859 M235.792 33.595 L 239.331 34.437 239.331 204.518 L 239.331 374.598 236.695 375.503 C 233.744 376.515,228.592 377.581,226.647 377.581 L 225.369 377.581 225.369 285.742 L 225.369 193.904 203.343 193.904 L 181.318 193.904 181.318 286.136 C 181.318 367.295,181.248 378.368,180.736 378.368 C 179.342 378.368,173.511 377.054,172.075 376.416 C 171.209 376.032,170.103 375.594,169.617 375.443 C 169.130 375.292,168.732 375.003,168.732 374.801 C 168.732 374.600,168.466 374.435,168.142 374.435 C 167.817 374.435,167.551 374.302,167.551 374.140 C 167.443 328.002,167.609 36.016,167.743 35.799 C 167.852 35.624,169.490 35.266,171.384 35.005 C 173.278 34.743,175.890 34.285,177.188 33.986 C 178.486 33.688,179.946 33.441,180.433 33.437 L 181.318 33.432 181.318 105.998 L 181.318 178.564 203.343 178.564 L 225.369 178.564 225.369 105.479 L 225.369 32.393 228.810 32.573 C 230.703 32.672,233.845 33.132,235.792 33.595 M142.576 52.683 L 142.576 59.928 137.856 61.828 C 89.203 81.413,53.971 125.192,46.205 175.713 L 45.949 177.384 99.474 177.384 L 152.999 177.384 152.999 185.053 L 152.999 192.721 98.820 192.821 L 44.641 192.920 44.514 200.000 C 44.186 218.316,48.756 241.176,55.957 257.227 C 66.314 280.316,81.569 300.641,98.614 314.061 L 102.611 317.207 102.633 325.991 L 102.655 334.775 99.410 332.524 C 51.715 299.431,24.941 241.175,30.888 183.433 C 31.843 174.161,32.490 170.461,35.000 159.936 C 47.277 108.442,87.801 64.002,138.643 46.277 C 142.859 44.807,142.576 44.347,142.576 52.683 M321.854 64.237 C 327.628 70.135,327.531 69.616,323.192 71.397 C 307.038 78.030,297.812 86.453,288.954 102.655 C 282.863 113.795,280.981 135.158,284.814 149.632 C 288.399 163.170,295.344 172.676,318.592 195.870 C 336.160 213.396,341.013 219.142,345.078 227.224 C 357.080 251.085,347.948 293.979,324.433 324.202 C 314.338 337.177,296.362 354.037,282.630 363.409 L 280.698 364.727 280.957 359.650 C 281.100 356.857,281.217 352.802,281.219 350.639 L 281.221 346.706 284.351 344.232 C 305.084 327.847,320.523 308.597,328.105 289.676 C 332.001 279.953,332.888 276.841,335.168 264.897 C 335.895 261.084,335.890 244.459,335.161 241.495 C 332.608 231.125,328.923 226.191,309.047 206.531 C 284.050 181.806,276.630 171.402,271.011 153.196 C 268.176 144.009,267.878 124.996,270.387 113.471 C 272.684 102.925,274.912 97.690,281.048 88.424 C 290.690 73.864,299.803 65.908,313.455 60.132 C 316.624 58.791,316.427 58.695,321.854 64.237 " stroke="none" fill="#ffffff" fill-rule="evenodd"></path></g></svg>