<?xml version="1.0" encoding="UTF-8" standalone="no"?>
<!-- Created with Inkscape (http://www.inkscape.org/) -->

<svg
   xmlns:dc="http://purl.org/dc/elements/1.1/"
   xmlns:cc="http://creativecommons.org/ns#"
   xmlns:rdf="http://www.w3.org/1999/02/22-rdf-syntax-ns#"
   xmlns:svg="http://www.w3.org/2000/svg"
   xmlns="http://www.w3.org/2000/svg"
   xmlns:sodipodi="http://sodipodi.sourceforge.net/DTD/sodipodi-0.dtd"
   xmlns:inkscape="http://www.inkscape.org/namespaces/inkscape"
   width="148.4046"
   height="110.92368"
   viewBox="0 0 39.265384 29.348556"
   version="1.1"
   id="svg6897"
   inkscape:version="0.92.0 r15299"
   sodipodi:docname="smoothie king.svg">
  <defs
     id="defs6891" />
  <sodipodi:namedview
     id="base"
     pagecolor="#ffffff"
     bordercolor="#666666"
     borderopacity="1.0"
     inkscape:pageopacity="0.0"
     inkscape:pageshadow="2"
     inkscape:zoom="4.8488188"
     inkscape:cx="73.702299"
     inkscape:cy="54.961839"
     inkscape:document-units="mm"
     inkscape:current-layer="layer1"
     showgrid="false"
     fit-margin-top="0"
     fit-margin-left="0"
     fit-margin-right="0"
     fit-margin-bottom="0"
     units="px"
     inkscape:window-width="1280"
     inkscape:window-height="744"
     inkscape:window-x="-4"
     inkscape:window-y="-4"
     inkscape:window-maximized="1" />
  <metadata
     id="metadata6894">
    <rdf:RDF>
      <cc:Work
         rdf:about="">
        <dc:format>image/svg+xml</dc:format>
        <dc:type
           rdf:resource="http://purl.org/dc/dcmitype/StillImage" />
        <dc:title></dc:title>
      </cc:Work>
    </rdf:RDF>
  </metadata>
  <g
     inkscape:label="Layer 1"
     inkscape:groupmode="layer"
     id="layer1"
     transform="translate(-77.2615,-182.40772)">
    <g
       transform="translate(-994.92101,-426.3037)"
       id="g6862">
      <path
         style="fill:#a93439;fill-rule:nonzero;stroke:none;stroke-width:0.26458332"
         inkscape:connector-curvature="0"
         d="m 1076.4323,627.93635 c 0,-0.40311 -0.288,-0.64786 -1.2526,-1.03657 -1.0365,-0.4175 -1.7564,-0.8782 -1.7564,-1.82838 0,-1.28131 1.1518,-2.14512 2.6202,-2.14512 1.051,0 1.6557,0.33113 2.1164,0.67665 0.1583,0.11517 0.2735,0.25914 0.2735,0.50388 0,0.33113 -0.2591,0.57587 -0.5759,0.57587 -0.1295,0 -0.2591,-0.0432 -0.3455,-0.12957 -0.4607,-0.37431 -0.907,-0.57587 -1.5404,-0.57587 -0.7919,0 -1.2669,0.43191 -1.2669,0.8926 0,0.4319 0.3455,0.64786 1.3245,1.03657 1.0365,0.40311 1.6988,0.8782 1.6988,1.82838 0,1.3245 -1.2094,2.17391 -2.649,2.17391 -0.8782,0 -1.8428,-0.23035 -2.5339,-0.8782 -0.1295,-0.10078 -0.2303,-0.28793 -0.2303,-0.48949 0,-0.34552 0.2447,-0.60466 0.5903,-0.60466 0.1583,0 0.3167,0.072 0.4031,0.15836 0.5614,0.51828 1.0653,0.76303 1.8428,0.76303 0.7198,0.0288 1.2813,-0.35992 1.2813,-0.92139"
         id="Shape" />
      <path
         style="fill:#a93439;fill-rule:nonzero;stroke:none;stroke-width:0.26458332"
         inkscape:connector-curvature="0"
         d="m 1083.6738,624.68268 c 0.3743,0 0.5759,0.27354 0.4463,0.73424 l -1.0509,3.90151 c -0.1008,0.35992 -0.3456,0.56148 -0.6335,0.56148 -0.3743,0 -0.5903,-0.27354 -0.4607,-0.73424 l 0.6335,-2.36106 -1.267,1.36769 c -0.1871,0.21595 -0.3887,0.33112 -0.619,0.33112 -0.2592,0 -0.3743,-0.12957 -0.4895,-0.4031 l -0.4895,-1.29571 -0.6766,2.53382 c -0.1008,0.35992 -0.3312,0.56148 -0.6335,0.56148 -0.3743,0 -0.5759,-0.27354 -0.4607,-0.73424 l 1.051,-3.90151 c 0.1008,-0.35992 0.3023,-0.57587 0.6478,-0.57587 h 0.072 c 0.2879,0 0.4607,0.17276 0.5759,0.46069 l 0.7774,2.04434 1.814,-2.15951 c 0.2015,-0.23035 0.3887,-0.34552 0.6622,-0.34552 h 0.1008 z"
         id="path6628" />
      <path
         style="fill:#a93439;fill-rule:nonzero;stroke:none;stroke-width:0.26458332"
         inkscape:connector-curvature="0"
         d="m 1084.2065,627.66281 c 0,-1.52605 1.2381,-3.03771 3.0809,-3.03771 1.4109,0 2.3467,0.97898 2.3467,2.27468 0,1.52606 -1.2525,3.03771 -3.0809,3.03771 -1.4253,-0.0144 -2.3467,-0.99337 -2.3467,-2.27468 m 4.247,-0.69104 c 0,-0.76303 -0.4607,-1.31011 -1.3101,-1.31011 -1.0797,0 -1.7852,1.03657 -1.7852,1.91477 0,0.76303 0.4607,1.3101 1.3101,1.3101 1.0798,0 1.7852,-1.03656 1.7852,-1.91476"
         id="path6630" />
      <path
         style="fill:#a93439;fill-rule:nonzero;stroke:none;stroke-width:0.26458332"
         inkscape:connector-curvature="0"
         d="m 1090.066,627.66281 c 0,-1.52605 1.2381,-3.03771 3.0809,-3.03771 1.4109,0 2.3466,0.97898 2.3466,2.27468 0,1.52606 -1.2381,3.03771 -3.0809,3.03771 -1.4108,-0.0144 -2.3466,-0.99337 -2.3466,-2.27468 m 4.2614,-0.69104 c 0,-0.76303 -0.4607,-1.31011 -1.3101,-1.31011 -1.0797,0 -1.7852,1.03657 -1.7852,1.91477 0,0.76303 0.4607,1.3101 1.3101,1.3101 1.0798,0 1.7852,-1.03656 1.7852,-1.91476"
         id="path6632" />
      <path
         style="fill:#a93439;fill-rule:nonzero;stroke:none;stroke-width:0.26458332"
         inkscape:connector-curvature="0"
         d="m 1097.2356,629.31843 c -0.1008,0.35992 -0.3312,0.56148 -0.6335,0.56148 -0.3743,0 -0.5759,-0.27354 -0.4607,-0.73424 l 0.9214,-3.39763 h -0.9358 c -0.2879,0 -0.5183,-0.23034 -0.5183,-0.51828 0,-0.28793 0.2304,-0.51828 0.5183,-0.51828 h 3.2825 c 0.2879,0 0.5182,0.23035 0.5182,0.51828 0,0.28794 -0.2303,0.51828 -0.5182,0.51828 h -1.2094 z"
         id="path6634" />
      <path
         style="fill:#a93439;fill-rule:nonzero;stroke:none;stroke-width:0.26458332"
         inkscape:connector-curvature="0"
         d="m 1103.7717,629.31843 c -0.1008,0.35992 -0.3312,0.56148 -0.6335,0.56148 -0.3743,0 -0.5759,-0.27354 -0.4607,-0.73424 l 0.3743,-1.36769 h -2.0443 l -0.4175,1.54045 c -0.1008,0.35992 -0.3311,0.56148 -0.6335,0.56148 -0.3743,0 -0.5758,-0.27354 -0.4607,-0.73424 l 1.051,-3.91591 c 0.1008,-0.35992 0.3311,-0.56147 0.6335,-0.56147 0.3743,0 0.5758,0.27354 0.4607,0.73423 l -0.36,1.3389 h 2.0444 l 0.4031,-1.51166 c 0.1008,-0.35992 0.3311,-0.56147 0.6334,-0.56147 0.3744,0 0.5759,0.27354 0.4607,0.73423 z"
         id="path6636" />
      <path
         style="fill:#a93439;fill-rule:nonzero;stroke:none;stroke-width:0.26458332"
         inkscape:connector-curvature="0"
         d="m 1105.6576,629.31843 c -0.1007,0.35992 -0.3311,0.56148 -0.6334,0.56148 -0.3743,0 -0.5759,-0.27354 -0.4607,-0.73424 l 1.051,-3.91591 c 0.1007,-0.35992 0.3311,-0.56147 0.6334,-0.56147 0.3743,0 0.5759,0.27354 0.4607,0.73423 z"
         id="path6638" />
      <path
         style="fill:#a93439;fill-rule:nonzero;stroke:none;stroke-width:0.26458332"
         inkscape:connector-curvature="0"
         d="m 1106.867,629.83672 c -0.3743,0 -0.5759,-0.27354 -0.4607,-0.73424 l 1.0221,-3.82953 c 0.1008,-0.35992 0.3312,-0.56147 0.6335,-0.56147 h 2.7498 c 0.2735,0 0.5039,0.23035 0.5039,0.50388 0,0.27354 -0.2304,0.50389 -0.5039,0.50389 h -2.3755 l -0.2735,1.05096 h 1.7852 c 0.2735,0 0.5039,0.21595 0.5039,0.50389 0,0.27354 -0.2304,0.48949 -0.5039,0.48949 h -2.0444 l -0.2879,1.07975 h 2.1595 c 0.2735,0 0.5039,0.23035 0.5039,0.50389 0,0.27354 -0.2304,0.50388 -0.5039,0.50388 h -2.9081 z"
         id="path6640" />
      <path
         style="fill:#d13239;fill-rule:nonzero;stroke:none;stroke-width:0.26458332"
         inkscape:connector-curvature="0"
         d="m 1084.7968,615.36799 c 0.7198,-0.27353 2.2027,2.41866 3.5272,2.2171 2.1451,-0.33112 2.1163,-4.8373 3.5992,-4.96687 1.4828,-0.11518 2.0443,6.08982 3.4552,6.39215 1.4109,0.30233 3.8583,-4.03109 4.7221,-3.68557 0.763,0.30233 -0.3599,5.25481 0.4607,5.39878 0.8206,0.14397 1.7132,-1.41088 1.8572,-0.59027 0.1439,0.82062 -0.2304,2.37547 -0.9646,2.60581 -0.7486,0.23035 -1.123,-0.82061 -2.8937,-1.10854 -1.7852,-0.30234 -2.4331,1.92916 -3.7288,1.7564 -1.8428,-0.24475 -2.721,-4.53498 -3.8439,-4.26144 -1.1374,0.27354 0.014,3.46962 -1.4541,3.77195 -1.2525,0.21595 -2.5194,-2.99452 -3.412,-2.60581 -0.7631,0.33112 -0.216,2.2027 -0.8926,1.742 -0.6623,-0.48948 -1.5693,-6.1618 -0.4319,-6.66569"
         id="path6642" />
      <path
         style="fill:#d13239;fill-rule:nonzero;stroke:none;stroke-width:0.26458332"
         inkscape:connector-curvature="0"
         d="m 1083.573,613.00693 c -0.072,-0.56147 0.2592,-1.05096 0.7487,-1.07976 0.4895,-0.0288 0.9646,0.40311 1.0365,0.96458 0.072,0.56148 -0.1583,1.68442 -0.6478,1.71322 -0.5039,0.0288 -1.0654,-1.03657 -1.1374,-1.59804"
         id="path6644" />
      <path
         style="fill:#d13239;fill-rule:nonzero;stroke:none;stroke-width:0.26458332"
         inkscape:connector-curvature="0"
         d="m 1091.0737,609.63809 c 0.043,-0.51828 0.5471,-0.8782 1.123,-0.77742 0.5759,0.10077 1.0078,0.59026 0.9646,1.12294 -0.043,0.51829 -0.6479,1.72761 -1.2237,1.64123 -0.5759,-0.10078 -0.9214,-1.45407 -0.8639,-1.98675"
         id="path6646" />
      <path
         style="fill:#d13239;fill-rule:nonzero;stroke:none;stroke-width:0.26458332"
         inkscape:connector-curvature="0"
         d="m 1099.9709,612.64701 c 0.2016,-0.53268 0.6767,-0.71984 1.1662,-0.57587 0.4895,0.14397 0.7486,0.64785 0.5902,1.12295 -0.1583,0.47509 -0.907,1.52605 -1.454,1.33889 -0.4751,-0.15836 -0.4607,-1.41088 -0.3024,-1.88597"
         id="path6648" />
      <path
         style="fill:#d13239;fill-rule:nonzero;stroke:none;stroke-width:0.26458332"
         inkscape:connector-curvature="0"
         d="m 1082.7956,637.30862 c -0.1008,0.37432 -0.3599,0.59027 -0.6766,0.59027 -0.3887,0 -0.6335,-0.28793 -0.4895,-0.77742 l 1.5116,-5.62913 c 0.1152,-0.37431 0.36,-0.59026 0.6767,-0.59026 0.3887,0 0.619,0.28793 0.4895,0.77742 l -0.7343,2.74978 3.9879,-3.29686 c 0.144,-0.12957 0.3024,-0.23034 0.5039,-0.23034 0.3455,0 0.5471,0.23034 0.5471,0.54707 0,0.17276 -0.072,0.33113 -0.2159,0.4607 l -2.5627,2.08753 1.4253,2.98012 c 0.072,0.14397 0.1008,0.27354 0.1008,0.40311 0,0.33113 -0.3023,0.54708 -0.6047,0.54708 -0.3311,0 -0.5183,-0.18716 -0.619,-0.41751 l -1.2957,-2.82176 -1.6989,1.35329 z"
         id="path6650" />
      <path
         style="fill:#d13239;fill-rule:nonzero;stroke:none;stroke-width:0.26458332"
         inkscape:connector-curvature="0"
         d="m 1094.1115,633.26314 c 0.1007,-0.35992 0.3311,-0.56147 0.619,-0.56147 0.3743,0 0.5759,0.27354 0.4463,0.73423 l -1.0653,3.93031 c -0.086,0.33113 -0.2736,0.53268 -0.6047,0.53268 h -0.029 c -0.3599,0 -0.5039,-0.14397 -0.6479,-0.4175 l -1.3676,-2.95134 -0.7631,2.83616 c -0.1007,0.35992 -0.3311,0.56148 -0.619,0.56148 -0.3743,0 -0.5759,-0.27354 -0.4463,-0.73424 l 1.0509,-3.88712 c 0.1008,-0.35992 0.3312,-0.56147 0.6623,-0.56147 h 0.058 c 0.3311,0 0.5327,0.17276 0.6622,0.4463 l 1.2957,2.83616 z"
         id="path6652" />
      <path
         style="fill:#d13239;fill-rule:nonzero;stroke:none;stroke-width:0.26458332"
         inkscape:connector-curvature="0"
         d="m 1099.6686,636.9919 c -0.072,0.25914 -0.2016,0.4463 -0.4607,0.59026 -0.2735,0.14397 -0.8638,0.31673 -1.5261,0.31673 -1.1661,0 -2.4042,-0.69104 -2.4042,-2.23149 0,-1.59804 1.3533,-3.08091 3.1961,-3.08091 0.8638,0 1.4828,0.28794 1.7852,0.57587 0.1151,0.10078 0.2303,0.23035 0.2303,0.4607 0,0.30233 -0.2447,0.56147 -0.5615,0.56147 -0.1583,0 -0.2735,-0.0576 -0.3455,-0.11517 -0.3311,-0.25914 -0.6478,-0.4319 -1.1949,-0.4319 -1.0942,0 -1.9436,0.93578 -1.9436,2.00114 0,0.79182 0.5903,1.23812 1.3101,1.23812 0.3887,0 0.6911,-0.10077 0.9214,-0.20155 l 0.2448,-0.83501 h -0.6335 c -0.2735,0 -0.4895,-0.21595 -0.4895,-0.48949 0,-0.27354 0.216,-0.48949 0.4895,-0.48949 h 1.3245 c 0.3743,0 0.5759,0.27354 0.4607,0.71984 z"
         id="path6654" />
      <path
         style="fill:#d13239;fill-rule:nonzero;stroke:none;stroke-width:0.26458332"
         inkscape:connector-curvature="0"
         d="m 1088.8854,637.33742 c -0.1007,0.35992 -0.3311,0.56147 -0.6334,0.56147 -0.3743,0 -0.5759,-0.27354 -0.4607,-0.73423 l 0.6478,-2.43305 c 0.1008,-0.35992 0.3312,-0.56147 0.6335,-0.56147 0.3743,0 0.5759,0.27353 0.4607,0.73423 z"
         id="path6656" />
      <path
         style="fill:#d13239;fill-rule:nonzero;stroke:none;stroke-width:0.26458332"
         inkscape:connector-curvature="0"
         d="m 1089.015,632.31296 c 0.144,-0.35992 0.4751,-0.50389 0.8062,-0.38872 0.3312,0.10078 0.5183,0.4463 0.4031,0.77743 -0.1151,0.31673 -0.619,1.05096 -0.9933,0.92139 -0.3312,-0.12957 -0.3168,-0.99338 -0.216,-1.3101"
         id="path6658" />
      <path
         style="fill:#d13239;fill-rule:nonzero;stroke:none;stroke-width:0.26458332"
         inkscape:connector-curvature="0"
         d="m 1100.9355,637.4238 c 0,0.24475 -0.2015,0.4319 -0.4463,0.4319 -0.2447,0 -0.4463,-0.18715 -0.4463,-0.4319 0,-0.24474 0.2016,-0.4319 0.4463,-0.4319 0.2448,0 0.4463,0.18716 0.4463,0.4319 z m -0.7774,0 c 0,0.18716 0.144,0.34552 0.3311,0.34552 0.1872,0 0.3311,-0.15836 0.3311,-0.34552 0,-0.18716 -0.1439,-0.34552 -0.3311,-0.34552 -0.1871,0 -0.3311,0.14397 -0.3311,0.34552 z m 0.2591,0.21595 h -0.1007 v -0.4319 c 0.043,0 0.1007,-0.0144 0.1727,-0.0144 0.086,0 0.1152,0.0144 0.144,0.0288 0.029,0.0144 0.043,0.0432 0.043,0.0864 0,0.0576 -0.043,0.0864 -0.086,0.10077 v 0 c 0.043,0.0144 0.058,0.0432 0.072,0.10078 0.014,0.072 0.029,0.0864 0.029,0.10078 h -0.1008 c -0.014,-0.0144 -0.014,-0.0576 -0.029,-0.10078 -0.014,-0.0432 -0.029,-0.072 -0.086,-0.072 h -0.043 v 0.20155 z m 0.014,-0.24474 h 0.043 c 0.058,0 0.1008,-0.0144 0.1008,-0.0576 0,-0.0432 -0.029,-0.072 -0.086,-0.072 -0.029,0 -0.043,0 -0.058,0 z"
         id="path6660" />
    </g>
  </g>
</svg>
