<?xml version="1.0" encoding="UTF-8" standalone="no"?>
<!-- Created with Inkscape (http://www.inkscape.org/) -->

<svg
   xmlns:dc="http://purl.org/dc/elements/1.1/"
   xmlns:cc="http://creativecommons.org/ns#"
   xmlns:rdf="http://www.w3.org/1999/02/22-rdf-syntax-ns#"
   xmlns:svg="http://www.w3.org/2000/svg"
   xmlns="http://www.w3.org/2000/svg"
   xmlns:sodipodi="http://sodipodi.sourceforge.net/DTD/sodipodi-0.dtd"
   xmlns:inkscape="http://www.inkscape.org/namespaces/inkscape"
   width="125.72723mm"
   height="27.037649mm"
   viewBox="0 0 125.72723 27.037649"
   version="1.1"
   id="svg6523"
   inkscape:version="0.92.0 r15299"
   sodipodi:docname="Tropical Smoothie Cafe.svg">
  <defs
     id="defs6517" />
  <sodipodi:namedview
     id="base"
     pagecolor="#ffffff"
     bordercolor="#666666"
     borderopacity="1.0"
     inkscape:pageopacity="0.0"
     inkscape:pageshadow="2"
     inkscape:zoom="1.9028023"
     inkscape:cx="235.70502"
     inkscape:cy="49.205016"
     inkscape:document-units="mm"
     inkscape:current-layer="layer1"
     showgrid="false"
     fit-margin-top="0"
     fit-margin-left="0"
     fit-margin-right="0"
     fit-margin-bottom="0"
     inkscape:window-width="1280"
     inkscape:window-height="744"
     inkscape:window-x="-4"
     inkscape:window-y="-4"
     inkscape:window-maximized="1" />
  <metadata
     id="metadata6520">
    <rdf:RDF>
      <cc:Work
         rdf:about="">
        <dc:format>image/svg+xml</dc:format>
        <dc:type
           rdf:resource="http://purl.org/dc/dcmitype/StillImage" />
        <dc:title></dc:title>
      </cc:Work>
    </rdf:RDF>
  </metadata>
  <g
     inkscape:label="Layer 1"
     inkscape:groupmode="layer"
     id="layer1"
     transform="translate(-15.499476,-168.07642)">
    <g
       id="g6625"
       transform="translate(0.49999613,-0.50000211)">
      <path
         id="path6226"
         d="m 50.12021,188.00207 c 1.084791,0 1.643062,0.635 1.643062,1.74889 v 0.22754 h -1.058333 v -0.29898 c 0,-0.49741 -0.203729,-0.68527 -0.558271,-0.68527 -0.354542,0 -0.558271,0.18786 -0.558271,0.68527 0,1.4314 2.180167,1.69863 2.180167,3.68565 0,1.11125 -0.568854,1.7489 -1.664229,1.7489 -1.095375,0 -1.664229,-0.635 -1.664229,-1.7489 v -0.42598 h 1.058333 v 0.49742 c 0,0.49741 0.22225,0.67733 0.576792,0.67733 0.354541,0 0.579437,-0.17992 0.579437,-0.67733 0,-1.4314 -2.180167,-1.69863 -2.180167,-3.68565 0,-1.11125 0.558271,-1.74889 1.643063,-1.74889"
         class="cls-1"
         inkscape:connector-curvature="0"
         style="fill:#f7a800;stroke-width:0.26458332" />
      <polygon
         transform="matrix(0.26458333,0,0,0.26458333,15.499481,169.07642)"
         id="polygon6228"
         points="141.01,71.83 146.87,71.83 149.98,90.49 152.86,71.83 158.72,71.83 158.72,98.11 154.73,98.11 154.73,79.26 151.82,98.11 147.83,98.11 144.69,79.52 144.69,98.11 141.01,98.11 "
         class="cls-1"
         style="fill:#f7a800" />
      <path
         id="path6230"
         d="m 59.735168,193.43396 c 0,0.49742 0.224896,0.68527 0.579437,0.68527 0.354542,0 0.579438,-0.18785 0.579438,-0.68527 v -3.75444 c 0,-0.49741 -0.22225,-0.68527 -0.579438,-0.68527 -0.357187,0 -0.579437,0.18786 -0.579437,0.68527 z m -1.108604,-3.68564 c 0,-1.11125 0.597958,-1.7489 1.693333,-1.7489 1.095375,0 1.693333,0.635 1.693333,1.7489 v 3.61685 c 0,1.11125 -0.597958,1.7489 -1.693333,1.7489 -1.095375,0 -1.693333,-0.63765 -1.693333,-1.7489 z"
         class="cls-1"
         inkscape:connector-curvature="0"
         style="fill:#f7a800;stroke-width:0.26458332" />
      <path
         id="path6232"
         d="m 64.159001,193.43396 c 0,0.49742 0.22225,0.68527 0.579438,0.68527 0.357187,0 0.579437,-0.18785 0.579437,-0.68527 v -3.75444 c 0,-0.49741 -0.22225,-0.68527 -0.579437,-0.68527 -0.357188,0 -0.579438,0.18786 -0.579438,0.68527 z m -1.116541,-3.68564 c 0,-1.11125 0.597958,-1.7489 1.693333,-1.7489 1.095375,0 1.693333,0.635 1.693333,1.7489 v 3.61685 c 0,1.11125 -0.597958,1.7489 -1.693333,1.7489 -1.095375,0 -1.693333,-0.635 -1.693333,-1.7489 z"
         class="cls-1"
         inkscape:connector-curvature="0"
         style="fill:#f7a800;stroke-width:0.26458332" />
      <polygon
         transform="matrix(0.26458333,0,0,0.26458333,15.499481,169.07642)"
         id="polygon6234"
         points="195.52,71.83 208.56,71.83 208.56,75.58 204.15,75.58 204.15,98.11 199.93,98.11 199.93,75.58 195.52,75.58 "
         class="cls-1"
         style="fill:#f7a800" />
      <polygon
         transform="matrix(0.26458333,0,0,0.26458333,15.499481,169.07642)"
         id="polygon6236"
         points="216.15,98.11 211.93,98.11 211.93,71.83 216.15,71.83 216.15,83.09 220.94,83.09 220.94,71.83 225.24,71.83 225.24,98.11 220.94,98.11 220.94,86.85 216.15,86.85 "
         class="cls-1"
         style="fill:#f7a800" />
      <rect
         id="rect6238"
         height="6.9532499"
         width="1.1165416"
         y="188.08144"
         x="76.30867"
         class="cls-1"
         style="fill:#f7a800;stroke-width:0.26458332" />
      <polygon
         transform="matrix(0.26458333,0,0,0.26458333,15.499481,169.07642)"
         id="polygon6240"
         points="242.87,82.9 248.66,82.9 248.66,86.66 242.87,86.66 242.87,94.36 250.15,94.36 250.15,98.11 238.65,98.11 238.65,71.83 250.15,71.83 250.15,75.58 242.87,75.58 "
         class="cls-1"
         style="fill:#f7a800" />
      <path
         id="path6243"
         d="m 96.165647,185.28215 v 3.37344 c 0,4.0587 -2.071688,6.3791 -6.069542,6.3791 -3.997854,0 -6.069542,-2.32304 -6.069542,-6.3791 v -13.20007 c 0,-4.0587 2.071688,-6.3791 6.069542,-6.3791 3.997854,0 6.069542,2.3204 6.069542,6.3791 v 2.46592 h -3.849688 v -2.71727 c 0,-1.8124 -0.814916,-2.50296 -2.116666,-2.50296 -1.30175,0 -2.116667,0.69056 -2.116667,2.50296 v 13.70277 c 0,1.8124 0.814917,2.46592 2.116667,2.46592 1.30175,0 2.116666,-0.65352 2.116666,-2.46592 v -3.62479 z"
         class="cls-2"
         inkscape:connector-curvature="0"
         style="fill:#e75300;stroke-width:0.26458332" />
      <path
         id="path6245"
         d="m 102.47067,186.69502 h 3.92377 l -1.96056,-12.83493 z m 9.28952,8.04598 h -4.10634 l -0.70379,-4.60375 h -4.99798 l -0.70379,4.60375 h -3.727977 l 4.135437,-25.37354 h 5.95842 z"
         class="cls-2"
         inkscape:connector-curvature="0"
         style="fill:#e75300;stroke-width:0.26458332" />
      <polygon
         transform="matrix(0.26458333,0,0,0.26458333,15.499481,169.07642)"
         id="polygon6247"
         points="388.17,97.01 372.78,97.01 372.78,1.1 413.49,1.1 413.49,14.8 388.17,14.8 388.17,43.71 408.03,43.71 408.03,57.41 388.17,57.41 "
         class="cls-2"
         style="fill:#e75300" />
      <polygon
         transform="matrix(0.26458333,0,0,0.26458333,15.499481,169.07642)"
         id="polygon6249"
         points="436.99,41.52 458.12,41.52 458.12,55.22 436.99,55.22 436.99,83.31 463.57,83.31 463.57,97.01 421.6,97.01 421.6,1.1 463.57,1.1 463.57,14.8 436.99,14.8 "
         class="cls-2"
         style="fill:#e75300" />
      <path
         id="path6252"
         d="m 21.03721,184.47517 a 1.476375,1.476375 0 0 1 -0.410104,0.52917 v 0 a 0.89164582,0.89164582 0 0 1 -0.640292,0.20902 c -0.293687,0 -0.381,-0.09 -0.428625,-0.17992 v -0.0159 a 1.9393958,1.9393958 0 0 1 -0.164041,-0.97632 v -9.00641 h 1.833562 v -1.04511 h -1.852083 v -3.99256 l -2.553229,1.19592 -0.01588,2.79664 h -1.307042 v 1.04511 h 1.267354 v 9.12283 c 0,0.84402 0.1905,1.42081 0.584729,1.76477 0.394229,0.34396 1.058334,0.52917 1.9685,0.52917 0.878417,0 1.505479,-0.16404 1.912938,-0.50271 a 2.9633333,2.9633333 0 0 0 0.841375,-1.08744 l 0.116416,-0.26458 -1.029229,-0.43921 z"
         class="cls-3"
         inkscape:connector-curvature="0"
         style="fill:#969300;stroke-width:0.26458332" />
      <path
         id="path6254"
         d="m 28.863585,173.71986 a 2.3045208,2.3045208 0 0 0 -1.545167,0.58737 2.6458333,2.6458333 0 0 0 -0.420687,0.44186 v -0.84932 l -4.183063,0.0582 v 0.99219 h 1.5875 v 10.42987 h -1.5875 v 1.01336 h 5.722938 v -1.04511 h -1.561042 v -5.41072 a 10.548937,10.548937 0 0 1 0.566209,-3.63538 v 0 c 0.391583,-1.10596 0.706437,-1.32292 0.828145,-1.37319 a 0.92074999,0.92074999 0 0 1 0.0291,0.12965 l -0.100542,0.92339 v 0.0344 a 1.17475,1.17475 0 0 0 1.254125,1.05833 h 0.111125 a 1.0980208,1.0980208 0 0 0 0.931333,-0.43127 1.6298333,1.6298333 0 0 0 0.264583,-0.9816 2.0399375,2.0399375 0 0 0 -0.4445,-1.37054 1.8229791,1.8229791 0 0 0 -1.449916,-0.5715"
         class="cls-3"
         inkscape:connector-curvature="0"
         style="fill:#969300;stroke-width:0.26458332" />
      <path
         id="path6256"
         d="m 33.99121,182.6469 c -0.0635,-0.64029 -0.09525,-1.39171 -0.09525,-2.23044 v -0.56885 a 15.232062,15.232062 0 0 1 0.388937,-3.89202 v 0 c 0.264584,-1.05834 0.79375,-1.18798 1.17475,-1.18798 0.211667,0 0.859896,0 1.195917,1.19591 a 15.27175,15.27175 0 0 1 0.391583,3.88673 v 0.56886 c 0,1.65629 -0.132291,2.96333 -0.391583,3.88673 -0.336021,1.19591 -0.981604,1.19591 -1.195917,1.19591 -0.214312,0 -0.859895,0 -1.195916,-1.19327 a 10.527771,10.527771 0 0 1 -0.264584,-1.65629 m 1.529292,-8.92704 c -1.322917,0 -2.402417,0.63235 -3.230562,1.88383 -0.828146,1.25148 -1.201209,2.72786 -1.201209,4.52438 0,1.79652 0.381,3.32846 1.135063,4.52437 0.79375,1.25148 1.852083,1.88648 3.175,1.88648 1.322916,0 2.402416,-0.63235 3.227916,-1.88119 0.79375,-1.20914 1.214438,-2.73314 1.214438,-4.52966 0,-1.79652 -0.381,-3.32846 -1.135063,-4.52438 -0.79375,-1.25412 -1.852083,-1.88912 -3.19352,-1.88912"
         class="cls-3"
         inkscape:connector-curvature="0"
         style="fill:#969300;stroke-width:0.26458332" />
      <path
         id="path6258"
         d="m 44.288793,180.16775 c 0,-1.78329 0.140229,-3.175 0.418042,-4.11162 v 0 c 0.328083,-1.18269 0.928687,-1.18269 1.127125,-1.18269 0.452437,0 0.79375,0.41275 0.994833,1.22502 a 18.190104,18.190104 0 0 1 0.328083,3.90525 v 0.16933 a 17.615958,17.615958 0 0 1 -0.365125,4.00844 v 0 c -0.283104,1.25413 -0.830791,1.25413 -1.013354,1.25413 -0.182562,0 -0.732896,0 -1.074208,-1.09273 a 11.689292,11.689292 0 0 1 -0.418042,-3.43959 z m 1.960563,-6.44525 a 2.9580416,2.9580416 0 0 0 -1.513417,0.36777 2.1166666,2.1166666 0 0 0 -0.41275,0.30957 l 0.01588,-0.50007 -4.233333,0.0609 v 1.00541 h 1.606021 v 14.04938 h -1.674813 v 1.05833 h 5.871104 v -1.05833 h -1.621896 v -2.9845 a 2.3203958,2.3203958 0 0 0 0.370417,0.21167 3.5057291,3.5057291 0 0 0 1.473729,0.29633 c 1.227667,0 2.198688,-0.61648 2.886604,-1.83356 v 0 c 0.621771,-1.14829 0.939271,-2.64584 0.939271,-4.47411 0,-1.94204 -0.298979,-3.50573 -0.891646,-4.65137 -0.619125,-1.23561 -1.566333,-1.85209 -2.817812,-1.85209"
         class="cls-3"
         inkscape:connector-curvature="0"
         style="fill:#969300;stroke-width:0.26458332" />
      <polygon
         transform="matrix(0.26458333,0,0,0.26458333,15.499481,169.07642)"
         id="polygon6260"
         points="138.16,61.62 132.02,61.62 132.02,65.45 153.6,65.45 153.6,61.5 147.88,61.5 147.88,18.23 132.02,18.46 132.02,22.2 138.16,22.2 "
         class="cls-3"
         style="fill:#969300" />
      <path
         id="path6262"
         d="m 63.965855,181.81611 a 8.0988957,8.0988957 0 0 1 -0.365125,1.34143 7.5591457,7.5591457 0 0 1 -0.582083,1.22503 c -0.418042,0.70643 -0.92075,1.05833 -1.531937,1.05833 -0.687917,0 -1.18798,-0.43392 -1.529292,-1.32292 a 8.4957707,8.4957707 0 0 1 -0.420688,-1.70921 15.247937,15.247937 0 0 1 -0.148166,-2.24366 14.163146,14.163146 0 0 1 0.481541,-4.06665 c 0.423334,-1.32292 1.074209,-1.32292 1.285875,-1.32292 a 1.016,1.016 0 0 1 0.878417,0.3863 v 0 a 1.285875,1.285875 0 0 1 0.238125,0.83079 c 0,0.0582 0,0.12171 0,0.18785 0,0.0662 -0.01588,0.13759 -0.02646,0.20902 v 0.0291 0.0291 c 0.06615,1.02394 0.79375,1.1774 1.227666,1.1774 h 0.148167 c 0.814917,-0.0714 1.264708,-0.51065 1.232958,-1.20386 a 2.2172083,2.2172083 0 0 0 -0.34925,-1.15093 2.7966458,2.7966458 0 0 0 -0.918104,-0.85461 4.7042916,4.7042916 0 0 0 -2.492375,-0.69321 c -1.30175,0 -2.397125,0.65617 -3.257021,1.94998 -0.8255,1.2409 -1.243541,2.77019 -1.243541,4.54554 0,1.77536 0.394229,3.24644 1.169458,4.44236 0.812271,1.25148 1.87325,1.88383 3.159125,1.88383 a 3.3707916,3.3707916 0 0 0 2.669646,-1.19327 c 0.645583,-0.74083 1.145646,-1.85208 1.481667,-3.28877 l 0.06085,-0.26458 -1.100667,-0.34132 z"
         class="cls-3"
         inkscape:connector-curvature="0"
         style="fill:#969300;stroke-width:0.26458332" />
      <path
         id="path6264"
         d="m 68.961189,184.81913 a 7.4083332,7.4083332 0 0 1 -0.198438,-1.85209 5.5112708,5.5112708 0 0 1 0.280458,-2.02935 v 0 a 0.67733332,0.67733332 0 0 1 0.264584,-0.35719 l 0.616479,-0.32543 v 0 a 2.7516666,2.7516666 0 0 1 0.648229,-0.24342 c 0.238125,-0.0582 0.441854,-0.10319 0.605896,-0.13229 v 1.83356 a 6.1515624,6.1515624 0 0 1 -0.529167,2.62731 c -0.460375,1.00542 -0.986896,1.00542 -1.158875,1.00542 -0.113771,0 -0.378354,0 -0.529166,-0.52917 m 4.926541,0.381 c -0.05821,-0.0767 -0.153458,-0.28839 -0.153458,-0.8255 v -6.72306 c 0,-1.27 -0.288396,-2.2516 -0.859896,-2.91042 -0.5715,-0.65881 -1.505479,-1.01071 -2.788708,-1.01071 -1.042459,0 -1.875896,0.20903 -2.4765,0.61913 v 0 a 1.9605625,1.9605625 0 0 0 -0.904875,1.72508 v 0 c 0.0344,0.59002 0.468312,0.92604 1.190625,0.92604 h 0.113771 a 1.2408958,1.2408958 0 0 0 0.894291,-0.29897 1.0186458,1.0186458 0 0 0 0.306917,-0.74348 v -0.11642 a 1.2276667,1.2276667 0 0 1 0.235479,-0.85725 1.2065,1.2065 0 0 1 0.79375,-0.20108 0.67468749,0.67468749 0 0 1 0.685271,0.42862 4.6646041,4.6646041 0 0 1 0.264583,1.78594 v 1.72244 a 12.504208,12.504208 0 0 1 -1.542521,0.39952 c -0.30427,0.0556 -0.595312,0.11377 -0.867833,0.16933 -0.272521,0.0556 -0.529166,0.11377 -0.79375,0.16933 a 2.2330833,2.2330833 0 0 0 -1.510771,1.16946 4.8709791,4.8709791 0 0 0 -0.486833,2.31511 c 0,1.08743 0.193146,1.95262 0.5715,2.57704 0.404813,0.6985 1.100667,1.05833 2.069042,1.05833 a 4.4370624,4.4370624 0 0 0 1.722437,-0.33073 v 0 a 3.1485416,3.1485416 0 0 0 0.978958,-0.67469 1.5875,1.5875 0 0 0 0.4445,0.48684 v 0 c 0.354542,0.23283 0.894292,0.34396 1.645709,0.34396 h 1.833562 v -1.05305 h -0.756708 c -0.314854,0 -0.529167,-0.0529 -0.60325,-0.14816"
         class="cls-3"
         inkscape:connector-curvature="0"
         style="fill:#969300;stroke-width:0.26458332" />
      <polygon
         transform="matrix(0.26458333,0,0,0.26458333,15.499481,169.07642)"
         id="polygon6266"
         points="234.79,4.13 234.79,61.62 228.57,61.62 228.57,65.45 250.15,65.45 250.15,61.5 244.51,61.5 244.51,0.17 228.57,0.39 228.57,4.13 "
         class="cls-3"
         style="fill:#969300" />
      <path
         id="path6268"
         d="m 54.829793,170.611 c 0,0.8255 -0.751417,1.49225 -1.674812,1.49225 -0.923396,0 -1.672167,-0.66675 -1.672167,-1.49225 0,-0.8255 0.746125,-1.4896 1.669521,-1.4896 0.923396,0 1.674812,0.66675 1.674812,1.49225"
         class="cls-3"
         inkscape:connector-curvature="0"
         style="fill:#969300;stroke-width:0.26458332" />
      <path
         id="path6318"
         d="m 138.49898,170.23529 v 0 a 0.863865,0.863865 0 0 1 1.72773,0 v 0 a 0.863865,0.863865 0 0 1 -1.72773,0 z m 1.62719,0 v 0 a 0.76464582,0.76464582 0 1 0 -1.52665,0 v 0 a 0.75141666,0.75141666 0 0 0 0.762,0.762 0.75935416,0.75935416 0 0 0 0.75671,-0.76729 z m -1.11919,-0.48947 h 0.40746 a 0.3889375,0.3889375 0 0 1 0.2831,0.10054 0.2778125,0.2778125 0 0 1 0.0767,0.20108 v 0 a 0.28575,0.28575 0 0 1 -0.18521,0.2884 l 0.21167,0.32808 h -0.23548 l -0.19579,-0.29633 h -0.15875 v 0.29633 h -0.20373 z m 0.40481,0.44979 c 0.10319,0 0.15875,-0.0556 0.15875,-0.13229 v 0 c 0,-0.0873 -0.0635,-0.1323 -0.16139,-0.1323 h -0.19844 v 0.26459 z"
         class="cls-2"
         inkscape:connector-curvature="0"
         style="fill:#e75300;stroke-width:0.26458332" />
    </g>
  </g>
</svg>
