<?xml version="1.0" encoding="UTF-8" standalone="no"?>
<!-- Created with Inkscape (http://www.inkscape.org/) -->

<svg
   xmlns:dc="http://purl.org/dc/elements/1.1/"
   xmlns:cc="http://creativecommons.org/ns#"
   xmlns:rdf="http://www.w3.org/1999/02/22-rdf-syntax-ns#"
   xmlns:svg="http://www.w3.org/2000/svg"
   xmlns="http://www.w3.org/2000/svg"
   xmlns:sodipodi="http://sodipodi.sourceforge.net/DTD/sodipodi-0.dtd"
   xmlns:inkscape="http://www.inkscape.org/namespaces/inkscape"
   width="300"
   height="284"
   id="svg2"
   version="1.1"
   inkscape:version="0.47 r22583"
   sodipodi:docname="Whataburger logo.svg"
   style="display:inline">
  <defs
     id="defs4">
    <inkscape:perspective
       sodipodi:type="inkscape:persp3d"
       inkscape:vp_x="0 : 526.18109 : 1"
       inkscape:vp_y="0 : 1000 : 0"
       inkscape:vp_z="744.09448 : 526.18109 : 1"
       inkscape:persp3d-origin="372.04724 : 350.78739 : 1"
       id="perspective10" />
    <inkscape:perspective
       id="perspective2824"
       inkscape:persp3d-origin="0.5 : 0.33333333 : 1"
       inkscape:vp_z="1 : 0.5 : 1"
       inkscape:vp_y="0 : 1000 : 0"
       inkscape:vp_x="0 : 0.5 : 1"
       sodipodi:type="inkscape:persp3d" />
  </defs>
  <sodipodi:namedview
     id="base"
     pagecolor="#ffffff"
     bordercolor="#666666"
     borderopacity="1.0"
     inkscape:pageopacity="0.0"
     inkscape:pageshadow="2"
     inkscape:zoom="1.4"
     inkscape:cx="271.93974"
     inkscape:cy="111.34636"
     inkscape:document-units="px"
     inkscape:current-layer="layer3"
     showgrid="false"
     inkscape:window-width="1152"
     inkscape:window-height="808"
     inkscape:window-x="-4"
     inkscape:window-y="-4"
     inkscape:window-maximized="1" />
  <metadata
     id="metadata7">
    <rdf:RDF>
      <cc:Work
         rdf:about="">
        <dc:format>image/svg+xml</dc:format>
        <dc:type
           rdf:resource="http://purl.org/dc/dcmitype/StillImage" />
        <dc:title />
      </cc:Work>
    </rdf:RDF>
  </metadata>
  <g
     inkscape:groupmode="layer"
     id="layer2"
     inkscape:label="W">
    <path
       style="fill:#ff770f;fill-opacity:1;stroke:none"
       d="m 150,1.15625 -40.90625,111.125 c 0,0 -27.777758,-76.764906 -34.34375,-93.9375 C 68.184009,1.1711572 58.092487,5.1875 33.34375,5.1875 l -27.78125,0 0,18.6875 39.90625,0 c 30.809652,0 27.763322,7.601674 38.875,37.90625 11.111678,30.304576 23.75,64.625 23.75,64.625 L 149.5,14.28125 l 41.9375,112.125 c 0,0 18.66957,-46.956368 28.7711,-76.250792 C 230.31012,20.861034 241.42274,23.875 264.65625,23.875 l 28.28125,0 0,-19.1875 -38.375,0 c -28.28427,0 -26.28362,3.527436 -35.375,28.78125 -9.09137,25.253813 -29.28125,78.8125 -29.28125,78.8125 L 150,1.15625 z"
       id="path3603"
       sodipodi:nodetypes="ccsccccscccsccccscc" />
    <path
       style="fill:#ff770f;fill-opacity:1;stroke:none"
       d="m 149.5,29.4375 -42.4375,110.625 c 0,0 -24.73128,-63.640699 -32.8125,-83.84375 -8.08122,-20.203051 -9.599296,-22.75 -30.8125,-22.75 C 23.175609,33.46875 7.0497518,33.041329 5.5625,33 l 0,19.6875 38.375,0 c 25.253813,0 24.748093,5.539966 37.375,38.875 12.626907,33.33503 24.75,62.625 24.75,62.625 L 149.5,44.09375 193.4375,154.1875 c 0,0 30.30822,-70.691461 33.84375,-85.84375 C 230.81679,53.191462 241.41687,52.6875 262.125,52.6875 l 31.84375,0 0,-19.21875 -44.46875,0 c -21.71828,0 -20.71605,11.137208 -30.3125,37.90625 -9.59645,26.769043 -26.75,68.1875 -26.75,68.1875 L 149.5,29.4375 z"
       id="path3607" />
    <path
       style="fill:#ff770f;fill-opacity:1;stroke:none"
       d="m 5.555839,80.454262 0,-19.192898 c 0,0 10.606602,0 28.284271,0 17.67767,0 26.769043,-4.040611 39.39595,26.263966 12.626907,30.30458 31.31473,79.29697 31.31473,79.29697 L 150.00765,58.735982 193.94929,167.32738 c 0,0 22.22335,-52.52793 31.31473,-74.751287 9.09137,-22.223356 8.08122,-32.324882 32.82996,-32.324882 24.74873,0 35.86041,0 35.86041,0 l 0,20.708127 c 0,0 -14.14213,0 -31.8198,0 -17.67767,0 -25.75889,-2.525381 -36.3655,26.769042 -10.6066,29.29442 -30.30457,74.24621 -30.30457,74.24621 L 149.50258,71.867965 104.55079,181.97459 c 0,0 -20.203052,-49.49747 -29.294425,-71.72083 C 66.164992,88.030406 63.134534,80.454262 42.931483,80.454262 c -20.203051,0 -36.8705677,0 -37.375644,0 z"
       id="path3609"
       sodipodi:nodetypes="ccsscccssccsscccssc" />
    <path
       style="fill:#ff770f;fill-opacity:1;stroke:none"
       d="m 102.02541,208.74364 c 0,0 -19.192901,-44.44672 -29.294427,-67.68023 -10.101525,-23.2335 -12.626907,-32.32488 -31.314729,-32.32488 -18.687822,0 -35.860415,0 -35.860415,0 l 0,-20.203048 c 0,0 5.050763,0 26.263966,0 21.213204,0 25.25737,0.26451 34.346965,19.830228 9.089595,19.56572 36.36371,85.73071 36.36371,85.73071 L 150.00765,86.515177 195.96959,194.09642 c 0,0 22.72844,-51.0127 32.82996,-74.24621 10.10153,-23.233507 10.10153,-30.809651 29.29443,-30.809651 19.19289,0 35.86041,0 35.86041,0 l 0,20.203051 c 0,0 -9.59645,0 -26.76904,0 -17.17259,0 -28.28427,-1.51523 -35.86042,19.1929 -7.57614,20.70813 -34.34518,80.8122 -34.34518,80.8122 l -47.47717,-109.09647 -47.47717,108.5914 z"
       id="path3611" />
    <path
       style="fill:#ff770f;fill-opacity:1;stroke:none"
       d="m 100.0051,237.53298 c 0,0 -23.738583,-51.0127 -33.335032,-72.73098 -9.596449,-21.71828 -8.586297,-28.28427 -21.213203,-28.28427 -12.626907,0 -39.901026,0 -39.901026,0 l 0,-19.1929 c 0,0 7.576144,0 24.748737,0 17.172594,0 21.71828,-3.53553 32.829958,21.71828 11.111678,25.25381 37.880716,83.33758 37.880716,83.33758 l 48.48733,-107.58124 47.98224,107.07617 c 0,0 27.7792,-57.07362 36.87057,-76.7716 9.09137,-19.69797 6.56599,-27.77919 31.81981,-27.77919 25.25381,0 28.28427,0 28.28427,0 l 0,19.69797 c 0,0 -13.13199,0 -29.29443,0 -16.16244,0 -19.69797,-2.0203 -25.75889,13.63706 -6.06091,15.65737 -40.4061,86.87312 -40.4061,86.87312 L 148.9975,128.43651 100.0051,237.53298 z"
       id="path3613" />
    <text
       xml:space="preserve"
       style="font-size:11.27260494000000100px;font-style:normal;font-weight:normal;writing-mode:lr-tb;fill:#ff770f;fill-opacity:1;stroke:none;font-family:DejaVu Sans;-inkscape-font-specification:DejaVu Sans"
       x="243.8994"
       y="149.26532"
       id="text3668"><tspan
         sodipodi:role="line"
         id="tspan3670"
         x="243.8994"
         y="149.26532">®</tspan></text>
  </g>
  <g
     inkscape:groupmode="layer"
     id="layer3"
     inkscape:label="WHATABYRGER">
    <path
       style="fill:#ff770f;fill-opacity:1;stroke:none"
       d="m 10.101525,244.85659 c 0,0 -0.3788067,7.07107 0.631346,10.6066 1.010152,3.53553 3.282996,7.70241 3.282996,7.70241 0,0 2.777919,-7.95495 2.777919,-11.11167 0,-3.15673 0.631345,-7.44988 0.631345,-7.44988 l 6.439723,0.25254 c 0,0 0.378807,6.9448 0.757614,9.34391 0.378808,2.39911 2.399113,6.9448 2.399113,6.9448 0,0 0.505076,-4.41942 2.777919,-10.48033 2.272843,-6.06092 3.030458,-7.07107 5.177032,-6.81853 2.146574,0.25253 5.682108,2.77792 5.682108,2.77792 0,0 -4.545686,7.44987 -6.060915,17.04632 -1.515229,9.59645 -2.020305,10.48033 -2.020305,13.76333 0,3.28299 0.252538,5.68211 -3.156727,5.68211 -3.409265,0 -5.808377,0.3788 -7.197337,-6.566 -1.38896,-6.94479 -2.65165,-8.20748 -2.65165,-8.20748 0,0 -2.146575,3.53553 -2.020305,6.43972 0.126269,2.90419 0.757614,8.20749 -1.136422,8.08122 -1.894036,-0.12627 -7.0710679,1.89403 -8.3337586,-2.02031 C 6.8185297,276.92893 3.661803,261.77664 2.7779195,257.60976 1.894036,253.44289 -0.88388348,247.50824 2.2728432,245.48793 c 3.1567267,-2.0203 7.7024132,-0.63134 7.8286818,-0.63134 z"
       id="path3627" />
    <path
       style="fill:#ff770f;fill-opacity:1;stroke:none"
       d="m 52.275394,244.73032 -0.883883,15.15229 8.08122,0 0.883884,-14.77348 c 0,0 4.04061,-0.37881 6.439722,1.89403 2.399112,2.27285 2.272843,6.06092 1.894036,8.96511 -0.378807,2.90419 -4.545686,27.40038 -4.545686,27.40038 0,0 -2.146574,-0.12626 -4.16688,-2.0203 -2.020305,-1.89404 -2.65165,-5.05076 -2.525381,-8.9651 0.126269,-3.91435 0,-5.55584 0,-5.55584 l -6.565991,-0.12627 -0.12627,16.79378 c 0,0 -3.156726,0.12627 -5.177031,-2.0203 -2.020305,-2.14658 -3.914341,-5.42957 -3.409265,-11.23795 0.505076,-5.80838 -1.136422,-21.33947 3.030457,-23.99112 4.16688,-2.65165 7.197337,-1.26269 7.071068,-1.51523 z"
       id="path3629" />
    <path
       style="fill:#ff770f;fill-opacity:1;stroke:none"
       d="m 81.59375,244.65625 c -1.881674,0.15124 -2.78121,2.29156 -3.5625,4.375 -1.136421,3.03046 -6.176078,18.18448 -7.3125,21.59375 -1.136421,3.40926 -1.020305,5.68703 1,8.84375 C 73.739055,282.62548 75.5,283.375 75.5,283.375 L 78.78125,272.5 85.625,272 c 0,0 -1.011898,4.55313 3.28125,8.59375 4.293148,4.04061 7.8125,2.90625 7.8125,2.90625 0,0 -4.927347,-21.59407 -5.9375,-27.78125 -1.010152,-6.18719 -1.644352,-6.81329 -5.9375,-9.84375 -1.341609,-0.94702 -2.394694,-1.2875 -3.25,-1.21875 z m 1.125,10.6875 2.5,11.09375 -5.78125,0 3.28125,-11.09375 z"
       id="path3631" />
    <path
       style="fill:#ff770f;fill-opacity:1;stroke:none"
       d="m 108.33886,282.86358 1.76777,-31.31473 c 0,0 3.6618,0.12627 5.68211,-2.02031 2.0203,-2.14657 2.0203,-4.92449 2.0203,-4.92449 0,0 -8.46003,-0.12627 -12.87944,0 -4.41942,0.12627 -6.060919,0 -8.207494,2.02031 -2.146574,2.0203 -1.388959,6.94479 -1.388959,6.94479 l 5.934643,-1.26269 c 0,0 -1.01015,17.93021 -1.13642,21.71828 -0.12627,3.78808 0.25254,4.41942 3.03046,6.81853 2.77792,2.39912 5.05076,2.14658 5.17703,2.02031 z"
       id="path3636" />
    <path
       style="fill:#ff770f;fill-opacity:1;stroke:none"
       d="m 125.875,244.875 c -1.17197,-0.0542 -2.21209,0.46772 -2.875,2.125 -1.51523,3.78808 -5.70606,17.67179 -6.96875,22.34375 -1.26269,4.67195 -3.02665,6.81583 -0.375,9.59375 2.65165,2.77792 5.67988,6.2032 6.4375,1.53125 0.75761,-4.67196 1.03125,-8.47002 1.03125,-8.34375 l 7.8125,0.125 c 0,0 -0.008,1.78585 0.75,4.4375 0.75761,2.65165 1.65197,2.63467 5.1875,4.78125 3.53553,2.14657 5.41767,2.39705 4.28125,-2.90625 -1.13642,-5.3033 -5.30108,-22.33693 -6.4375,-26.125 -1.13643,-3.78807 -1.88214,-4.29854 -4.28125,-5.6875 -1.3495,-0.78128 -3.05569,-1.80536 -4.5625,-1.875 z m 1.65625,9.0625 3.03125,11.875 -6.1875,0.125 3.15625,-12 z"
       id="path3638" />
    <path
       style="fill:#ff770f;fill-opacity:1;stroke:none"
       d="m 154.9375,244.46875 c -4.79823,0 -8.20606,0.77443 -9.46875,4.5625 -1.26269,3.78807 -0.88135,14.65101 -0.25,24.5 0.63134,9.84898 3.53965,9.34121 5.8125,9.59375 2.27284,0.25253 3.53125,-2.03125 3.53125,-2.03125 0,0 3.02697,2.28251 6.5625,2.15625 3.53554,-0.12627 7.80869,-4.54806 8.1875,-9.09375 0.37881,-4.54568 -5.53125,-10.5 -5.53125,-10.5 -0.12627,0.25254 4.39404,-4.78918 2.5,-10.21875 -1.89403,-5.42957 -6.54553,-8.96875 -11.34375,-8.96875 z m -2.40625,5.4375 c 0,0 6.80996,0.8842 7.0625,6.1875 0.25254,5.3033 -2.38214,5.06123 -4.78125,5.1875 -2.39911,0.12627 -2.03125,-1.78125 -2.03125,-1.78125 l -0.25,-9.59375 z m 1.03125,15.875 c 1.10285,-0.0596 7.4375,2.08217 7.4375,6.34375 0,3.15672 0.4908,4.4375 -4.8125,4.4375 -5.3033,0 -2.78125,-10.75 -2.78125,-10.75 0.0237,-0.0237 0.0827,-0.0273 0.15625,-0.0312 z"
       id="path3643" />
    <path
       style="fill:#ff770f;fill-opacity:1;stroke:none"
       d="m 185.7418,276.67639 c -2.77793,0 -4.92449,-4.16688 -5.05076,-17.29886 -0.12627,-13.13198 1.26269,-14.14213 -3.78808,-14.2684 -5.05076,-0.12627 -4.79822,2.27284 -4.79822,6.43972 0,4.16688 -0.75761,16.79379 2.39911,22.60216 3.15673,5.80838 6.18719,9.21764 10.10153,9.09138 3.91434,-0.12627 8.08122,-3.78808 10.22779,-9.84899 2.14658,-6.06092 3.15673,-10.6066 2.90419,-17.5514 -0.25254,-6.9448 0,-10.48033 -4.41942,-10.48033 -4.41941,0 -5.6821,0.25253 -5.80837,2.39911 -0.12627,2.14657 0.88388,1.51523 1.38896,3.6618 0.50507,2.14657 0.63134,18.18275 -0.37881,20.32932 -1.01015,2.14657 0,4.92449 -2.77792,4.92449 z"
       id="path3651"
       sodipodi:nodetypes="csssssssssssz" />
    <path
       style="fill:#ff770f;fill-opacity:1;stroke:none"
       d="m 208.28125,244.53125 c -0.31419,-0.005 -0.65213,0.0152 -1.0625,0.0625 -3.28299,0.37881 -5.8125,5.70542 -5.8125,19.46875 0,13.76333 0.88595,15.38975 2.90625,17.03125 2.02031,1.6415 6.31377,3.77792 6.1875,1 -0.12627,-2.77792 -0.25,-11.34375 -0.25,-11.34375 0,0 1.37833,3.52696 4.15625,7.0625 2.77792,3.53553 5.1672,5.81377 7.1875,5.6875 2.02031,-0.12627 4.43417,-0.39435 1.65625,-4.6875 -2.77792,-4.29315 -6.4375,-12.25 -6.4375,-12.25 0,0 6.93496,-5.40323 7.1875,-8.8125 0.25254,-3.40926 0.8704,-8.9835 -1.78125,-10.625 -2.65165,-1.6415 -5.41212,-1.75126 -7.9375,-1.625 -2.52538,0.12627 -3.78125,0.50254 -3.78125,0.25 0,0 -0.0194,-1.1825 -2.21875,-1.21875 z m 5.75,6.625 c 2.77792,0 4.4164,3.66466 3.40625,5.9375 -1.01016,2.27284 -7.0625,7.47255 -7.0625,7.09375 -0.12627,-0.50508 -1.16005,-4.05187 -0.78125,-8.21875 0.37881,-4.16688 1.65958,-4.8125 4.4375,-4.8125 z"
       id="path3653" />
    <path
       style="fill:#ff770f;fill-opacity:1;stroke:none"
       d="m 238.90108,271.62563 c 0,0 -1.89404,1.26269 -1.76777,-2.52538 0.12627,-3.78807 2.02031,-4.79822 7.32361,-4.92449 5.3033,-0.12627 5.93464,1.51523 5.17703,4.41941 -0.75762,2.90419 -3.15673,2.77792 -3.15673,2.77792 0,0 -1.01015,5.80838 -3.40926,8.5863 -2.39912,2.77792 -6.31346,4.54569 -9.59645,2.27284 -3.283,-2.27284 -7.32361,-8.58629 -7.07107,-14.39467 0.25254,-5.80838 2.27284,-13.13198 5.42957,-17.42513 3.15673,-4.29315 4.79822,-6.31346 9.34391,-6.31346 4.54569,0 8.9651,2.90419 8.83884,7.32361 -0.12627,4.41942 -0.88389,5.3033 -4.16688,5.3033 -3.283,0 -4.16688,-0.50508 -3.78808,-3.03046 0.37881,-2.52538 -0.3788,-4.54568 -2.52538,-1.89403 -2.14657,2.65165 -4.16688,6.81853 -4.67195,11.49048 -0.50508,4.67196 -1.51523,12.50064 1.01015,12.2481 2.52538,-0.25254 2.90419,-3.91434 3.03046,-3.91434 z"
       id="path3658" />
    <path
       style="fill:#ff770f;fill-opacity:1;stroke:none"
       d="m 262.26086,274.15101 8.20748,0 c 0,0 0.63135,2.14658 -1.01015,4.79823 -1.6415,2.65165 -0.50507,2.90419 -3.91434,2.90419 -3.40926,0 -6.06091,-0.63135 -7.07107,0.3788 -1.01015,1.01016 -4.92449,1.51523 -6.18718,-0.3788 -1.26269,-1.89404 -1.01015,-3.91435 0.63134,-5.42957 1.6415,-1.51523 1.26269,-0.12627 1.26269,-3.40927 0,-3.28299 0.88389,-14.77348 0.88389,-18.94036 0,-4.16688 -0.88389,-9.21764 6.18718,-9.47018 7.07107,-0.25254 12.2481,0.37881 12.2481,0.37881 0,0 -0.50507,1.01015 -2.0203,3.53553 -1.51523,2.52538 -0.12627,3.15673 -2.90419,3.40927 -2.77792,0.25253 -5.42957,0.3788 -5.42957,0.3788 l -0.88388,7.82869 7.70241,0.3788 c 0,0 0.37881,3.03046 -0.63135,3.91434 -1.01015,0.88389 -7.44987,1.6415 -7.44987,1.6415 l 0.37881,8.08122 z"
       id="path3660" />
    <path
       style="fill:#ff770f;fill-opacity:1;stroke:none"
       d="m 281.3125,244.46875 c -1.26269,0 -1.73984,0.38214 -2.75,2.78125 -1.01015,2.39911 -2.65625,11.49524 -2.65625,18.1875 0,6.69226 0.88214,11.87833 3.28125,14.65625 2.39911,2.77792 4.40625,1.875 4.40625,1.875 l 0.5,-12.25 c 0.16462,0.78517 3.23469,4.6873 6.3125,8.59375 3.28299,4.16688 6.94718,4.55743 9.09375,5.0625 2.14657,0.50508 0.39404,-2.03712 -1.5,-4.5625 -1.89403,-2.52538 -0.50713,-1.14054 -2.90625,-5.8125 -2.39911,-4.67195 -2.90625,-7.8125 -2.90625,-7.8125 0,0 0.87706,-0.75333 3.78125,-3.53125 2.90418,-2.77791 6.19987,-14.38722 -1.25,-16.28125 -7.44988,-1.89404 -10.875,1 -10.875,1 0,0 -1.26855,-1.90625 -2.53125,-1.90625 z m 6.90625,6.3125 c 1.07142,0 3.9375,2.32589 3.9375,4.46875 0,2.14286 -1.07143,4.09821 -3.75,6.0625 -2.67857,1.96428 -3.95535,2.51339 -4.3125,2.15625 0,0 -0.34821,-5.88393 0.1875,-8.5625 0.53572,-2.67857 2.86607,-4.125 3.9375,-4.125 z"
       id="path3662" />
  </g>
</svg>
