<?xml version="1.0" encoding="UTF-8" standalone="no"?>
<!-- Created with Inkscape (http://www.inkscape.org/) -->

<svg
   xmlns:dc="http://purl.org/dc/elements/1.1/"
   xmlns:cc="http://creativecommons.org/ns#"
   xmlns:rdf="http://www.w3.org/1999/02/22-rdf-syntax-ns#"
   xmlns:svg="http://www.w3.org/2000/svg"
   xmlns="http://www.w3.org/2000/svg"
   xmlns:sodipodi="http://sodipodi.sourceforge.net/DTD/sodipodi-0.dtd"
   xmlns:inkscape="http://www.inkscape.org/namespaces/inkscape"
   width="127.79375mm"
   height="54.504166mm"
   viewBox="0 0 127.79375 54.504166"
   version="1.1"
   id="svg8"
   inkscape:version="0.92.5 (2060ec1f9f, 2020-04-08)"
   sodipodi:docname="yard house.svg">
  <defs
     id="defs2" />
  <sodipodi:namedview
     id="base"
     pagecolor="#ffffff"
     bordercolor="#666666"
     borderopacity="1.0"
     inkscape:pageopacity="0.0"
     inkscape:pageshadow="2"
     inkscape:zoom="0.98994949"
     inkscape:cx="442.71151"
     inkscape:cy="103.75377"
     inkscape:document-units="mm"
     inkscape:current-layer="layer1"
     showgrid="false"
     inkscape:pagecheckerboard="true"
     fit-margin-top="0"
     fit-margin-left="0"
     fit-margin-right="0"
     fit-margin-bottom="0"
     inkscape:window-width="1920"
     inkscape:window-height="1017"
     inkscape:window-x="1912"
     inkscape:window-y="70"
     inkscape:window-maximized="1" />
  <metadata
     id="metadata5">
    <rdf:RDF>
      <cc:Work
         rdf:about="">
        <dc:format>image/svg+xml</dc:format>
        <dc:type
           rdf:resource="http://purl.org/dc/dcmitype/StillImage" />
        <dc:title></dc:title>
      </cc:Work>
    </rdf:RDF>
  </metadata>
  <g
     inkscape:label="Layer 1"
     inkscape:groupmode="layer"
     id="layer1"
     transform="translate(-100.31445,-98.27902)">
    <g
       style="fill:none"
       id="g904"
       transform="matrix(1.1587171,0,0,1.1596631,100.31445,98.27902)">
      <path
         id="path815"
         d="M 55.1445,47 C 85.6,47 110.289,36.4787 110.289,23.5 110.289,10.5213 85.6,0 55.1445,0 24.689,0 0,10.5213 0,23.5 0,36.4787 24.689,47 55.1445,47 Z"
         inkscape:connector-curvature="0"
         style="fill:#020000" />
      <path
         id="path817"
         d="m 105.539,32.234 c 2.718,-2.7381 4.163,-5.6889 4.163,-8.734 0,-3.0451 -1.445,-5.9959 -4.163,-8.734 C 102.819,12.0255 98.8539,9.53057 93.9076,7.42267 84.0171,3.20781 70.3127,0.586644 55.1445,0.586644 39.9763,0.586644 26.2719,3.20781 16.3814,7.42267 11.4351,9.53057 7.46991,12.0255 4.7499,14.766 2.03231,17.5041 0.586644,20.4549 0.586644,23.5 c 0,3.0451 1.445666,5.9959 4.163256,8.734 2.72001,2.7405 6.6852,5.2354 11.6315,7.3433 9.8905,4.2149 23.5949,6.8361 38.7631,6.8361 15.1682,0 28.8726,-2.6212 38.7631,-6.8361 4.9463,-2.1079 8.9114,-4.6028 11.6314,-7.3433 z m 4.75,-8.734 C 110.289,36.4787 85.6,47 55.1445,47 24.689,47 0,36.4787 0,23.5 0,10.5213 24.689,0 55.1445,0 85.6,0 110.289,10.5213 110.289,23.5 Z"
         inkscape:connector-curvature="0"
         style="clip-rule:evenodd;fill:#ffffff;fill-rule:evenodd" />
      <path
         id="path819"
         d="m 55.1452,8.70199 c 25.5732,0 46.3898,6.64581 46.3898,14.79881 0,8.1531 -20.8166,14.7989 -46.3898,14.7989 -25.5733,0 -46.39032,-6.6458 -46.39032,-14.7989 0,-8.153 20.81702,-14.79881 46.39032,-14.79881 z m 0,-1.23324 c 26.2625,0 47.6308,7.19385 47.6308,16.03205 0,8.8382 -21.3683,16.0321 -47.6308,16.0321 -26.2626,0 -47.63107,-7.1939 -47.63107,-16.0321 0,-8.8382 21.36847,-16.03205 47.63107,-16.03205 z"
         inkscape:connector-curvature="0"
         style="clip-rule:evenodd;fill:#a1784c;fill-rule:evenodd" />
      <path
         id="path821"
         d="m 47.4247,2.39695 0.0689,2.46647 c 0,0.06851 0,0.13702 0,0.20554 l 0.0689,0.06851 c 0.069,0 0.1379,0 0.2068,0 0.2068,0 0.4826,-0.06851 0.6204,-0.27405 0.2068,-0.34257 0.2757,-0.75365 0.2068,-1.09621 0,-0.34257 -0.0689,-0.68513 -0.2068,-0.95919 C 48.3208,2.671 48.1829,2.53397 47.9761,2.46546 47.8383,2.39695 47.6315,2.39695 47.4247,2.39695 Z M 46.3218,5.41152 V 5.34301 h 0.1379 c 0.0689,0 0.1378,0 0.2067,-0.06851 0.069,0 0.069,-0.06852 0.069,-0.13703 0,-0.06851 0,-0.20554 0,-0.27405 l -0.069,-2.0554 c 0,-0.13702 0,-0.20554 -0.0689,-0.34256 0,-0.06851 -0.0689,-0.06851 -0.1378,-0.06851 -0.069,0 -0.1379,-0.06852 -0.2068,-0.06852 h -0.069 V 2.25992 l 1.4476,-0.06851 c 0.3446,0 0.6203,0 0.965,0.13702 0.2757,0.13703 0.4825,0.27405 0.6893,0.54811 0.1379,0.27405 0.2757,0.5481 0.2757,0.82215 0,0.20554 0,0.41108 -0.0689,0.61662 -0.0689,0.20554 -0.1379,0.34257 -0.2757,0.47959 -0.1379,0.13703 -0.2068,0.20554 -0.4136,0.34257 -0.1379,0.06851 -0.3447,0.13703 -0.5515,0.20554 -0.1378,0 -0.2757,0.06851 -0.4135,0.06851 z M 44.1849,2.60249 c -0.2757,0 -0.5514,0.20553 -0.6203,0.47959 -0.1379,0.34256 -0.1379,0.68513 -0.1379,1.02769 0,0.41108 0.1379,0.82216 0.3447,1.16473 0.1378,0.13702 0.3446,0.27405 0.5514,0.20554 0.1379,0 0.2757,-0.06852 0.4136,-0.13703 C 44.8743,5.20598 45.0121,5.06896 45.0121,4.86342 45.081,4.58937 45.081,4.31531 45.081,4.04126 45.081,3.69869 45.0121,3.42464 44.8742,3.08208 44.8053,2.94505 44.6675,2.80802 44.5296,2.671 c 0,-0.06852 -0.2068,-0.13703 -0.3447,-0.06851 z m 0,-0.20554 c 0.8272,-0.13703 1.6544,0.41107 1.7922,1.30174 0,0.06852 0,0.13703 0,0.20554 0,0.41108 -0.0689,0.75365 -0.2757,1.09621 C 45.4257,5.41152 44.9432,5.68557 44.3917,5.68557 43.9092,5.75409 43.3578,5.54855 43.0131,5.20598 42.7374,4.93193 42.5995,4.52085 42.5995,4.17829 42.5306,3.76721 42.6685,3.28762 43.0131,3.01356 43.2888,2.60249 43.7024,2.39695 44.1849,2.39695 Z m -3.7911,0.5481 c -0.2758,0 -0.5515,0.20554 -0.6204,0.47959 -0.1379,0.34257 -0.1379,0.68513 -0.0689,1.0277 0,0.41108 0.1378,0.82216 0.4135,1.16472 0.1379,0.13703 0.3447,0.27405 0.5515,0.20554 0.1378,0 0.2757,-0.06851 0.4136,-0.13703 0.1378,-0.13702 0.2068,-0.27405 0.2757,-0.47959 0.0689,-0.27405 0.0689,-0.5481 0.0689,-0.82215 0,-0.34257 -0.0689,-0.61662 -0.2068,-0.95919 C 41.152,3.28762 41.0141,3.15059 40.8763,3.01356 40.7384,2.94505 40.6006,2.94505 40.3938,2.94505 Z m 0,-0.13703 c 0.8271,-0.13702 1.6543,0.41108 1.7922,1.23324 0,0.06851 0,0.13703 0,0.20554 0.0689,0.41108 -0.069,0.75364 -0.2758,1.09621 C 41.6345,5.75409 41.152,6.02814 40.6695,6.02814 40.187,6.09665 39.6355,5.95963 39.2909,5.54855 39.0152,5.2745 38.8773,4.86342 38.8084,4.52085 38.7394,4.10977 38.8773,3.63018 39.153,3.28762 c 0.3447,-0.27406 0.7582,-0.4796 1.2408,-0.4796 z m -3.5155,0.61662 0.1379,1.30175 h 0.1378 c 0.1379,0 0.2068,-0.06851 0.3447,-0.06851 0.0689,-0.06851 0.1378,-0.13703 0.2068,-0.20554 0.0689,-0.13703 0.0689,-0.27405 0.0689,-0.41108 h 0.0689 l 0.2068,1.50729 h -0.0689 c 0,-0.20554 -0.1379,-0.41108 -0.3447,-0.54811 C 37.4987,4.86342 37.2919,4.86342 37.154,4.86342 H 37.0851 L 37.223,5.8226 c 0,0.06851 0,0.20554 0.0689,0.27405 0,0.06852 0.0689,0.06852 0.1378,0.06852 0.069,0 0.1379,0 0.2068,0 h 0.069 v 0.06851 l -1.6544,0.20554 h 0.069 c 0.0689,0 0.1378,0 0.2068,-0.06851 0.0689,0 0.1378,-0.06852 0.1378,-0.13703 0,-0.06851 0,-0.20554 0,-0.27405 L 36.189,3.90423 c 0,-0.13702 0,-0.20554 -0.0689,-0.34256 0,-0.06851 -0.069,-0.06851 -0.1379,-0.06851 -0.0689,0 -0.1379,0 -0.2068,0 H 35.7065 V 3.42464 l 2.6193,-0.34256 0.1379,0.89067 h -0.0689 c 0,-0.13703 -0.1379,-0.34257 -0.2068,-0.47959 -0.1379,-0.06852 -0.2757,-0.13703 -0.4136,-0.13703 -0.2068,0 -0.3447,0 -0.5514,0 z M 34.0521,3.69869 34.19,4.52085 H 34.1211 C 34.0521,4.38383 33.9832,4.2468 33.9143,4.10977 33.8454,4.04126 33.7075,3.97275 33.6386,3.97275 c -0.069,0 -0.2068,0 -0.3447,0 l -0.2757,0.06851 0.4136,2.39796 c 0,0.06851 0.0689,0.20554 0.0689,0.27405 0,0.06851 0.0689,0.06851 0.1379,0.06851 0.0689,0 0.1378,0 0.2068,0 h 0.0689 V 6.91881 L 32.3289,7.19286 V 7.12435 h 0.0689 c 0.0689,0 0.1379,-0.06851 0.2068,-0.06851 0.0689,0 0.0689,-0.06852 0.0689,-0.13703 0,-0.06851 0,-0.20554 0,-0.27405 L 32.26,4.17829 32.0532,4.2468 c -0.1379,0 -0.3447,0.06851 -0.4136,0.20554 -0.1379,0.13703 -0.2068,0.34256 -0.1379,0.5481 H 31.4328 L 31.226,4.17829 Z M 30.261,6.50773 29.5717,5.54855 29.2959,6.71327 Z M 30.3988,6.64476 29.2959,6.8503 29.227,7.19286 c 0,0.06852 0,0.20554 0,0.27406 0,0.06851 0.0689,0.13702 0.1379,0.13702 0.0689,0 0.2068,0 0.3446,0 V 7.67245 L 28.6756,7.87799 V 7.80948 c 0.0689,0 0.2068,-0.06851 0.2757,-0.20554 0.0689,-0.13702 0.1378,-0.34256 0.1378,-0.47959 l 0.6204,-2.67201 h 0.069 l 1.5854,2.32944 c 0.0689,0.13703 0.2067,0.27406 0.3446,0.41108 0.0689,0.06852 0.1379,0.06852 0.2068,0.06852 V 7.32989 L 30.3988,7.60394 V 7.53543 h 0.069 c 0.0689,0 0.2068,-0.06851 0.2757,-0.06851 0,0 0.0689,-0.06852 0,-0.13703 V 7.26138 L 30.6746,7.12435 Z m -4.3426,-1.16472 0.3447,1.23323 h 0.0689 c 0.1378,0 0.2757,-0.13702 0.3446,-0.27405 0.069,-0.20554 0.069,-0.41108 0,-0.61662 h 0.069 L 27.297,7.3984 H 27.228 C 27.1591,7.26138 27.0902,7.12435 27.0212,6.98732 26.9523,6.91881 26.8834,6.8503 26.7455,6.78178 c -0.1379,0 -0.2068,0 -0.3446,0 l 0.2067,0.89067 c 0,0.13703 0.069,0.20554 0.069,0.34257 0,0.06851 0.0689,0.06851 0.0689,0.06851 0.0689,0 0.1379,0 0.2068,0 l 0.2068,-0.06851 c 0.2757,-0.06851 0.4825,-0.20554 0.6204,-0.34257 0.1378,-0.20553 0.2068,-0.47959 0.2068,-0.68513 h 0.0689 l 0.0689,1.0277 -2.6883,0.68513 V 8.63164 h 0.069 c 0.0689,0 0.1378,-0.06852 0.2068,-0.06852 0.0689,-0.06851 0.0689,-0.06851 0.0689,-0.13702 0,-0.06851 0,-0.20554 -0.0689,-0.27405 L 25.4358,6.02814 c 0,-0.06851 -0.0689,-0.13703 -0.0689,-0.27405 0,-0.06851 -0.0689,-0.06852 -0.1379,-0.06852 -0.0689,0 -0.1378,0 -0.2757,0 H 24.8844 V 5.61706 l 2.5504,-0.61662 0.2068,0.89067 H 27.5727 C 27.5037,5.75409 27.3659,5.54855 27.228,5.48004 27.0902,5.41152 26.9523,5.34301 26.8144,5.34301 c -0.1378,0 -0.3446,0 -0.4825,0.06851 z m -3.4465,0.89067 0.3446,1.30174 h 0.1379 C 23.23,7.60394 23.4368,7.60394 23.5747,7.46692 23.6436,7.3984 23.7126,7.32989 23.7815,7.19286 c 0,-0.13702 0,-0.27405 -0.0689,-0.41108 -0.069,-0.20553 -0.1379,-0.34256 -0.3447,-0.47959 -0.2068,-0.06851 -0.4136,-0.06851 -0.5514,0 z m 0.4136,1.50728 0.2067,0.82216 c 0,0.13703 0.069,0.20554 0.1379,0.34257 0.0689,0.06851 0.0689,0.06851 0.1379,0.06851 0.1378,0 0.2068,0 0.3446,-0.06851 V 9.11123 L 22.265,9.52231 V 9.4538 c 0.069,0 0.2068,-0.06852 0.2757,-0.13703 0.069,0 0.069,-0.06851 0.069,-0.13703 0,-0.13702 0,-0.20554 -0.069,-0.34256 L 21.9893,6.8503 c 0,-0.13703 -0.0689,-0.20554 -0.1379,-0.34257 -0.0689,-0.06851 -0.0689,-0.06851 -0.1378,-0.06851 -0.1379,0 -0.2068,0 -0.3447,0.06851 L 21.3,6.43922 22.7475,6.02814 c 0.2758,-0.06851 0.5515,-0.13703 0.8272,-0.13703 0.2068,0 0.3447,0.06852 0.4825,0.13703 0.1379,0.13703 0.2757,0.27405 0.2757,0.41108 0.069,0.20554 0,0.41108 -0.0689,0.61662 -0.0689,0.13702 -0.2068,0.20554 -0.4136,0.34256 l 1.034,0.82216 c 0.0689,0.06851 0.2068,0.13703 0.2757,0.20554 0.0689,0 0.1379,0.06851 0.2068,0 v 0.06851 l -0.965,0.27405 -1.3786,-1.09621 z m -2.2058,-1.09621 0.3446,1.0277 H 21.0932 C 20.9553,7.60394 20.6796,7.3984 20.4039,7.26138 c -0.2068,-0.06852 -0.4825,-0.06852 -0.7582,0 -0.2068,0.06851 -0.4136,0.20554 -0.4826,0.34256 -0.1378,0.20554 -0.1378,0.41108 -0.1378,0.61662 0,0.27405 0.0689,0.47959 0.1378,0.75364 0.069,0.27406 0.2068,0.4796 0.3447,0.75365 0.1379,0.20554 0.2757,0.27405 0.4825,0.34255 0.2068,0.0685 0.3447,0.0685 0.5515,0 0.0689,0 0.1378,-0.0685 0.2067,-0.0685 0.069,-0.06851 0.1379,-0.06851 0.2068,-0.13703 L 20.7485,9.24826 c 0,-0.06852 -0.0689,-0.13703 -0.0689,-0.20554 0,-0.06852 -0.0689,-0.06852 -0.0689,-0.06852 -0.0689,0 -0.1379,0 -0.2068,0 H 20.335 V 8.90569 L 21.7825,8.4261 v 0.06851 c -0.0689,0 -0.1379,0.06852 -0.2068,0.13703 -0.0689,0.06851 -0.0689,0.06851 -0.0689,0.13702 0,0.06852 0,0.13703 0.0689,0.20554 l 0.2068,0.61662 c -0.1379,0.13703 -0.3446,0.27405 -0.5514,0.41108 -0.2068,0.137 -0.4136,0.2055 -0.6204,0.2741 -0.2068,0.0685 -0.4825,0.137 -0.7583,0.137 -0.2067,0 -0.4135,-0.0685 -0.6203,-0.137 C 19.0253,10.2074 18.8874,10.0704 18.7496,9.93339 18.5428,9.72785 18.4738,9.52231 18.336,9.31677 18.1981,8.90569 18.1981,8.4261 18.4738,8.01502 c 0.2068,-0.41108 0.6204,-0.75364 1.034,-0.82216 0.1379,-0.06851 0.2757,-0.06851 0.4136,-0.06851 0.1378,0 0.2068,0 0.3446,0 0.069,0 0.2068,0 0.2758,0 0.0689,0 0.0689,-0.06851 0.0689,-0.06851 0,-0.06852 0.0689,-0.13703 0.0689,-0.20554 z"
         inkscape:connector-curvature="0"
         style="clip-rule:evenodd;fill:#ffffff;fill-rule:evenodd" />
      <path
         id="path823"
         d="m 91.8849,8.906 0.5514,1.7128 c 0.069,0.2056 0.1379,0.3426 0.2757,0.4796 0.069,0.0685 0.1379,0.137 0.2068,0.137 v 0.0686 l -1.5854,-0.5481 v -0.0686 c 0.069,0 0.1379,0 0.2068,0 0.0689,0 0.069,0 0.069,-0.0685 0,-0.137 -1e-4,-0.274 -0.069,-0.4111 L 91.1956,9.11154 91.0577,9.18005 90.782,10.0022 c -0.0689,0.0685 -0.0689,0.2055 -0.0689,0.3426 0,0.0685 0,0.0685 0.0689,0.137 0.0689,0.0685 0.1379,0.137 0.2068,0.137 v 0.0685 l -1.5165,-0.5481 v -0.0685 h 0.0689 c 0.069,0 0.1379,0.0685 0.2068,0 0.069,0 0.069,-0.0685 0.1379,-0.0685 0.0689,-0.0685 0.0689,-0.20553 0.1379,-0.27404 L 90.7131,7.80979 C 90.782,7.74128 90.782,7.60425 90.782,7.53574 c 0,-0.06852 0,-0.06852 -0.0689,-0.13703 C 90.6441,7.3302 90.5752,7.3302 90.5063,7.26168 L 90.4373,7.19317 V 7.12466 l 1.5165,0.5481 v 0.06851 c -0.0689,0 -0.1378,-0.06851 -0.2757,-0.06851 -0.0689,0 -0.069,0 -0.1379,0.06851 -0.0689,0.06852 -0.0689,0.13703 -0.1378,0.27406 l -0.3447,0.95918 1.4476,-0.47959 c 0.2067,-0.06851 0.3446,-0.13703 0.3446,-0.20554 0,-0.06851 0,-0.13703 -0.0689,-0.13703 C 92.712,8.08384 92.6431,8.08384 92.5742,8.01533 V 7.94682 l 1.1718,0.41107 v 0.06852 c -0.0689,0 -0.2068,-0.06852 -0.2757,0 -0.2068,0.06851 -0.3447,0.06851 -0.5515,0.13702 z m -1.8611,-1.98688 -0.3447,1.0277 h -0.0689 c 0,-0.27406 -0.069,-0.54811 -0.2068,-0.75365 -0.1379,-0.20554 -0.3447,-0.34256 -0.5515,-0.41108 -0.2068,-0.06851 -0.4136,-0.06851 -0.5514,0 -0.2068,0.06852 -0.3447,0.13703 -0.4825,0.34257 -0.1379,0.20554 -0.2758,0.47959 -0.3447,0.68513 -0.0689,0.27405 -0.1378,0.47959 -0.1378,0.75364 0,0.20554 0.0689,0.41108 0.1378,0.61662 0.1379,0.13703 0.2757,0.27405 0.4825,0.34257 0.2068,0.06851 0.3447,0.06851 0.5515,0.06851 0.2068,-0.06851 0.4136,-0.13703 0.6203,-0.27405 l -0.0689,0.27405 c -0.2068,0.13703 -0.4136,0.20554 -0.6204,0.20554 -0.2067,0 -0.4825,0 -0.6893,-0.06851 C 87.4733,9.65964 87.1976,9.4541 86.9219,9.24856 86.7151,9.04302 86.5772,8.76897 86.5083,8.49492 86.3015,7.60425 86.9219,6.71358 87.818,6.50804 c 0.2757,-0.06851 0.6203,-0.06851 0.8961,0 0.2068,0.06851 0.4136,0.20554 0.6203,0.34256 0.069,0.06852 0.1379,0.13703 0.2068,0.13703 0.069,0 0.069,0 0.1379,0 C 89.748,6.91912 89.748,6.91912 89.817,6.8506 Z M 84.9918,5.61737 C 84.7161,5.54886 84.4404,5.68588 84.2336,5.89142 84.0268,6.16547 83.8889,6.50804 83.82,6.8506 c -0.1379,0.41108 -0.1379,0.82216 0,1.23324 0.0689,0.20554 0.2757,0.34257 0.4825,0.41108 0.1379,0.06851 0.2757,0 0.4136,0 0.2068,-0.06851 0.3446,-0.20554 0.4136,-0.41108 0.1378,-0.27405 0.2757,-0.5481 0.3446,-0.82216 0.069,-0.27405 0.1379,-0.61661 0.1379,-0.95918 0,-0.20554 -0.0689,-0.34257 -0.2068,-0.47959 C 85.2675,5.7544 85.1297,5.68588 84.9918,5.61737 Z m 0,-0.13703 c 0.8272,0.13703 1.4476,0.95919 1.3097,1.78134 0,0.06852 0,0.13703 -0.0689,0.20554 -0.069,0.34257 -0.2758,0.68513 -0.6204,0.95919 -0.4136,0.34256 -0.965,0.41108 -1.4476,0.27405 C 83.6821,8.63195 83.2686,8.28938 82.9928,7.80979 82.855,7.46722 82.786,7.05614 82.9239,6.64507 82.9928,6.23399 83.2686,5.82291 83.6821,5.61737 84.0957,5.41183 84.5782,5.34332 84.9918,5.48034 Z M 80.9249,4.7267 80.6492,6.09696 h 0.1379 c 0.1378,0.06851 0.3446,0.06851 0.4825,0.06851 0.1378,0 0.2068,-0.06851 0.2757,-0.13702 C 81.6142,5.89142 81.6831,5.82291 81.7521,5.68588 81.821,5.48034 81.821,5.2748 81.6831,5.13778 81.5453,5.00075 81.4074,4.86372 81.2006,4.86372 Z m -0.3446,1.50729 -0.2068,0.89067 c 0,0.06851 -0.069,0.20554 -0.069,0.34256 0,0.06852 0.069,0.06852 0.069,0.13703 0.0689,0.06851 0.2068,0.06851 0.2757,0.06851 V 7.74127 L 79.0638,7.39871 V 7.3302 c 0.0689,0 0.2068,0.06851 0.3446,0 0.069,0 0.069,-0.06852 0.1379,-0.06852 0.0689,-0.06851 0.0689,-0.20554 0.0689,-0.34256 l 0.4136,-1.98688 c 0,-0.06852 0.0689,-0.20554 0.0689,-0.34257 0,-0.06851 -0.0689,-0.06851 -0.0689,-0.13702 C 79.9599,4.38413 79.822,4.38413 79.7531,4.38413 V 4.31562 l 1.4475,0.34257 c 0.2758,0.06851 0.5515,0.13702 0.8272,0.27405 0.1379,0.06851 0.2757,0.20554 0.3447,0.34256 0.0689,0.13703 0.0689,0.34257 0.0689,0.54811 -0.0689,0.20554 -0.2068,0.41108 -0.3447,0.47959 -0.1378,0.06851 -0.3446,0.13703 -0.4825,0.13703 l 0.5515,1.23323 c 0.0689,0.13703 0.0689,0.20554 0.1378,0.34257 0.069,0.06851 0.1379,0.06851 0.2068,0.13702 V 8.22087 L 81.5453,8.01533 80.856,6.37101 Z M 78.0988,3.90454 77.9609,5.00075 H 77.892 c 0,-0.27405 -0.1379,-0.47959 -0.2758,-0.68513 -0.1378,-0.13703 -0.3446,-0.27405 -0.6203,-0.34257 -0.2068,0 -0.4136,0 -0.5515,0.06852 -0.2068,0.06851 -0.3446,0.20554 -0.4136,0.41108 -0.1378,0.20554 -0.2757,0.41107 -0.2757,0.68513 -0.0689,0.27405 -0.0689,0.5481 0,0.75364 0,0.20554 0.1379,0.41108 0.2757,0.54811 0.1379,0.13702 0.3447,0.27405 0.5515,0.27405 0.2068,0 0.4136,0 0.5514,-0.06851 0.2068,-0.06852 0.4136,-0.20554 0.6204,-0.34257 L 77.6852,6.57655 C 77.3405,6.85061 76.858,6.98763 76.3755,6.91912 76.0998,6.85061 75.7551,6.78209 75.5483,6.57655 75.3415,6.43953 75.1347,6.16547 75.0658,5.89142 74.9969,5.61737 74.9279,5.34332 74.9969,5.06926 75.0658,4.45265 75.5483,3.97305 76.0998,3.76752 76.3755,3.63049 76.6512,3.63049 76.9959,3.699 c 0.2068,0.06852 0.4825,0.13703 0.6893,0.27405 0.0689,0.06852 0.1378,0.06852 0.2757,0.13703 0.0689,0 0.0689,0 0.1379,0 0.0689,-0.06851 0.0689,-0.06851 0.0689,-0.13703 z m -3.7223,2.6035 V 6.57655 L 72.7222,6.37101 V 6.3025 h 0.0689 c 0.0689,0 0.1379,0 0.2068,0 0.0689,0 0.0689,-0.06851 0.1379,-0.06851 0.0689,-0.06852 0.0689,-0.20554 0.0689,-0.27406 l 0.2757,-2.05539 c 0,-0.06851 0,-0.20554 0,-0.34256 0,-0.06852 -0.0689,-0.06852 -0.0689,-0.13703 C 73.3425,3.35644 73.2736,3.35644 73.2047,3.35644 H 73.0668 V 3.21941 l 1.6544,0.20554 v 0.06851 h -0.1379 c -0.0689,0 -0.1379,0 -0.2068,0 -0.0689,0 -0.0689,0.06852 -0.1379,0.06852 -0.0689,0.06851 -0.0689,0.20554 -0.0689,0.27405 L 73.894,5.89142 c 0,0.13703 0,0.20554 0,0.34257 0,0.06851 0.0689,0.06851 0.0689,0.13702 0.069,0.06852 0.1379,0.06852 0.2068,0.06852 z m -1.7922,-3.49417 -0.0689,1.0277 h -0.069 c 0,-0.27405 -0.0689,-0.47959 -0.2757,-0.68513 -0.1378,-0.13703 -0.3446,-0.27406 -0.5514,-0.34257 -0.1379,0 -0.2757,0 -0.4136,0.06851 -0.0689,0.06852 -0.1379,0.13703 -0.1379,0.27406 0,0.06851 0,0.13702 0,0.20554 0.069,0.06851 0.1379,0.20554 0.2068,0.20554 0.1379,0.13702 0.2757,0.20553 0.4825,0.34256 0.2758,0.13703 0.4826,0.34257 0.6893,0.61662 0.1379,0.13702 0.1379,0.34256 0.1379,0.5481 0,0.27406 -0.1379,0.4796 -0.3446,0.61662 -0.2068,0.13703 -0.5515,0.27405 -0.8272,0.20554 -0.0689,0 -0.2068,0 -0.2757,-0.06851 C 70.9989,5.95993 70.93,5.95993 70.7921,5.89142 c -0.0689,0 -0.1378,-0.06851 -0.2068,-0.06851 -0.0689,0 -0.0689,0 -0.1378,0 -0.069,0 -0.069,0.06851 -0.1379,0.13702 h -0.0689 l 0.1378,-1.16472 h 0.069 c 0,0.27405 0.1378,0.54811 0.3446,0.82216 0.1379,0.20554 0.3447,0.27405 0.6204,0.34256 0.1378,0 0.2757,0 0.4136,-0.06851 C 72.0329,5.7544 72.0329,5.54886 71.9639,5.34332 71.895,5.2748 71.895,5.20629 71.8261,5.13778 71.6882,5.00075 71.5503,4.93224 71.4125,4.86372 71.2057,4.7267 70.9989,4.58967 70.861,4.45265 70.7232,4.38413 70.6543,4.24711 70.5853,4.11008 70.5164,3.97305 70.5164,3.83603 70.5164,3.699 c 0,-0.27405 0.1379,-0.47959 0.3446,-0.61662 0.2068,-0.13702 0.4826,-0.20554 0.7583,-0.20554 0.0689,0 0.2068,0 0.2757,0.06852 0.0689,0 0.2068,0.06851 0.2757,0.13702 0.069,0.06852 0.1379,0.06852 0.2068,0.06852 0.0689,0 0.0689,0 0.0689,0 0,-0.06852 0,-0.13703 0.1379,-0.13703 z m -2.7572,-0.27405 -0.0689,1.0277 h -0.069 c 0,-0.27406 -0.1378,-0.4796 -0.2757,-0.68514 -0.1379,-0.13702 -0.3447,-0.27405 -0.5514,-0.27405 -0.1379,0 -0.2758,0 -0.4136,0.06851 -0.069,0.06852 -0.1379,0.13703 -0.1379,0.27406 0,0.06851 0,0.13702 0,0.20554 0.0689,0.06851 0.1379,0.13702 0.2068,0.20554 0.1379,0.13702 0.3447,0.20554 0.4825,0.34256 0.2757,0.13703 0.4825,0.34257 0.6893,0.54811 0.1379,0.13702 0.1379,0.34256 0.1379,0.5481 0,0.27405 -0.1379,0.47959 -0.3447,0.61662 -0.2068,0.20554 -0.5514,0.27405 -0.8271,0.20554 -0.069,0 -0.2068,0 -0.2758,-0.06851 -0.1378,-0.06852 -0.2067,-0.06852 -0.3446,-0.13703 -0.0689,0 -0.1379,-0.06851 -0.2068,-0.06851 -0.0689,0 -0.0689,0 -0.1379,0 -0.0689,0 -0.0689,0.06851 -0.1378,0.13702 h -0.069 l 0.069,-1.16472 h 0.0689 c 0,0.27405 0.1379,0.5481 0.3447,0.82216 0.1378,0.20554 0.3446,0.27405 0.6203,0.34256 0.1379,0 0.2758,0 0.4136,-0.13702 0.1379,-0.06852 0.1379,-0.20554 0.2068,-0.34257 0,-0.06851 0,-0.13703 -0.0689,-0.20554 C 69.0688,4.93224 69.0688,4.86372 68.9999,4.79521 68.8621,4.65819 68.7242,4.58967 68.5863,4.52116 68.3795,4.38413 68.1727,4.24711 67.966,4.11008 67.8281,4.04157 67.7592,3.90454 67.6902,3.76752 67.6213,3.63049 67.6213,3.49346 67.6213,3.35644 c 0,-0.27406 0.1379,-0.4796 0.3447,-0.61662 0.2067,-0.13703 0.4825,-0.20554 0.7582,-0.20554 0.0689,0 0.2068,0 0.2757,0.06851 0.0689,0 0.2068,0.06852 0.2757,0.13703 0.069,0.06851 0.1379,0.06851 0.2068,0.06851 0.069,0 0.069,0 0.069,0 0.0689,-0.06851 0.0689,-0.13702 0.0689,-0.20554 z m -3.998,1.78134 -0.4136,-1.09621 -0.5514,1.0277 z M 65.898,4.7267 64.7951,4.65819 64.6573,5.00075 c -0.0689,0.06851 -0.0689,0.13703 -0.0689,0.27405 0,0.06852 0,0.13703 0.0689,0.20554 0.0689,0.06852 0.2068,0.06852 0.3446,0.06852 L 63.968,5.48034 V 5.41183 c 0.1378,0 0.2068,-0.06851 0.2757,-0.13703 0.1379,-0.13702 0.2068,-0.27405 0.3447,-0.47959 l 1.3096,-2.39796 0.8961,2.67201 c 0.069,0.20554 0.1379,0.34257 0.2068,0.4796 0.069,0.06851 0.1379,0.06851 0.2068,0.06851 V 5.68588 L 65.6912,5.54886 h 0.069 c 0.0689,0 0.2068,0 0.2757,0 0.0689,-0.06852 0.0689,-0.06852 0.0689,-0.13703 V 5.34332 c 0,0 0,-0.06852 -0.0689,-0.20554 z M 63.7612,4.31562 63.6233,5.41183 60.7972,5.34332 V 5.2748 h 0.1378 c 0.069,0 0.1379,0 0.2068,-0.06851 0.069,0 0.069,-0.06851 0.069,-0.13703 0.0689,-0.06851 0.0689,-0.13702 0.0689,-0.27405 l 0.0689,-2.05539 c 0,-0.13703 0,-0.20554 0,-0.34257 0,-0.06851 -0.0689,-0.06851 -0.0689,-0.13702 C 61.2108,2.19171 61.1418,2.19171 61.0729,2.19171 H 60.935 l 1.6544,0.06852 v 0.06851 h -0.1379 c -0.0689,0 -0.1379,0 -0.2068,0.06851 -0.0689,0 -0.0689,0.06852 -0.0689,0.13703 0,0.06851 -0.0689,0.20554 0,0.27405 l -0.0689,1.98688 c 0,0.13703 0,0.20554 0,0.34257 0,0.06851 0.0689,0.06851 0.1378,0.06851 0.0689,0 0.2068,0 0.2757,0 h 0.2758 c 0.1378,0 0.2757,0 0.4135,-0.06851 0.069,-0.06852 0.1379,-0.13703 0.2758,-0.27406 0.1378,-0.20553 0.2068,-0.34256 0.2757,-0.5481 z M 60.5215,2.05469 V 3.1509 h -0.069 C 60.3836,2.87684 60.2457,2.67131 60.1079,2.46577 59.9011,2.32874 59.6943,2.26023 59.4875,2.26023 c -0.2068,0 -0.4136,0.06851 -0.5515,0.13702 -0.2067,0.06852 -0.3446,0.20554 -0.4135,0.41108 -0.1379,0.27405 -0.1379,0.47959 -0.1379,0.75365 0,0.27405 0,0.5481 0.0689,0.75364 0.069,0.20554 0.1379,0.41108 0.3447,0.5481 0.1378,0.13703 0.3446,0.20554 0.6204,0.20554 0.2068,0 0.4135,-0.06851 0.5514,-0.13702 0.2068,-0.13703 0.4136,-0.27405 0.5515,-0.41108 V 4.79521 C 60.3836,4.93224 60.1768,5.06926 59.97,5.20629 59.7632,5.2748 59.5564,5.34332 59.2807,5.34332 58.936,5.34332 58.6603,5.2748 58.3846,5.13778 58.1089,5.00075 57.9021,4.79521 57.7642,4.52116 57.6264,4.24711 57.5574,3.97305 57.5574,3.699 c 0,-0.61662 0.3447,-1.16472 0.8961,-1.43877 0.2758,-0.13703 0.5515,-0.20554 0.8272,-0.20554 0.2757,0 0.4825,0.06851 0.6893,0.13702 0.0689,0.06852 0.2068,0.06852 0.2757,0.06852 0.069,0 0.069,0 0.1379,-0.06852 0.0689,-0.06851 0.0689,-0.13702 0.0689,-0.13702 z"
         inkscape:connector-curvature="0"
         style="clip-rule:evenodd;fill:#ffffff;fill-rule:evenodd" />
      <path
         id="path825"
         d="m 53.3521,4.04214 c 0.3807,0 0.6893,-0.30675 0.6893,-0.68513 0,-0.37839 -0.3086,-0.68513 -0.6893,-0.68513 -0.3806,0 -0.6893,0.30674 -0.6893,0.68513 0,0.37838 0.3087,0.68513 0.6893,0.68513 z"
         inkscape:connector-curvature="0"
         style="fill:#ffffff" />
      <path
         id="path827"
         d="m 53.3525,4.11276 c -0.4136,0 -0.7583,-0.34257 -0.7583,-0.75365 0,-0.41108 0.3447,-0.75364 0.7583,-0.75364 0.4136,0 0.7582,0.34256 0.7582,0.75364 0,0.41108 -0.3446,0.75365 -0.7582,0.75365 z m 0,-1.43878 c -0.4136,0 -0.6893,0.34257 -0.6893,0.68513 0,0.41108 0.3446,0.68513 0.6893,0.68513 0.3446,0 0.6893,-0.34256 0.6893,-0.68513 0.0689,-0.34256 -0.2757,-0.68513 -0.6893,-0.68513 z"
         inkscape:connector-curvature="0"
         style="fill:#010101" />
      <path
         id="path829"
         d="m 75.5484,40.9725 0.3446,1.9183 c 0,0.0685 0,0.137 0.069,0.2056 l 0.0689,0.0685 c 0.0689,0 0.0689,0 0.1379,0 0.2067,0 0.3446,-0.1371 0.4135,-0.2741 0.1379,-0.274 0.1379,-0.6166 0.069,-0.8907 -0.069,-0.274 -0.1379,-0.4795 -0.2758,-0.7536 -0.0689,-0.137 -0.2067,-0.2055 -0.3446,-0.274 -0.1379,-0.0686 -0.2757,-0.0686 -0.4825,0 z m -0.4825,2.4664 0.0689,-0.0685 c 0.0689,0 0.1379,0 0.1379,-0.0685 0.0689,0 0.0689,-0.0685 0.0689,-0.137 0,-0.0685 0,-0.1371 0,-0.2056 l -0.2757,-1.5758 c 0,-0.0685 0,-0.137 -0.069,-0.2055 L 74.928,41.1095 c -0.0689,0 -0.1379,0 -0.1379,0 H 74.7212 V 41.041 l 1.1029,-0.2056 c 0.2068,-0.0685 0.4825,-0.0685 0.7582,0 0.2068,0.0685 0.4136,0.2056 0.5515,0.3426 0.1378,0.2055 0.2757,0.4111 0.2757,0.6166 0,0.137 0,0.3426 0,0.4796 0,0.137 -0.0689,0.2741 -0.1379,0.4111 -0.0689,0.137 -0.1378,0.2055 -0.2757,0.274 -0.1378,0.0685 -0.2757,0.1371 -0.4136,0.2056 -0.1378,0.0685 -0.2068,0.0685 -0.3446,0.0685 z m -2.6194,-2.0554 0.1379,1.0277 h 0.0689 c 0.0689,0 0.2068,-0.0685 0.2757,-0.0685 0.0689,-0.0685 0.1379,-0.137 0.1379,-0.2055 0.0689,-0.0685 0.0689,-0.2056 0.0689,-0.3426 h 0.0689 l 0.2068,1.2332 h -0.0689 c 0,-0.2055 -0.1379,-0.3425 -0.2757,-0.411 -0.069,-0.0685 -0.2068,-0.1371 -0.3447,-0.0685 h -0.0689 l 0.1379,0.7536 c 0,0.0685 0,0.137 0.0689,0.2055 l 0.0689,0.0685 c 0.0689,0 0.1379,0 0.1379,0 h 0.0689 v 0.0686 L 71.8261,43.85 v -0.0685 h 0.069 c 0.0689,0 0.1378,0 0.1378,-0.0685 l 0.0689,-0.0685 c 0,-0.0686 0,-0.1371 0,-0.2056 l -0.2067,-1.5758 c 0,-0.0685 0,-0.137 -0.069,-0.2055 l -0.0689,-0.0685 c -0.0689,0 -0.1379,0 -0.1379,0 h -0.0689 v -0.0685 l 2.0679,-0.2741 0.069,0.6851 h -0.069 c 0,-0.137 -0.0689,-0.274 -0.2068,-0.3425 -0.0689,-0.0685 -0.2068,-0.1371 -0.3446,-0.1371 -0.1379,0 -0.2757,0 -0.4136,0 z m -2.4126,0.2741 c -0.2068,0 -0.4136,0.2055 -0.4825,0.4111 -0.0689,0.274 -0.0689,0.5481 0,0.8221 0,0.3426 0.1379,0.6166 0.3447,0.8907 0.1378,0.137 0.2757,0.2055 0.4825,0.137 0.1378,0 0.2068,-0.0685 0.3446,-0.137 0.1379,-0.137 0.2068,-0.2741 0.2068,-0.4111 0.069,-0.2055 0.069,-0.4796 0,-0.6851 0,-0.2741 -0.0689,-0.4796 -0.2068,-0.6852 -0.0689,-0.137 -0.1378,-0.2055 -0.2757,-0.3425 -0.2068,0 -0.3446,-0.0685 -0.4136,0 z m -0.0689,-0.137 c 0.6893,-0.1371 1.3097,0.274 1.4475,0.8906 0,0.0685 0,0.0685 0,0.1371 0.069,0.274 0,0.6166 -0.1378,0.8221 -0.2068,0.3426 -0.5515,0.5481 -0.965,0.6166 -0.4136,0.0685 -0.8272,-0.0685 -1.1029,-0.3425 C 69,43.4389 68.8621,43.1649 68.7932,42.8223 c -0.069,-0.3426 0,-0.6851 0.2757,-0.9592 0.2757,-0.137 0.5514,-0.3425 0.8961,-0.3425 z m -3.998,0.411 1.3786,1.4388 -0.0689,-1.0277 c 0,-0.137 0,-0.2055 -0.0689,-0.274 -0.069,-0.0686 -0.2068,-0.1371 -0.3447,-0.0686 v -0.137 l 0.8272,-0.0685 v 0.0685 c -0.0689,0 -0.1379,0.0685 -0.2068,0.0685 -0.0689,0 -0.0689,0.0685 -0.0689,0.1371 0,0.0685 0,0.137 0,0.274 l 0.2068,2.0554 h -0.1379 l -1.8611,-1.9184 0.1378,1.5758 c 0,0.1371 0.069,0.2056 0.1379,0.2741 0.0689,0.0685 0.1379,0.0685 0.2068,0.0685 h 0.0689 v 0.0685 l -0.8961,0.0685 v -0.0685 c 0.0689,0 0.2068,-0.0685 0.2757,-0.137 0.069,-0.0685 0.069,-0.2055 0.069,-0.2741 l -0.1379,-1.7128 -0.0689,-0.137 c -0.069,-0.0685 -0.069,-0.0685 -0.1379,-0.137 -0.0689,0 -0.1378,0 -0.2068,0 v -0.0686 z m -2.3436,0.2056 c -0.2068,0 -0.4136,0.137 -0.4825,0.4111 -0.069,0.274 -0.1379,0.5481 -0.069,0.8221 0,0.3426 0.069,0.6851 0.2758,0.9592 0.1378,0.137 0.2757,0.2055 0.4825,0.2055 0.1378,0 0.2068,-0.0685 0.3446,-0.137 0.1379,-0.137 0.2068,-0.274 0.2068,-0.4111 0.069,-0.2055 0.069,-0.4796 0.069,-0.6851 0,-0.2741 -0.069,-0.4796 -0.1379,-0.7536 -0.0689,-0.1371 -0.1379,-0.2056 -0.2757,-0.3426 -0.1379,0 -0.2758,-0.0685 -0.4136,-0.0685 z m 0,-0.0685 c 0.6893,-0.1371 1.3097,0.3425 1.3786,1.0277 0,0.0685 0,0.0685 0,0.137 0,0.274 -0.0689,0.6166 -0.2068,0.8221 -0.2068,0.3426 -0.6204,0.5481 -0.965,0.5481 -0.4136,0.0686 -0.8272,-0.0685 -1.034,-0.411 -0.2068,-0.2056 -0.3446,-0.5481 -0.3446,-0.8222 0,-0.3426 0.0689,-0.6851 0.3446,-0.9592 0.1379,-0.2055 0.4825,-0.3425 0.8272,-0.3425 z m -1.3786,2.5349 -1.3097,0.1371 v -0.0685 h 0.0689 c 0.0689,0 0.1379,0 0.1379,-0.0686 l 0.0689,-0.0685 c 0,-0.0685 0,-0.137 0,-0.2055 l -0.0689,-1.6443 c 0,-0.0685 0,-0.137 0,-0.2056 l -0.069,-0.0685 c -0.0689,0 -0.1378,0 -0.1378,0 h -0.0689 v -0.0685 l 1.3096,-0.0685 v 0.0685 h -0.0689 c -0.0689,0 -0.1379,0 -0.1379,0.0685 l -0.0689,0.0685 c 0,0.0686 0,0.1371 0,0.2056 l 0.0689,1.6443 c 0,0.0685 0,0.137 0,0.2055 0,0.0685 0.069,0.0685 0.069,0.0685 0.0689,0 0.1378,0 0.1378,0 z m -1.5854,-2.3294 v 0.6851 h -0.069 c 0,-0.137 -0.0689,-0.2055 -0.1378,-0.3425 -0.069,-0.0685 -0.1379,-0.1371 -0.2068,-0.1371 -0.0689,0 -0.1379,-0.0685 -0.2757,0 h -0.2068 l 0.0689,1.9184 c 0,0.0685 0,0.137 0,0.2055 0,0.0686 0.0689,0.0686 0.0689,0.0686 0.069,0 0.1379,0.0685 0.1379,0 h 0.0689 v 0.0685 l -1.3097,0.0685 v -0.0685 h 0.069 c 0.0689,0 0.1378,0 0.1378,-0.0685 l 0.069,-0.0686 c 0,-0.0685 0,-0.137 0,-0.2055 l -0.069,-1.9184 h -0.2068 c -0.1378,0 -0.2757,0.0686 -0.3446,0.1371 -0.1379,0.137 -0.2068,0.274 -0.2068,0.411 h -0.0689 v -0.6851 z m -2.4815,0 v 0.8222 h -0.069 c -0.0689,-0.2056 -0.1378,-0.4111 -0.3446,-0.4796 -0.1379,-0.1371 -0.3447,-0.2056 -0.4825,-0.1371 -0.1379,0 -0.2758,0.0686 -0.4136,0.1371 -0.1379,0.0685 -0.2068,0.2055 -0.2757,0.3425 -0.069,0.2056 -0.1379,0.4111 -0.1379,0.6166 0,0.2056 0,0.4111 0.0689,0.6167 0.069,0.137 0.1379,0.274 0.2758,0.411 0.1378,0.0686 0.2757,0.1371 0.4825,0.1371 0.1378,0 0.2757,-0.0685 0.4136,-0.1371 0.1378,-0.0685 0.2757,-0.2055 0.4135,-0.3425 v 0.2055 c -0.1378,0.137 -0.2757,0.2056 -0.4135,0.3426 -0.1379,0.0685 -0.3447,0.137 -0.5515,0.137 -0.2757,0 -0.4825,-0.0685 -0.6893,-0.137 -0.2068,-0.0685 -0.3447,-0.2741 -0.4825,-0.4796 -0.1379,-0.2055 -0.2068,-0.4111 -0.2068,-0.6166 0,-0.4796 0.2757,-0.9592 0.6893,-1.1647 0.2068,-0.1371 0.4136,-0.2056 0.6893,-0.2056 0.2068,0 0.3447,0.0685 0.5515,0.137 0.0689,0 0.1378,0.0686 0.2067,0.0686 0.069,0 0.069,0 0.069,-0.0686 0,-0.0685 0.0689,-0.0685 0.0689,-0.137 z m -3.9291,0.2055 v 1.0277 h 0.069 c 0.1378,0 0.2757,-0.0685 0.3446,-0.137 0.0689,-0.137 0.1379,-0.274 0.1379,-0.4111 h 0.0689 v 1.3018 h -0.0689 c 0,-0.137 -0.069,-0.2056 -0.069,-0.3426 0,-0.0685 -0.0689,-0.137 -0.1378,-0.2055 -0.069,-0.0685 -0.2068,-0.0685 -0.2757,-0.0685 v 0.6851 c 0,0.0685 0,0.137 0,0.274 0,0 -10e-5,0.0686 0.0689,0.0686 0.0689,0 0.0689,0.0685 0.1378,0 h 0.1379 c 0.4136,0.0685 0.7582,-0.2056 0.8961,-0.6167 h 0.0689 l -0.1378,0.7537 -2.1369,-0.0685 v -0.0685 h 0.0689 c 0.069,0 0.1379,0 0.2068,0 0.069,0 0.069,-0.0686 0.069,-0.0686 0,-0.0685 0,-0.137 0,-0.2055 v -1.6443 c 0,-0.0685 0,-0.137 0,-0.2055 0,-0.0686 0,-0.0686 -0.069,-0.0686 -0.0689,-0.0685 -0.1378,-0.0685 -0.2068,-0.0685 h -0.0689 v -0.0685 l 2.0679,0.0685 v 0.7537 h -0.0689 c 0,-0.1371 -0.0689,-0.2741 -0.1379,-0.4111 -0.0689,-0.0685 -0.1378,-0.137 -0.2757,-0.2055 -0.1378,0 -0.2757,-0.0686 -0.4136,-0.0686 z m -1.1718,1.5073 -0.1379,0.8907 -2.2057,-0.0685 v -0.0685 h 0.0689 c 0.0689,0 0.1379,0 0.2068,0 0.0689,0 0.0689,-0.0685 0.0689,-0.0685 0,-0.0686 0,-0.1371 0,-0.2056 l 0.0689,-1.6443 c 0,-0.0685 0,-0.137 0,-0.2055 0,-0.0685 -0.0689,-0.0685 -0.0689,-0.0685 -0.0689,0 -0.1378,-0.0686 -0.1378,-0.0686 h -0.069 v -0.0685 l 1.3097,0.0685 v 0.0686 H 52.043 c -0.0689,0 -0.1378,0 -0.2067,0 l -0.069,0.0685 c 0,0.0685 0,0.137 0,0.2055 l -0.0689,1.5758 c 0,0.0685 0,0.137 0,0.2741 0,0.0685 0.0689,0.0685 0.0689,0.0685 0.0689,0 0.1379,0 0.2068,0 h 0.2068 c 0.1379,0 0.2068,0 0.3447,-0.0685 0.0689,-0.0686 0.2067,-0.1371 0.2067,-0.2056 0.069,-0.137 0.1379,-0.274 0.2068,-0.4111 z m -3.7223,-1.6443 -0.0689,1.0277 h 0.0689 c 0.1379,0 0.2758,0 0.3447,-0.137 0.0689,-0.137 0.1379,-0.2741 0.1379,-0.4111 h 0.0689 l -0.0689,1.3018 h -0.069 c 0,-0.1371 0,-0.2056 -0.0689,-0.3426 0,-0.0685 -0.0689,-0.137 -0.1379,-0.2056 -0.0689,-0.0685 -0.2068,-0.0685 -0.2757,-0.0685 l -0.0689,0.6852 c 0,0.0685 0,0.137 0,0.274 0,0 0,0.0685 0.0689,0.0685 0.0689,0 0.0689,0.0685 0.1379,0.0685 h 0.1378 c 0.2068,0 0.4136,0 0.5515,-0.137 0.1378,-0.137 0.2757,-0.274 0.3446,-0.4796 h 0.069 l -0.1379,0.7537 -2.1368,-0.1371 h 0.0689 c 0.0689,0 0.1378,0 0.2068,0 0.0689,0 0.0689,-0.0685 0.0689,-0.0685 0,-0.0685 0,-0.137 0,-0.2055 l 0.0689,-1.6443 c 0,-0.0685 0,-0.137 0,-0.2056 0,-0.0685 0,-0.0685 -0.0689,-0.0685 -0.0689,-0.0685 -0.1378,-0.0685 -0.2068,-0.0685 h -0.0689 v -0.0685 l 2.0679,0.137 -0.0689,0.7537 h -0.069 c 0,-0.1371 -0.0689,-0.2741 -0.1378,-0.4111 -0.0689,-0.0685 -0.1379,-0.137 -0.2757,-0.2055 -0.1379,0 -0.2758,-0.0686 -0.4136,-0.0686 z m -1.3096,-0.2055 v 0.8221 h -0.069 c 0,-0.2055 -0.0689,-0.3425 -0.2068,-0.5481 -0.1378,-0.137 -0.2757,-0.2055 -0.4135,-0.2055 -0.1379,0 -0.2068,0 -0.3447,0.0685 -0.1379,0.0685 -0.1379,0.2055 -0.0689,0.3426 0.0689,0.0685 0.0689,0.137 0.1378,0.2055 0.1379,0.0685 0.2758,0.137 0.4136,0.2055 0.2068,0.1371 0.4136,0.2741 0.5515,0.4111 0.0689,0.137 0.1378,0.2741 0.1378,0.4111 0,0.2055 -0.1378,0.4111 -0.2757,0.4796 -0.2068,0.137 -0.4136,0.2055 -0.6204,0.2055 -0.0689,0 -0.1378,0 -0.2068,-0.0685 -0.0689,0 -0.2068,-0.0685 -0.2757,-0.137 -0.0689,0 -0.0689,-0.0685 -0.1378,-0.0685 -0.069,0 -0.069,0 -0.069,0 -0.0689,0 -0.0689,0.0685 -0.0689,0.137 h -0.0689 l 0.0689,-0.9592 h 0.0689 c 0,0.2056 0.1379,0.4796 0.2757,0.6166 0.1379,0.1371 0.2758,0.2056 0.4826,0.2056 0.1378,0 0.2068,0 0.3446,-0.0685 0.0689,-0.0685 0.1379,-0.1371 0.1379,-0.2741 0,-0.0685 0,-0.137 0,-0.137 0,-0.0685 -0.069,-0.137 -0.1379,-0.137 -0.0689,-0.0686 -0.2068,-0.1371 -0.3446,-0.2056 -0.1379,-0.0685 -0.3447,-0.2055 -0.4826,-0.3425 -0.0689,-0.0686 -0.1378,-0.1371 -0.2067,-0.2741 -0.069,-0.0685 -0.069,-0.2055 -0.069,-0.3426 0,-0.2055 0.069,-0.3425 0.2757,-0.4796 0.1379,-0.137 0.3447,-0.2055 0.5515,-0.137 0.0689,0 0.1378,0 0.2068,0.0685 0.0689,0 0.1378,0.0685 0.2068,0.0685 0.0689,0.0686 0.1378,0.0686 0.1378,0.0686 h 0.069 c -0.069,0.2055 -0.069,0.137 0,0.0685 z M 45.2189,42.0001 45.15,42.6853 h -0.069 c 0,-0.137 -0.0689,-0.2056 -0.0689,-0.3426 -0.0689,-0.0685 -0.1378,-0.137 -0.2068,-0.2055 -0.0689,-0.0685 -0.1378,-0.0685 -0.2068,-0.0685 h -0.2068 l -0.1378,1.9183 c 0,0.0685 0,0.1371 0,0.2056 0,0.0685 0.0689,0.0685 0.0689,0.0685 0.0689,0 0.1379,0.0685 0.1379,0.0685 h 0.0689 v 0.0685 l -1.3097,-0.137 v -0.0685 h 0.1379 c 0.0689,0 0.1378,0 0.2068,0 0.0689,0 0.0689,-0.0685 0.0689,-0.0685 0,-0.0686 0.0689,-0.1371 0.0689,-0.2056 l 0.1379,-1.9184 h -0.2068 c -0.1379,0 -0.2757,0 -0.3446,0.0686 -0.1379,0.0685 -0.2068,0.274 -0.2068,0.411 h -0.069 l 0.069,-0.6851 z m -2.6194,-0.274 -0.0689,0.8222 h -0.0689 c 0,-0.2056 -0.0689,-0.4111 -0.2068,-0.5482 -0.1379,-0.137 -0.2757,-0.2055 -0.4136,-0.2055 -0.1379,0 -0.2068,0 -0.3446,0.0685 -0.069,0.0685 -0.1379,0.137 -0.1379,0.2056 0,0.0685 0,0.0685 0,0.137 0.0689,0.0685 0.0689,0.137 0.1379,0.2055 0.1378,0.0685 0.2757,0.2056 0.3446,0.2741 0.2068,0.137 0.4136,0.274 0.5515,0.4796 0.0689,0.137 0.1378,0.274 0.0689,0.4796 0,0.2055 -0.1379,0.411 -0.2757,0.4796 -0.2068,0.137 -0.4136,0.2055 -0.6204,0.137 -0.0689,0 -0.1379,0 -0.2068,-0.0685 -0.0689,0 -0.1379,-0.0685 -0.2757,-0.1371 -0.069,0 -0.069,-0.0685 -0.1379,-0.0685 -0.0689,0 -0.0689,0 -0.0689,0 -0.0689,0 -0.069,0.0685 -0.069,0.0685 h -0.0689 l 0.0689,-0.9591 h 0.069 c 0,0.2055 0.0689,0.4795 0.2757,0.6166 0.1379,0.137 0.2757,0.2055 0.4825,0.274 0.1379,0 0.2068,0 0.3447,-0.0685 0.0689,-0.0685 0.1378,-0.137 0.1378,-0.274 0,-0.0686 0,-0.1371 0,-0.2056 0,-0.0685 -0.0689,-0.137 -0.1378,-0.137 -0.069,-0.0685 -0.2068,-0.137 -0.3447,-0.2055 -0.1378,-0.0686 -0.3446,-0.2056 -0.4825,-0.3426 -0.0689,-0.0685 -0.1379,-0.2055 -0.2068,-0.2741 -0.0689,-0.0685 -0.0689,-0.2055 -0.0689,-0.3425 0,-0.2056 0.1378,-0.3426 0.2757,-0.4796 0.1379,-0.137 0.3447,-0.2056 0.5514,-0.137 0.069,0 0.1379,0 0.2068,0.0685 0.069,0 0.1379,0.0685 0.2068,0.0685 0.069,0.0685 0.1379,0.0685 0.1379,0.0685 h 0.0689 c 0.1379,0.137 0.2068,0.0685 0.2757,0 z m -3.1708,-0.137 -0.1378,1.0277 h 0.0689 c 0.1379,0 0.2757,0 0.3447,-0.1371 0.0689,-0.137 0.1378,-0.274 0.2068,-0.411 h 0.0689 l -0.1379,1.3017 h -0.0689 c 0,-0.137 0,-0.274 -0.0689,-0.3426 0,-0.0685 -0.069,-0.137 -0.1379,-0.2055 -0.0689,-0.0685 -0.1379,-0.0685 -0.2757,-0.0685 l -0.069,0.6851 c 0,0.0685 0,0.137 0,0.2741 0,0 0,0.0685 0.069,0.0685 0.0689,0 0.0689,0.0685 0.1378,0.0685 h 0.1379 c 0.2068,0.0685 0.4136,0 0.5514,-0.0685 0.1379,-0.137 0.2758,-0.2741 0.3447,-0.4796 h 0.0689 l -0.2068,0.7536 -2.1368,-0.274 V 43.713 h 0.0689 c 0.0689,0 0.1379,0 0.2068,0 0.0689,0 0.0689,-0.0685 0.0689,-0.0685 0,-0.0686 0.069,-0.1371 0.069,-0.2056 l 0.2068,-1.6443 c 0,-0.0685 0,-0.137 0,-0.2055 0,-0.0685 0,-0.0685 -0.069,-0.1371 -0.0689,-0.0685 -0.1378,-0.0685 -0.2068,-0.0685 H 38.4637 V 41.315 l 2.0679,0.2741 -0.0689,0.7536 h -0.0689 c 0,-0.137 -0.069,-0.274 -0.069,-0.4111 -0.0689,-0.0685 -0.1378,-0.137 -0.2757,-0.2055 -0.1378,-0.0685 -0.2757,-0.0685 -0.3446,-0.0685 z M 38.188,41.315 38.0501,42.2057 h -0.0689 c 0,-0.2056 -0.1379,-0.4111 -0.2757,-0.6166 -0.1379,-0.1371 -0.2757,-0.2056 -0.4825,-0.2741 -0.1379,0 -0.3447,0 -0.4826,0.0685 -0.1378,0.0685 -0.2757,0.2056 -0.3446,0.4111 -0.0689,0.2055 -0.1379,0.3426 -0.1379,0.5481 0,0.2056 0,0.4111 0,0.6166 0,0.1371 0.069,0.3426 0.2068,0.4111 0.1379,0.137 0.2757,0.2055 0.4136,0.2055 0.0689,0 0.1379,0 0.2068,0 0.0689,0 0.1379,0 0.2068,0 l 0.0689,-0.4795 c 0,-0.0686 0,-0.1371 0,-0.2056 0,-0.0685 -0.0689,-0.0685 -0.0689,-0.0685 -0.0689,0 -0.0689,-0.0685 -0.1379,-0.0685 h -0.0689 v -0.0685 l 1.1718,0.2055 v 0.0685 c -0.0689,0 -0.1378,0 -0.2068,0 -0.0689,0 -0.0689,0.0685 -0.0689,0.0685 0,0.0686 -0.0689,0.1371 -0.0689,0.1371 l -0.069,0.4796 c -0.1378,0.0685 -0.3446,0.0685 -0.4825,0.0685 -0.2068,0 -0.3446,0 -0.5514,0 -0.2068,0 -0.4136,-0.0685 -0.5515,-0.2056 -0.1378,-0.0685 -0.2757,-0.2055 -0.3446,-0.3425 -0.2068,-0.2741 -0.3447,-0.6166 -0.2757,-0.9592 0.0689,-0.3426 0.2757,-0.6851 0.5514,-0.8907 0.2757,-0.2055 0.6893,-0.274 1.034,-0.2055 0.1378,0 0.2068,0.0685 0.3446,0.0685 0.0689,0.0685 0.1379,0.0685 0.2757,0.137 0.069,0.0685 0.1379,0.0685 0.2068,0.0685 0.069,0 0.069,0 0.069,0 -0.069,0 0,-0.0685 0.0689,-0.0685 z m -4.2048,-0.4796 -0.2068,1.0277 h 0.069 c 0.1378,0 0.2757,0 0.4135,0 0.069,0 0.1379,-0.0685 0.2068,-0.137 0.069,-0.0685 0.1379,-0.2055 0.1379,-0.3426 0.0689,-0.274 -0.0689,-0.5481 -0.2757,-0.6166 -0.069,0 -0.069,0 -0.1379,0 z m -0.2757,1.1647 -0.1379,0.6852 c 0,0.0685 0,0.137 0,0.274 0,0.0685 0.069,0.0685 0.069,0.0685 0.0689,0.0686 0.1378,0.0686 0.2068,0.0686 v 0.0685 l -1.2408,-0.2056 v -0.0685 c 0.0689,0 0.1379,0 0.2068,0 0.0689,0 0.0689,0 0.0689,-0.0685 0.1379,-0.0685 0.1379,-0.137 0.1379,-0.274 l 0.2757,-1.5758 c 0,-0.0686 0,-0.1371 0,-0.2741 0,-0.0685 -0.0689,-0.0685 -0.0689,-0.0685 -0.069,-0.0685 -0.1379,-0.0685 -0.2068,-0.0685 v -0.0685 l 1.1029,0.2055 c 0.2068,0 0.4136,0.0685 0.6204,0.2055 0.1378,0.0685 0.2067,0.1371 0.2757,0.2741 0.0689,0.137 0.0689,0.274 0.0689,0.4111 0,0.137 -0.1379,0.3425 -0.2757,0.411 -0.1379,0.0686 -0.2757,0.0686 -0.3447,0.1371 l 0.4136,0.9592 c 0.0689,0.0685 0.0689,0.137 0.1379,0.2055 0.0689,0.0685 0.0689,0.0685 0.1378,0.0685 v 0.0685 l -0.7582,-0.137 -0.6204,-1.2332 z m -2.2058,-0.0685 -0.2068,-0.8906 -0.5514,0.7536 z m 0.069,0.1371 -0.8962,-0.2056 -0.1378,0.2056 c -0.0689,0.0685 -0.0689,0.137 -0.0689,0.2055 0,0.0685 0,0.137 0.0689,0.137 0.0689,0.0685 0.1379,0.0685 0.2068,0.0685 v 0.0686 l -0.8272,-0.1371 v -0.0685 c 0.0689,0 0.1379,0 0.2068,-0.0685 0.1379,-0.0685 0.2068,-0.2055 0.2757,-0.3426 l 1.2408,-1.7813 0.4825,2.1239 c 0,0.137 0.0689,0.2741 0.1379,0.4111 0.0689,0.0685 0.0689,0.0685 0.1378,0.0685 v 0.0685 L 31.226,42.6168 v -0.0685 h 0.0689 c 0.069,0 0.1379,0 0.2068,0 l 0.069,-0.0686 v -0.0685 c 0,0 0,-0.0685 0,-0.137 z m -1.6544,-0.4796 -0.3446,0.8221 -2.068,-0.5481 v -0.0685 h 0.069 c 0.0689,0 0.1378,0 0.2068,0 0.0689,0 0.0689,0 0.0689,-0.0685 0.0689,-0.0685 0.0689,-0.137 0.0689,-0.2055 l 0.4136,-1.5758 c 0,-0.0686 0.0689,-0.1371 0.0689,-0.2056 0,-0.0685 0,-0.0685 -0.0689,-0.0685 C 28.262,39.6022 28.262,39.6022 28.193,39.6022 h -0.0689 v -0.0685 l 1.3097,0.3425 v -0.0685 h -0.1379 c -0.0689,0 -0.1378,0 -0.2068,0 -0.0689,0 -0.0689,0.0685 -0.0689,0.0685 -0.0689,0.0686 -0.0689,0.1371 -0.0689,0.2056 l -0.3447,1.5073 c 0,0.0685 -0.0689,0.137 -0.0689,0.2055 0,0.0685 0,0.0685 0.0689,0.0685 0.069,0 0.1379,0.0685 0.2068,0.0685 l 0.2068,0.0685 c 0.1379,0 0.2068,0 0.3447,0 0.1378,0 0.2068,-0.0685 0.2757,-0.137 0.1379,-0.137 0.2068,-0.274 0.2757,-0.4111 z m -3.0329,-2.4665 -0.2068,0.8222 h -0.069 c 0,-0.2056 0,-0.4111 -0.1378,-0.5482 -0.0689,-0.137 -0.2068,-0.274 -0.4136,-0.3425 -0.0689,-0.0685 -0.2068,0 -0.3447,0 -0.0689,0.0685 -0.1378,0.137 -0.1378,0.2055 0,0.0685 0,0.0685 0,0.137 0,0.0686 0.0689,0.1371 0.1378,0.2056 0.069,0.137 0.2068,0.2055 0.3447,0.3426 0.2068,0.137 0.3447,0.3425 0.4825,0.5481 0.0689,0.137 0.0689,0.274 0,0.4796 -0.0689,0.2055 -0.2068,0.3425 -0.3446,0.4795 -0.2068,0.1371 -0.4136,0.1371 -0.6204,0.0686 -0.0689,0 -0.1379,-0.0686 -0.2068,-0.0686 -0.0689,-0.0685 -0.1379,-0.0685 -0.2068,-0.137 -0.0689,0 -0.0689,-0.0685 -0.1379,-0.0685 0,0 -0.0689,0 -0.1378,0 -0.069,0 -0.069,0.0685 -0.1379,0.0685 h -0.0689 l 0.2068,-0.8907 h 0.0689 c 0,0.2056 0,0.4796 0.1379,0.6852 0.0689,0.137 0.2757,0.274 0.4136,0.3425 0.1378,0.0686 0.2067,0 0.3446,0 0.1379,-0.0685 0.2068,-0.2055 0.2068,-0.411 0,-0.0686 -0.0689,-0.1371 -0.0689,-0.2056 -0.069,-0.0685 -0.2068,-0.2055 -0.2758,-0.274 -0.1378,-0.1371 -0.2757,-0.2741 -0.4135,-0.4111 -0.069,-0.0685 -0.1379,-0.2055 -0.1379,-0.3426 0,-0.0685 0,-0.2055 0,-0.3425 0.0689,-0.2056 0.2068,-0.3426 0.3447,-0.4111 0.2067,-0.0685 0.4135,-0.137 0.5514,-0.0685 0.0689,0 0.1379,0.0685 0.2068,0.0685 0.0689,0.0685 0.1379,0.0685 0.2068,0.137 0.0689,0.0685 0.0689,0.0685 0.1378,0.0685 h 0.069 c 0.0689,0 0.1378,-0.0685 0.2068,-0.137 z m -2.4815,0.6166 h -0.069 v -0.7536 c 0,-0.0685 0,-0.1371 0,-0.2741 0,-0.0685 0.069,-0.137 0.1379,-0.137 0.1379,-0.0685 0.2757,0 0.3446,0.137 0,0.0685 0,0.137 0,0.2056 0,0.0685 -0.0689,0.137 -0.1378,0.2055 z m -1.7922,-1.5758 -0.6204,1.8499 c 0,0.0685 -0.0689,0.137 -0.0689,0.2055 v 0.0685 c 0.0689,0.0685 0.0689,0.0685 0.1378,0.0685 0.1379,0.0685 0.3447,0.0685 0.4825,-0.0685 0.2758,-0.2055 0.4136,-0.4796 0.4826,-0.7536 0.0689,-0.2741 0.1378,-0.4796 0.0689,-0.7537 0,-0.137 -0.0689,-0.274 -0.2068,-0.411 0,-0.1371 -0.1379,-0.2056 -0.2757,-0.2056 z m -1.6544,1.9184 0.069,-0.0685 c 0.0689,0 0.1378,0 0.1378,0 0.069,0 0.069,0 0.1379,-0.0685 0.0689,-0.0686 0.0689,-0.1371 0.0689,-0.2056 l 0.4825,-1.5758 c 0,-0.0685 0.069,-0.137 0.069,-0.2055 0,-0.0685 0,-0.0685 -0.069,-0.1371 -0.0689,-0.0685 -0.0689,-0.0685 -0.1378,-0.0685 h -0.069 v -0.0685 l 1.034,0.3426 c 0.2068,0.0685 0.4825,0.2055 0.6204,0.3426 0.2068,0.137 0.2757,0.3425 0.3446,0.5481 0.069,0.411 0,0.8221 -0.2757,1.0962 -0.0689,0.137 -0.2068,0.2055 -0.3446,0.274 -0.1379,0.0685 -0.2068,0.137 -0.3447,0.137 -0.1379,0 -0.2757,0 -0.4825,0 -0.1379,0 -0.2068,-0.0685 -0.3447,-0.0685 z m 0.1379,-0.8222 -0.3447,0.8222 -2.0679,-0.6852 v -0.0685 h 0.069 c 0.0689,0 0.1378,0 0.2067,0 0.069,0 0.069,0 0.069,-0.0685 0.0689,-0.0685 0.0689,-0.137 0.0689,-0.2055 l 0.5515,-1.5758 c 0,-0.0685 0.0689,-0.137 0.0689,-0.2056 0,-0.0685 0,-0.0685 -0.0689,-0.0685 -0.069,-0.137 -0.1379,-0.137 -0.1379,-0.137 h -0.0689 v -0.0685 l 1.2407,0.4111 v 0.0685 h -0.0689 c -0.0689,0 -0.1379,0 -0.2068,0 -0.0689,0 -0.0689,0 -0.0689,0.0685 -0.069,0.0685 -0.069,0.137 -0.069,0.2055 l -0.5514,1.5073 c 0,0.0685 -0.0689,0.137 -0.0689,0.2056 0,0.0685 0,0.0685 0.0689,0.0685 0.0689,0.0685 0.1378,0.0685 0.2068,0.0685 l 0.2068,0.0685 c 0.1378,0.0685 0.2068,0.0685 0.3446,0.0685 0.1379,0 0.2068,-0.0685 0.2757,-0.137 0.1379,-0.137 0.2068,-0.2056 0.3447,-0.3426 z m -3.2397,-2.7405 -0.4136,1.0277 0.0689,0.0685 c 0.1379,0.0685 0.2068,0.0685 0.3447,0.137 0.0689,0 0.2067,0 0.2757,-0.0685 0.2068,-0.2055 0.2757,-0.4111 0.2068,-0.6851 -0.069,-0.137 -0.2068,-0.2741 -0.3447,-0.2741 z m -0.4826,1.0962 -0.2757,0.6166 c -0.0689,0.0685 -0.0689,0.1371 -0.0689,0.2741 0,0.0685 0,0.0685 0.0689,0.137 0.069,0.0685 0.1379,0.0685 0.2068,0.137 v 0.0685 L 16.1302,38.369 v -0.0686 c 0.0689,0.0686 0.1379,0.0686 0.2068,0.0686 0.0689,0 0.0689,0 0.1378,-0.0686 0.069,-0.0685 0.069,-0.137 0.1379,-0.2055 l 0.6204,-1.5073 c 0.0689,-0.0685 0.0689,-0.137 0.0689,-0.274 0,-0.0686 0,-0.0686 -0.0689,-0.1371 -0.0689,-0.0685 -0.1379,-0.0685 -0.2068,-0.137 V 35.971 l 1.0339,0.4796 c 0.2068,0.0685 0.4136,0.2055 0.5515,0.3425 0.1379,0.0686 0.2068,0.2056 0.2068,0.3426 0.0689,0.137 0,0.2741 0,0.4111 -0.0689,0.137 -0.2068,0.274 -0.3447,0.3426 -0.1378,0.0685 -0.2757,0.0685 -0.4136,0 l 0.2068,1.0277 c 0,0.0685 0.069,0.137 0.069,0.274 0,0.0685 0.0689,0.0685 0.1378,0.137 v 0.0685 l -0.6893,-0.3425 -0.3446,-1.3703 z m -1.6543,-2.0554 c -0.2068,-0.0685 -0.4825,-0.0685 -0.6204,0.0685 -0.2068,0.2056 -0.3446,0.4111 -0.4825,0.6852 -0.1378,0.274 -0.2068,0.6166 -0.2068,0.9591 0,0.1371 0.1379,0.3426 0.3447,0.3426 0.0689,0.0685 0.2068,0.0685 0.3446,0.0685 0.1379,-0.0685 0.2758,-0.137 0.4136,-0.2055 0.1379,-0.137 0.2757,-0.3426 0.3447,-0.5481 0.1378,-0.2056 0.2068,-0.4796 0.2068,-0.6852 0,-0.137 0,-0.274 -0.069,-0.411 -0.0689,-0.2056 -0.1378,-0.2741 -0.2757,-0.2741 z m 0.0689,-0.137 c 0.6204,0.2055 0.9651,0.9592 0.7583,1.5758 0,0.0685 -0.069,0.0685 -0.069,0.137 -0.1378,0.2741 -0.3446,0.4796 -0.6203,0.6166 -0.3447,0.2056 -0.7583,0.2056 -1.1719,0 -0.3446,-0.137 -0.6203,-0.4796 -0.7582,-0.8221 -0.0689,-0.2741 -0.0689,-0.6166 0.0689,-0.8907 0.1379,-0.3426 0.4136,-0.5481 0.7583,-0.6851 0.3446,-0.1371 0.6893,-0.1371 1.0339,0.0685 z m -1.2407,-0.4796 c -0.0689,0.0685 -0.1379,0 -0.1379,0.0685 -0.0689,0 -0.0689,0 -0.1378,0.0685 l -0.2068,0.2056 -1.7233,1.3017 h -0.0689 l 0.2068,-1.7128 -1.3786,1.0962 h -0.069 l 0.2757,-2.1239 c 0,-0.137 0,-0.2741 0,-0.4111 0,-0.0685 -0.0689,-0.137 -0.1378,-0.137 v -0.0685 l 0.965,0.5481 v 0.0685 c -0.0689,0 -0.1378,-0.0685 -0.1378,-0.0685 -0.069,0 -0.069,0 -0.069,0.0685 -0.0689,0.0685 -0.0689,0.2055 -0.0689,0.3426 l -0.1379,1.3017 0.8272,-0.6166 0.0689,-0.2741 c 0,-0.0685 0,-0.2055 0,-0.3425 0,-0.0685 0,-0.0685 -0.0689,-0.1371 -0.0689,-0.0685 -0.0689,-0.0685 -0.1379,-0.137 v -0.0685 l 1.034,0.5481 v 0.0685 c -0.0689,0 -0.1379,-0.0685 -0.1379,-0.0685 h -0.0689 c 0,0 -0.0689,0 -0.0689,0.0685 0,0.0685 -0.069,0.2056 -0.069,0.2741 l -0.2067,1.2332 0.8961,-0.7536 c 0.0689,-0.0686 0.1378,-0.1371 0.2067,-0.1371 l 0.069,-0.0685 c 0,-0.0685 0,-0.0685 0,-0.137 -0.069,-0.0685 -0.069,-0.137 -0.1379,-0.137 v -0.0685 z"
         inkscape:connector-curvature="0"
         style="clip-rule:evenodd;fill:#ffffff;fill-rule:evenodd" />
      <path
         id="path831"
         d="m 95.3309,35.214 0.4825,0.9592 0.0689,-0.0686 c 0.1379,-0.0685 0.2068,-0.137 0.3447,-0.2055 0.0689,-0.0685 0.0689,-0.137 0.0689,-0.2055 0,-0.1371 0,-0.2056 -0.0689,-0.3426 -0.069,-0.137 -0.1379,-0.2741 -0.3447,-0.3426 -0.1379,-0.0685 -0.3446,0 -0.4136,0.0685 z m 0.5514,1.0962 0.3447,0.6166 c 0,0.0685 0.0689,0.137 0.1378,0.2055 0,0 0.069,0.0686 0.1379,0.0686 0.0689,0 0.1378,-0.0686 0.2068,-0.0686 v 0.0686 l -1.1029,0.5481 v -0.0686 c 0.0689,0 0.1378,-0.0685 0.2068,-0.137 0,0 0.0689,-0.0685 0.0689,-0.137 0,-0.0685 -0.0689,-0.137 -0.0689,-0.2055 l -0.7583,-1.4388 c 0,-0.0685 -0.0689,-0.1371 -0.1378,-0.2056 0,0 -0.0689,-0.0685 -0.1379,0 -0.0689,0 -0.1378,0.0685 -0.2068,0.0685 v -0.0685 l 1.034,-0.5481 c 0.2068,-0.137 0.4136,-0.2055 0.6204,-0.274 0.1378,0 0.2757,0 0.4135,0.0685 0.1379,0.0685 0.2068,0.137 0.2758,0.274 0.0689,0.1371 0.0689,0.3426 0,0.4796 -0.069,0.1371 -0.1379,0.2056 -0.2068,0.3426 l 0.8961,0.4796 c 0.0689,0.0685 0.1378,0.0685 0.2068,0.137 0.0689,0 0.1378,0 0.2068,0 v 0.0685 l -0.6893,0.3426 -1.2408,-0.6166 z m -2.6194,-0.137 0.4136,0.9591 h 0.069 c 0.1378,-0.0685 0.2067,-0.137 0.2757,-0.274 0,-0.137 0,-0.3426 -0.069,-0.4796 h 0.069 l 0.4825,1.1647 h -0.0689 c -0.069,-0.137 -0.1379,-0.2055 -0.2068,-0.274 -0.069,-0.0685 -0.1379,-0.0685 -0.2068,-0.0685 -0.069,0 -0.2068,0 -0.2757,0.0685 l 0.2757,0.6166 c 0,0.0685 0.0689,0.137 0.1378,0.2055 l 0.069,0.0685 c 0.0689,0 0.1378,0 0.1378,0 l 0.1379,-0.0685 c 0.2068,-0.0685 0.3446,-0.2055 0.4825,-0.3425 0.0689,-0.2056 0.1379,-0.3426 0.0689,-0.5481 h 0.069 l 0.2068,0.7536 -1.9301,0.8222 v -0.0686 h 0.0689 c 0.069,0 0.1379,-0.0685 0.1379,-0.0685 0,0 0,-0.0685 0,-0.137 0,-0.0685 -0.0689,-0.137 -0.0689,-0.2055 l -0.6204,-1.5073 c 0,-0.0685 -0.0689,-0.1371 -0.0689,-0.2056 l -0.069,-0.0685 c -0.0689,0 -0.1378,0 -0.2068,0 h -0.0689 v -0.0685 l 1.9301,-0.8222 0.2757,0.6852 h -0.0689 c -0.069,-0.137 -0.1379,-0.2056 -0.2758,-0.3426 -0.0689,-0.0685 -0.2068,-0.0685 -0.3446,-0.0685 -0.1379,0 -0.2757,0.0685 -0.3447,0.137 z m -2.2747,0.8906 0.3447,0.9592 h 0.0689 c 0.1379,-0.0685 0.2068,-0.137 0.2757,-0.274 0,-0.1371 0,-0.2741 0,-0.4796 h 0.069 l 0.4825,1.2332 h -0.0689 c -0.069,-0.137 -0.1379,-0.2055 -0.2068,-0.274 -0.069,-0.0686 -0.1379,-0.0686 -0.2068,-0.1371 -0.069,0 -0.2068,0 -0.2758,0.0685 l 0.2758,0.6167 c 0,0.0685 0.0689,0.137 0.1378,0.2055 l 0.069,0.0685 c 0.0689,0 0.1378,0 0.1378,0 l 0.1379,-0.0685 c 0.2068,-0.0685 0.3446,-0.2055 0.4825,-0.3426 0.0689,-0.2055 0.1379,-0.3425 0.1379,-0.5481 h 0.0689 l 0.2068,0.7537 -1.999,0.7536 v -0.0685 h 0.0689 c 0.0689,0 0.1379,-0.0685 0.1379,-0.0685 0,0 0.0689,-0.0685 0.0689,-0.137 0,-0.0685 0,-0.1371 -0.0689,-0.2056 l -0.6204,-1.5073 c -0.0689,-0.0685 -0.0689,-0.137 -0.0689,-0.2055 l -0.069,-0.0685 c -0.0689,0 -0.1378,0 -0.2067,0 h -0.069 v -0.0685 l 1.9301,-0.7537 0.2757,0.6852 h -0.0689 c -0.069,-0.1371 -0.1379,-0.2056 -0.2757,-0.3426 -0.069,-0.0685 -0.2068,-0.0685 -0.3447,-0.0685 -0.1379,0 -0.2757,0.0685 -0.3447,0.137 z m -1.93,1.8499 0.2757,0.7536 v 0.0685 c 0,0.0686 0.1379,0.1371 0.2068,0.1371 0,0 0,0 0.0689,0 0.069,0 0.1379,-0.0685 0.2068,-0.1371 0.0689,-0.0685 0.0689,-0.137 0.1379,-0.274 0,-0.0685 0,-0.2056 0,-0.2741 -0.069,-0.137 -0.069,-0.2055 -0.2068,-0.274 -0.069,-0.0685 -0.2068,-0.137 -0.2757,-0.137 -0.1379,0.0685 -0.2758,0.0685 -0.4136,0.137 z m -0.069,-0.137 c 0.1379,-0.0686 0.2068,-0.0686 0.3447,-0.2056 0.0689,-0.0685 0.0689,-0.137 0.1379,-0.2055 0,-0.0685 0,-0.2056 0,-0.2741 0,-0.0685 -0.069,-0.137 -0.1379,-0.2055 -0.0689,-0.0685 -0.1379,-0.0685 -0.2068,-0.0685 -0.1379,0 -0.2757,0 -0.4136,0.0685 z m 0.6204,-0.2056 c 0.2068,0 0.3447,0 0.5515,0 0.1378,0.0685 0.2757,0.2056 0.3446,0.3426 0.0689,0.137 0.0689,0.3426 -0.0689,0.4796 -0.1379,0.2055 -0.4136,0.4111 -0.6893,0.4796 l -1.1718,0.4111 v -0.0686 c 0.0689,0 0.1378,-0.0685 0.2067,-0.137 0,0 0.069,-0.0685 0.069,-0.137 0,-0.0685 0,-0.137 -0.069,-0.2741 L 88.231,38.16 c 0,-0.0685 -0.0689,-0.137 -0.1379,-0.2055 0,0 -0.0689,-0.0685 -0.1378,-0.0685 -0.069,0 -0.1379,0 -0.2068,0.0685 V 37.886 l 1.1029,-0.4111 c 0.2068,-0.0685 0.4136,-0.137 0.6204,-0.137 0.1378,0 0.2067,0.0685 0.3446,0.137 0.0689,0.0685 0.1379,0.137 0.2068,0.2741 0.0689,0.137 0.0689,0.2055 0,0.3425 -0.0689,0.2741 -0.2068,0.4111 -0.4136,0.4796 z m -2.8261,-0.274 0.2068,0.6166 h -0.069 c -0.0689,-0.137 -0.1378,-0.2056 -0.2068,-0.2741 -0.0689,-0.0685 -0.1378,-0.0685 -0.2068,-0.0685 -0.0689,0 -0.1378,0 -0.2757,0 l -0.2068,0.0685 0.5515,1.8499 c 0,0.0685 0.0689,0.137 0.0689,0.2055 l 0.0689,0.0685 c 0.069,0 0.1379,0 0.1379,0 h 0.0689 v 0.0686 l -1.2407,0.3425 v -0.0685 h 0.0689 c 0.0689,0 0.1379,-0.0685 0.1379,-0.0685 0,0 0.0689,-0.0685 0.0689,-0.137 0,-0.0685 0,-0.1371 -0.0689,-0.2056 l -0.5515,-1.8498 -0.2068,0.0685 c -0.1378,0 -0.2068,0.0685 -0.3446,0.2055 -0.069,0.1371 -0.1379,0.2741 -0.069,0.4796 h -0.0689 l -0.2068,-0.6166 z m -3.4466,1.0277 0.2757,0.9592 h 0.069 c 0.0689,0 0.2068,-0.0686 0.2757,-0.1371 0.0689,-0.0685 0.1379,-0.137 0.1379,-0.2055 0,-0.137 0,-0.2056 0,-0.3426 h 0.0689 l 0.3446,1.1647 h -0.0689 c -0.0689,-0.137 -0.1378,-0.3425 -0.3446,-0.411 -0.1379,-0.0686 -0.2758,-0.0686 -0.3447,0 h -0.0689 l 0.2068,0.7536 c 0,0.0685 0.0689,0.137 0.0689,0.2055 l 0.0689,0.0686 c 0.069,0 0.1379,0 0.1379,0 h 0.0689 v 0.0685 l -1.2407,0.3425 v -0.0685 h 0.0689 c 0.0689,0 0.1379,-0.0685 0.1379,-0.0685 l 0.0689,-0.0685 c 0,-0.0685 0,-0.137 -0.0689,-0.2055 l -0.4136,-1.5758 c 0,-0.0686 -0.069,-0.1371 -0.069,-0.2056 l -0.0689,-0.0685 c -0.0689,0 -0.1378,0 -0.1378,0 h -0.069 v -0.0685 l 1.999,-0.5481 0.2068,0.6851 h -0.0689 c -0.069,-0.137 -0.1379,-0.2055 -0.2068,-0.3425 -0.0689,-0.0686 -0.2068,-0.0686 -0.3447,-0.0686 -0.1378,0 -0.2757,0.0686 -0.4136,0.0686 z m -1.7232,1.9868 -0.5515,-0.7536 -0.2068,0.8907 z m 0.0689,0.0686 -0.8272,0.2055 -0.0689,0.2741 c 0,0.0685 0,0.137 0,0.2055 0,0.0685 0.0689,0.137 0.1379,0.137 0.0689,0 0.1378,0 0.2757,0 v 0.0685 l -0.8272,0.2056 v -0.0685 c 0.0689,0 0.1379,-0.0686 0.2068,-0.1371 0.0689,-0.137 0.1379,-0.274 0.1379,-0.411 l 0.4135,-2.124 1.3097,1.7814 c 0.069,0.137 0.2068,0.2055 0.2757,0.3426 0.069,0 0.1379,0.0685 0.2068,0 l -1.1718,0.274 v -0.0685 h 0.069 c 0.0689,0 0.1378,-0.0685 0.2067,-0.0685 v -0.0685 -0.0685 c 0,-0.0686 -0.0689,-0.0686 -0.0689,-0.1371 z m -3.4465,-0.8907 0.2068,1.0277 h 0.0689 c 0.1378,0 0.2757,-0.0685 0.3446,-0.137 0.069,-0.0686 0.1379,-0.1371 0.1379,-0.2056 0,-0.0685 0,-0.2055 0,-0.3425 0,-0.2741 -0.2068,-0.4796 -0.4825,-0.4796 -0.069,0 -0.1379,0 -0.1379,0 z m 0.2068,1.1647 0.1378,0.6851 c 0,0.0686 0.0689,0.1371 0.0689,0.2741 l 0.069,0.0685 c 0.0689,0 0.1378,0 0.2068,0 v 0.0685 l -1.2408,0.2056 v -0.0685 c 0.0689,0 0.1379,-0.0686 0.2068,-0.0686 l 0.0689,-0.0685 c 0,-0.0685 0,-0.137 0,-0.274 l -0.3446,-1.5758 c 0,-0.0685 -0.0689,-0.1371 -0.0689,-0.2741 l -0.069,-0.0685 c -0.0689,0 -0.1378,0 -0.2068,0 v -0.0685 l 1.1029,-0.2055 c 0.2068,-0.0686 0.4136,-0.0686 0.6893,-0.0686 0.1379,0 0.2758,0.0685 0.3447,0.1371 0.1378,0.0685 0.2068,0.2055 0.2068,0.3425 0.0689,0.1371 0,0.3426 -0.1379,0.4796 -0.0689,0.0685 -0.2068,0.2056 -0.3446,0.2056 l 0.7582,0.6851 c 0.0689,0.0685 0.1379,0.137 0.2068,0.137 0.0689,0 0.1378,0.0685 0.2068,0 v 0.0685 l -0.7583,0.1371 -1.0339,-0.9592 z"
         inkscape:connector-curvature="0"
         style="clip-rule:evenodd;fill:#ffffff;fill-rule:evenodd" />
      <path
         id="path833"
         d="m 28.8814,19.73 c 1.034,-1.7128 1.4475,-1.7813 1.9301,-1.8498 h 0.2757 0.2068 v -1.4388 h -4.8252 v 1.4388 h 0.5515 c 0.2068,0 0.4136,0 0.6203,0.0685 0,0.137 -0.0689,0.274 -0.1378,0.4111 l -1.9301,3.3571 -1.999,-3.2886 c -0.0689,-0.137 -0.1378,-0.2741 -0.2068,-0.4796 0.2068,0 0.4136,-0.0685 0.6894,-0.0685 h 0.5514 v -1.4388 h -5.8591 v 1.4388 l 0.4825,0.0685 c 0.5515,0.0685 0.6893,0.0685 2.2747,2.672 l 2.1369,3.4257 v 3.0831 c 0,1.3017 0,1.3017 -1.1718,1.3017 H 21.9194 V 29.87 h 6.2727 v -1.4388 h -0.5515 c -1.1718,0 -1.1718,-0.0685 -1.1718,-1.0962 v -3.4942 z m -1.2408,9.2493 v 0.3426 h -5.1697 v -0.3426 c 1.6543,-0.0685 1.7232,-0.4796 1.7232,-1.8498 v -3.2202 l -2.2058,-3.6312 c -1.7232,-2.809 -1.999,-2.8775 -2.7572,-2.946 v -0.3426 h 4.7562 v 0.3426 c -0.7582,0 -1.1718,0.0685 -1.1718,0.5481 0,0.274 0.1379,0.5481 0.2757,0.8221 l 2.4815,4.1108 2.4126,-4.2478 c 0.1379,-0.2055 0.2068,-0.4111 0.2068,-0.6851 0,-0.5481 -0.6204,-0.6166 -1.1718,-0.6166 V 16.921 h 3.7222 v 0.3426 c -0.6203,0.0685 -1.1718,0.137 -2.3436,2.1239 l -2.4815,4.2478 v 3.6312 c 0,1.3702 0.2068,1.7128 1.7232,1.7128 z"
         inkscape:connector-curvature="0"
         style="fill:#a1784c" />
      <path
         id="path835"
         d="m 31.0877,26.3757 c -0.0689,0.2055 -0.0689,0.3426 -0.0689,0.5481 v 0.0685 c 0,0.2056 0,0.3426 0.0689,0.5481 0.0689,0.4796 0.5514,0.8907 1.034,0.8907 0.3446,-0.0685 0.7582,-0.137 1.0339,-0.3426 0.5515,-0.274 0.5515,-0.4796 0.5515,-1.0962 v -2.672 c -1.8612,0.6851 -2.4126,1.4388 -2.6194,2.0554 z m 2.0679,-1.1647 v 1.8498 c 0,0.4111 0,0.4111 -0.2757,0.5481 -0.2068,0.1371 -0.4825,0.2056 -0.7582,0.2741 -0.3447,0 -0.5515,-0.3426 -0.5515,-0.8907 v -0.0685 c 0,-0.274 0,-0.9592 1.5854,-1.7128 z"
         inkscape:connector-curvature="0"
         style="fill:#a1784c" />
      <path
         id="path837"
         d="m 45.0809,21.3086 c -0.965,0 -2.0679,0.9592 -2.0679,3.4257 0,2.809 1.2408,3.8367 2.3436,3.8367 0.6894,0 1.3097,-0.4796 1.5165,-1.0962 v -4.3164 c -0.1378,-1.3017 -0.965,-1.8498 -1.7922,-1.8498 z m 1.1718,6.0977 c -0.1378,0.411 -0.5514,0.6166 -0.965,0.6166 -0.8272,0 -1.7922,-0.8222 -1.7922,-3.2886 0,-1.9869 0.7583,-2.8776 1.5165,-2.8776 0.4825,0 1.1029,0.3426 1.1718,1.3017 v 4.2479 z"
         inkscape:connector-curvature="0"
         style="fill:#a1784c" />
      <path
         id="path839"
         d="m 48.804,27.6806 c 0,-0.137 0,-0.3426 0,-0.4796 V 16.2389 l -0.6204,-0.2741 -0.2068,0.0686 c -0.6893,0.274 -1.4476,0.5481 -2.4126,0.8221 l -0.4136,0.137 v 1.3703 l 0.6204,-0.0685 c 0.1379,0 0.2068,0 0.3447,0 0.0689,0 0.1378,0 0.1378,0 0,0.137 0,0.274 0,0.3426 v 1.7813 c -0.4136,-0.2055 -0.8271,-0.2741 -1.2407,-0.2741 -1.1718,0.0686 -2.2058,0.6167 -2.8951,1.5758 0,-0.9591 -0.6204,-1.5758 -1.4476,-1.5758 -0.5514,0 -1.1028,0.2056 -1.4475,0.6167 v -0.4111 l -0.6893,-0.2741 -0.2068,0.1371 c -0.7582,0.3425 -1.5854,0.6851 -2.4815,0.9591 l -0.3447,0.1371 v 0.6851 c -0.3446,-0.9592 -1.0339,-1.7813 -2.895,-1.7813 -0.5515,0 -1.034,0.0685 -1.5165,0.274 -1.2408,0.4796 -1.7922,1.5758 -1.7922,2.3295 0,0.7536 0.5514,1.3702 1.3097,1.3702 0.2068,0 0.3446,-0.0685 0.4825,-0.137 0.4825,-0.2055 0.8272,-0.6851 0.8272,-1.2332 0,-0.1371 0,-0.2741 -0.069,-0.3426 0,-0.137 0,-0.2055 0,-0.3426 0,-0.2055 0.3447,-0.3425 0.6204,-0.3425 0.4136,0 0.7582,0.137 0.7582,0.9591 v 0.7537 c -0.8271,0.3426 -1.5164,0.6851 -2.0679,0.9592 -1.3786,0.7536 -2.1368,1.5758 -2.1368,3.0831 -0.069,1.2332 0.8961,2.3294 2.1368,2.4664 0.0689,0 0.1379,0 0.2068,0 0.7582,-0.0685 1.5165,-0.3425 2.1369,-0.8906 0.2068,0.5481 0.8271,0.9591 1.4475,0.8906 0.2757,0 0.6204,-0.0685 0.8272,-0.2055 h 4.8251 v -1.3703 h -0.5514 c -0.8272,0 -0.8961,-0.0685 -0.8961,-0.8221 v -4.1793 c 0.0689,-0.3426 0.2757,-0.6852 0.5514,-0.9592 l 0.0689,0.0685 c 0.2758,0.3426 0.6894,0.5481 1.1029,0.5481 0.1379,0 0.3447,-0.0685 0.4825,-0.0685 -0.2757,0.7536 -0.4135,1.5073 -0.4135,2.3294 0,4.5904 3.2397,4.7274 3.6533,4.7274 0.5514,0 1.1718,-0.137 1.6543,-0.411 v 0.0685 l 0.5515,0.4111 0.3446,-0.1371 c 0.5515,-0.2055 1.1029,-0.411 1.6544,-0.6166 l 1.1718,-0.4796 v -1.3017 l -0.6204,0.0685 c -0.2068,0.0685 -0.3447,0 -0.5514,0 z m -12.6143,-5.07 c 0.1378,-0.0685 0.2757,-0.0685 0.4135,-0.0685 0.069,0.2055 0.069,0.3426 0.069,0.5481 v 3.9738 l -0.6893,0.6166 c -0.069,0.0685 -0.2068,0.137 -0.2758,0.2055 0,-0.137 0,-0.3425 0,-0.4796 v -3.6312 c 0,-0.3425 0,-0.6851 -0.0689,-1.0277 z m -0.7583,6.7828 c -0.1378,0.0685 -0.3446,0.137 -0.5514,0.137 -0.3447,0 -1.034,0 -1.1029,-1.3702 -0.6204,0.6166 -1.5165,1.3702 -2.4815,1.3702 -0.069,0 -0.1379,0 -0.2068,0 -0.8272,-0.137 -1.5854,-0.7536 -1.5854,-1.9183 0,-1.1647 0.5514,-1.7814 1.5854,-2.398 0.8272,-0.4796 1.7233,-0.8907 2.6883,-1.3017 v -1.1648 c 0,-1.3702 -0.8272,-1.5758 -1.3097,-1.5758 -0.5514,0 -1.1718,0.3426 -1.1718,0.9592 0,0.2741 0.0689,0.5481 0.0689,0.7537 0,0.2055 -0.0689,0.411 -0.2757,0.5481 -0.1379,0.137 -0.3447,0.2055 -0.4825,0.2055 -0.4136,0 -0.7583,-0.4111 -0.7583,-0.8221 0.069,-0.7537 0.5515,-1.4388 1.2408,-1.7129 0.4825,-0.2055 0.965,-0.3425 1.5165,-0.3425 2.4815,0 2.4815,1.8498 2.4815,3.0145 v 3.6312 c 0,0.5481 0,1.0962 0.4825,1.0962 0.2757,0 0.5514,-0.137 0.7582,-0.3425 v 0.4796 c -0.2068,0.274 -0.4825,0.5481 -0.8961,0.7536 z m 5.5145,-6.7828 c -0.6204,0 -0.7583,-0.6851 -1.1719,-0.6851 -0.4135,0 -1.1718,0.9592 -1.1718,1.5073 v 4.1793 c 0,1.3017 0.5515,1.3702 1.4476,1.3702 v 0.2741 h -4.0669 v -0.2741 c 0.3446,0 0.6203,-0.137 0.965,-0.3425 0.2068,-0.1371 0.2757,-0.4111 0.2757,-0.9592 v -4.6589 c 0,-1.0962 -0.3446,-1.0962 -0.6204,-1.0962 -0.2068,0 -0.4135,0 -0.5514,0.0685 v -0.3426 c 0.8272,-0.3425 1.6543,-0.6166 2.4815,-1.0277 l 0.0689,0.0685 v 1.6444 c 0.8272,-1.3018 1.3786,-1.7129 1.999,-1.7129 0.5515,0 0.8961,0.4111 0.8961,1.0277 0.0689,0.6167 -0.1379,0.9592 -0.5514,0.9592 z m 8.4095,5.9607 c -0.8272,0.3425 -1.5854,0.6166 -2.4815,0.9591 L 46.805,29.4619 v -1.1647 c -0.4136,0.7537 -1.3097,1.2332 -2.2058,1.1647 -0.6893,0 -3.1019,-0.3425 -3.1019,-4.1793 0,-2.4664 1.5854,-4.5904 3.5155,-4.5904 0.6893,0 1.3097,0.2741 1.7922,0.8222 v -2.8775 c 0,-0.5481 0,-0.9592 -0.7583,-0.9592 -0.1378,0 -0.2757,0 -0.4136,0 v -0.3426 c 0.8272,-0.274 1.6544,-0.4796 2.4815,-0.8222 l 0.069,0.0686 V 27.201 c 0,0.7536 0,1.1647 1.1029,1.0277 z"
         inkscape:connector-curvature="0"
         style="fill:#a1784c" />
      <path
         id="path841"
         d="m 63.692,27.1983 v -8.2901 c 0,-1.0277 0,-1.0277 0.965,-1.0962 l 0.5514,-0.0685 v -1.4388 h -5.7901 v 1.4388 l 0.4825,0.0685 c 0.965,0.0685 0.965,0.0685 0.965,1.0962 v 3.0831 h -3.998 v -3.0146 c 0,-1.0277 0,-1.0277 0.9651,-1.0962 l 0.5514,-0.0685 v -1.4388 h -5.8591 v 1.4388 l 0.4825,0.0685 c 0.965,0.0685 0.965,0.0685 0.965,1.0962 v 8.0845 c 0,1.3018 0,1.3018 -0.965,1.3018 h -0.5514 v 1.4388 h 5.8591 V 28.363 l -0.4825,-0.0685 c -0.9651,-0.0685 -0.9651,-0.137 -0.9651,-1.0962 v -3.2887 h 3.998 v 3.0831 c 0,1.3018 0,1.3018 -0.965,1.3018 h -0.5515 v 1.4388 h 5.8591 V 28.2945 L 64.657,28.226 c -0.965,0 -0.965,0 -0.965,-1.0277 z m 0.8961,2.0554 h -4.6873 v -0.4111 c 0.6893,-0.0685 1.0339,-0.137 1.2407,-0.4111 0.2068,-0.274 0.2068,-0.7536 0.2068,-1.4388 v -3.6312 h -5.1008 v 3.8368 c 0,1.2332 0.1378,1.5758 1.5164,1.6443 v 0.3426 h -4.6873 v -0.3426 c 1.4476,-0.0685 1.5165,-0.4796 1.5165,-1.9184 v -8.016 c 0,-1.3703 -0.2068,-1.5758 -1.5165,-1.6443 v -0.3426 h 4.6873 v 0.3426 c -1.3097,0.137 -1.5164,0.3425 -1.5164,1.6443 v 3.6312 h 5.1008 v -3.6312 c 0,-0.6166 -0.0689,-1.0277 -0.2068,-1.2333 -0.2068,-0.2055 -0.5514,-0.3425 -1.2407,-0.411 v -0.3426 h 4.6873 v 0.3426 c -1.3097,0.137 -1.5165,0.3425 -1.5165,1.6443 v 8.2901 c 0,1.2332 0.1379,1.5758 1.5165,1.6443 z"
         inkscape:connector-curvature="0"
         style="fill:#a1784c" />
      <path
         id="path843"
         d="m 68.4479,21.1719 c -1.0339,0 -1.999,0.9592 -1.999,2.8775 0,1.3703 0.4136,4.7959 2.4126,4.7959 0.8272,0 1.999,-0.6851 1.999,-3.3571 0,-2.2609 -0.8272,-4.3163 -2.4126,-4.3163 z m 0.4136,7.1253 c -1.3786,0 -1.8611,-2.6035 -1.8611,-4.2478 0,-1.4387 0.5514,-2.3294 1.4475,-2.3294 1.2408,0 1.8612,1.9183 1.8612,3.7682 0,1.7813 -0.5515,2.809 -1.4476,2.809 z"
         inkscape:connector-curvature="0"
         style="fill:#a1784c" />
      <path
         id="path845"
         d="m 68.5867,20.0742 c -2.4126,0 -4.2048,2.1239 -4.2048,4.8644 0,2.8776 1.7922,5.0015 4.2737,5.0015 2.964,0 4.3426,-2.9461 4.3426,-5.0015 0,-2.8775 -1.7922,-4.8644 -4.4115,-4.8644 z m 0.0689,9.3178 c -2.2058,0 -3.7223,-1.9184 -3.7223,-4.4534 0,-2.3294 1.3787,-4.3163 3.6534,-4.3163 2.2057,0 3.7911,1.6443 3.7911,4.3163 0,1.8499 -1.1718,4.4534 -3.7222,4.4534 z"
         inkscape:connector-curvature="0"
         style="fill:#a1784c" />
      <path
         id="path847"
         d="m 90.0235,21.3086 c -0.965,0 -1.5854,0.4796 -1.8611,2.1239 h 3.4465 c -0.1378,-0.8907 -0.2757,-2.1239 -1.5854,-2.1239 z m 0,0.5481 c 0.5515,0 0.8272,0.3426 0.9651,1.0277 h -2.1369 c 0.3447,-1.0277 0.8272,-1.0277 1.1718,-1.0277 z"
         inkscape:connector-curvature="0"
         style="fill:#a1784c" />
      <path
         id="path849"
         d="m 92.9179,25.8968 c -0.4825,0.8222 -1.034,1.6443 -2.1369,1.6443 -1.3786,0 -1.8611,-1.5073 -2.0679,-2.9461 h 5.2387 l -0.0689,-0.6166 c -0.2757,-3.4256 -2.3436,-3.9052 -3.5155,-3.9052 -1.5854,0 -3.9979,1.3702 -3.9979,5.1385 0,0.0685 0,0.137 0,0.137 -0.3447,-0.4111 -0.7583,-0.7537 -1.1719,-1.0962 l -1.7922,-1.1647 c -0.2757,-0.2056 -0.4825,-0.4796 -0.4825,-0.8222 0,-0.3426 0.2758,-0.6851 0.6893,-0.6166 0,0 0,0 0.069,0 0.2757,0 0.965,0 1.3096,1.8498 l 0.069,0.4796 h 1.3097 l -0.069,-3.6997 h -1.0339 l -0.1379,0.1371 -0.1379,-0.0686 c -0.4135,-0.2055 -0.8961,-0.274 -1.3096,-0.274 -1.5165,-0.0685 -2.8951,1.0962 -2.8951,2.672 0,0.0685 0,0.137 0,0.2055 0,1.6443 1.1029,2.4665 2.2747,3.2201 l 0.965,0.6167 c 0.5515,0.3425 0.6204,0.6851 0.6204,0.8906 0.0689,0.4111 -0.2068,0.7537 -0.6204,0.8222 -0.0689,0 -0.1378,0 -0.2068,0 -1.1029,0 -1.3786,-0.9592 -1.6543,-2.1924 l -0.0689,-0.4796 h -1.3097 v 1.9184 h -0.2068 -0.0689 c -0.1379,0 -0.2068,0 -0.3447,0 0,-0.1371 -0.0689,-0.3426 0,-0.4796 v -6.9884 h -3.7912 v 1.4388 h 0.5515 c 0.6893,0 0.6893,0 0.6893,0.6166 v 4.3849 c 0,0.4795 -0.069,0.5481 -0.069,0.5481 -0.2757,0.274 -0.6893,0.4796 -1.1029,0.5481 -0.6893,0 -0.6893,-0.8222 -0.6893,-0.8222 v -6.6458 h -3.5844 v 1.3703 l 0.5515,0.0685 c 0.4825,0 0.5514,0.0685 0.5514,0.6166 V 27.13 c 0,2.398 1.6544,3.0146 2.5505,3.0146 0.6893,0 1.3786,-0.274 1.93,-0.7536 v 0.3425 l 0.4136,0.4796 0.4825,-0.2055 c 0.6893,-0.2741 1.4476,-0.5481 2.2058,-0.7537 v 0.7537 h 1.1029 l 0.1379,-0.2056 c 0.2067,0 0.3446,0.0686 0.5514,0.1371 0.4136,0.137 0.8961,0.2055 1.3097,0.2055 1.3786,0 2.6194,-0.9592 2.964,-2.3294 0.6204,1.4387 1.7922,2.3294 3.3087,2.3294 2.4126,0 3.7222,-2.1924 4.1358,-3.4942 l 0.1379,-0.4796 -1.1718,-0.5481 z m -12.4075,2.672 c -0.8272,0.2055 -1.5855,0.5481 -2.3437,0.8222 v -0.0685 -1.5758 l -0.7582,0.8221 c -0.4825,0.4796 -1.1029,0.8222 -1.7922,0.8222 -0.6893,0 -1.999,-0.4796 -1.999,-2.398 v -4.6589 c 0,-1.0962 -0.5515,-1.1647 -1.034,-1.1647 v -0.2741 h 2.4815 v 6.0977 c 0,0.2741 0.1379,1.4388 1.2408,1.4388 0.5514,-0.0685 1.1029,-0.2741 1.4475,-0.6851 0.1379,-0.1371 0.2757,-0.3426 0.2757,-0.9592 v -4.3849 c 0,-0.7536 -0.0689,-1.1647 -1.2407,-1.1647 v -0.3426 h 2.6883 v 6.3718 c 0,0.6851 0,1.0962 1.034,1.0277 z m 3.3086,0.8222 c -0.7582,0 -1.5164,-0.3426 -1.93,-0.3426 -0.1379,0 -0.3447,0.0685 -0.3447,0.2055 h -0.2757 v -2.8775 h 0.2757 c 0.2068,0.9592 0.5515,2.6035 2.2058,2.6035 0.6893,0.0685 1.3097,-0.4796 1.3786,-1.1647 0,-0.0685 0,-0.1371 0,-0.2056 0,-0.6166 -0.3446,-1.0962 -0.8961,-1.3702 l -0.965,-0.6167 c -1.034,-0.6851 -1.999,-1.3702 -1.999,-2.7405 0,-1.2332 0.965,-2.2609 2.2058,-2.2609 0.0689,0 0.1378,0 0.1378,0 0.7583,0 1.2408,0.3426 1.5854,0.3426 0.1379,0 0.2068,-0.0686 0.2758,-0.2056 h 0.2068 l 0.0689,2.535 h -0.2757 c -0.3447,-1.9184 -1.1029,-2.3294 -1.8612,-2.3294 -0.6893,0 -1.2407,0.4795 -1.3096,1.1647 v 0.0685 c 0,0.5481 0.2757,1.0277 0.7582,1.3017 l 1.7922,1.2333 c 0.8272,0.5481 1.4475,1.0962 1.4475,2.1924 0,1.4388 -1.1029,2.4665 -2.4815,2.4665 0.069,0 0,0 0,0 z m 9.8571,-3.0831 c -0.1378,0.5481 -1.1718,3.0831 -3.5844,3.0831 -1.8611,0 -3.1708,-1.5073 -3.1708,-4.1793 0,-3.4257 2.0679,-4.5904 3.4465,-4.5904 1.5854,0 2.7573,0.9592 2.9641,3.4256 h -5.2388 c 0.2068,3.2887 1.5854,4.0423 2.6883,4.0423 1.5165,0 2.2058,-1.3017 2.6194,-1.9869 z"
         inkscape:connector-curvature="0"
         style="fill:#a1784c" />
      <path
         id="path851"
         d="m 59.9001,16.8555 v 0.3425 c 0.6893,0.0685 1.0339,0.1371 1.2407,0.4111 0.2068,0.2741 0.2068,0.6166 0.2068,1.2332 v 3.6312 h -5.1009 v -3.6312 c 0,-1.3017 0.2068,-1.5758 1.5165,-1.6443 v -0.3425 h -4.6873 v 0.3425 c 1.2408,0.1371 1.5165,0.3426 1.5165,1.6443 v 8.0846 c 0,1.3703 -0.0689,1.7813 -1.5165,1.9184 v 0.3425 h 4.6873 v -0.3425 c -1.3097,-0.0685 -1.5165,-0.4796 -1.5165,-1.6444 v -3.8367 h 5.1009 v 3.6312 c 0,0.7537 0,1.1647 -0.2068,1.4388 -0.2068,0.274 -0.5514,0.4111 -1.2407,0.4111 v 0.3425 h 4.6872 v -0.3425 c -1.3096,-0.0685 -1.5164,-0.4796 -1.5164,-1.6444 v -8.29 c 0,-1.3018 0.2068,-1.5758 1.5164,-1.6444 V 16.924 h -4.6872 z"
         inkscape:connector-curvature="0"
         style="fill:#ffffff" />
      <path
         id="path853"
         d="m 68.5863,20.6211 c -2.2747,0 -3.6533,2.0554 -3.6533,4.3163 0,2.535 1.5165,4.4534 3.7222,4.4534 2.5505,0 3.7223,-2.6035 3.7223,-4.4534 0,-2.672 -1.5854,-4.3163 -3.7912,-4.3163 z m 0.2757,8.2901 c -1.999,0 -2.4125,-3.4257 -2.4125,-4.7959 0,-1.9184 0.965,-2.8776 1.9989,-2.8776 1.5855,0 2.4126,2.0554 2.4126,4.3163 0,2.6035 -1.1029,3.3572 -1.999,3.3572 z"
         inkscape:connector-curvature="0"
         style="fill:#ffffff" />
      <path
         id="path855"
         d="m 79.4774,27.1998 v -6.3717 h -2.6882 v 0.3426 c 1.1718,0.0685 1.2407,0.4111 1.2407,1.1647 v 4.3849 c 0,0.6166 -0.1379,0.8221 -0.2757,0.9591 -0.4136,0.4111 -0.8961,0.6167 -1.4476,0.6852 -1.1029,0 -1.2407,-1.1648 -1.2407,-1.4388 v -6.0977 h -2.4815 v 0.2741 c 0.4825,0.0685 1.0339,0.0685 1.0339,1.1647 v 4.7274 c 0,1.9869 1.3097,2.398 1.999,2.398 0.6893,0 1.3097,-0.2741 1.7922,-0.8222 l 0.7583,-0.8221 v 1.5758 0.0685 c 0.7582,-0.3426 1.5164,-0.6167 2.3436,-0.8907 v -0.2741 c -0.965,0.0686 -1.034,-0.3425 -1.034,-1.0277 z"
         inkscape:connector-curvature="0"
         style="fill:#ffffff" />
      <path
         id="path857"
         d="m 84.8537,24.8035 -1.7922,-1.1647 c -0.4825,-0.274 -0.7582,-0.7536 -0.7582,-1.3017 0,-0.6852 0.5515,-1.2333 1.2408,-1.2333 h 0.0689 c 0.7582,0 1.5165,0.4111 1.8611,2.3295 h 0.2757 l -0.0689,-2.535 h -0.2068 c -0.0689,0.137 -0.1379,0.2055 -0.2757,0.2055 -0.2757,0 -0.8272,-0.3425 -1.5854,-0.3425 -1.2408,-0.0685 -2.2747,0.8906 -2.3437,2.1239 0,0.0685 0,0.137 0,0.137 0,1.3703 0.9651,2.0554 1.999,2.7405 l 0.9651,0.6166 c 0.5514,0.2741 0.8961,0.8222 0.8961,1.3703 0.0689,0.6851 -0.4826,1.3018 -1.1719,1.3703 -0.0689,0 -0.1378,0 -0.2068,0 -1.6543,0 -1.9989,-1.6444 -2.2057,-2.6035 h -0.2758 v 2.8775 h 0.2068 c 0.069,-0.137 0.2068,-0.274 0.3447,-0.2055 0.4825,0 1.1718,0.3425 1.93,0.3425 1.3097,0 2.4126,-1.0277 2.4815,-2.3294 V 27.133 c 0.069,-1.2333 -0.5514,-1.7814 -1.3786,-2.3295 z"
         inkscape:connector-curvature="0"
         style="fill:#ffffff" />
      <path
         id="path859"
         d="m 93.4011,26.1725 c -0.4136,0.6851 -1.1029,1.9868 -2.6194,1.9868 -1.1029,0 -2.4815,-0.7536 -2.6883,-4.0422 h 5.2387 c -0.2068,-2.4665 -1.3786,-3.4257 -2.964,-3.4257 -1.3786,0 -3.4465,1.1647 -3.4465,4.5904 0,2.672 1.3097,4.1793 3.1708,4.1793 2.4126,0 3.3776,-2.535 3.5844,-3.0831 z M 90.0235,21.308 c 1.3096,0 1.5164,1.2333 1.6543,2.1239 h -3.4465 c 0.2068,-1.6443 0.8271,-2.1239 1.7922,-2.1239 z"
         inkscape:connector-curvature="0"
         style="fill:#ffffff" />
      <path
         id="path861"
         d="M 30.7432,16.9922 H 27.021 v 0.3426 c 0.5514,0 1.1718,0.0685 1.1718,0.6166 0,0.274 -0.0689,0.4796 -0.2068,0.6851 l -2.4126,4.1793 -2.4815,-4.1108 c -0.1378,-0.274 -0.2757,-0.5481 -0.2757,-0.8221 0,-0.5481 0.4136,-0.5481 1.1718,-0.5481 v -0.3426 h -4.7562 v 0.3426 c 0.7582,0.0685 1.034,0.137 2.7572,2.946 l 2.2058,3.5627 v 3.2201 c 0,1.4388 -0.0689,1.8499 -1.7232,1.8499 v 0.3425 h 5.1697 v -0.3425 c -1.5164,0 -1.7232,-0.3426 -1.7232,-1.7129 v -3.6312 l 2.4815,-4.2478 c 1.1718,-1.9868 1.7233,-2.0554 2.3436,-2.1239 z"
         inkscape:connector-curvature="0"
         style="fill:#ffffff" />
      <path
         id="path863"
         d="m 36.3955,28.4334 v -0.3426 c -0.2068,0.2056 -0.4825,0.3426 -0.7582,0.3426 -0.4825,0 -0.4825,-0.5481 -0.4825,-1.0962 V 23.706 c 0,-1.0962 0,-3.0146 -2.4815,-3.0146 -0.5515,0 -1.034,0.137 -1.5165,0.3426 -0.6893,0.3425 -1.1718,0.9592 -1.2408,1.7128 0,0.4111 0.3447,0.8222 0.7583,0.8222 0.2068,0 0.4136,-0.0686 0.4825,-0.2056 0.1378,-0.137 0.2757,-0.3425 0.2757,-0.5481 0,-0.137 -0.0689,-0.4796 -0.0689,-0.7536 0,-0.5481 0.6204,-0.9592 1.1718,-0.9592 0.4825,0 1.3097,0.2055 1.3097,1.5758 v 1.1647 c -0.8961,0.3426 -1.7922,0.8222 -2.6883,1.3018 -1.034,0.6166 -1.5854,1.3017 -1.5854,2.3979 0,1.0962 0.7582,1.8499 1.5854,1.9184 0.0689,0 0.1378,0 0.2068,0 0.965,0 1.7922,-0.7537 2.4815,-1.3703 0.0689,1.3703 0.8271,1.3703 1.1029,1.3703 0.2068,0 0.4136,-0.0685 0.5514,-0.137 0.3447,-0.2056 0.6893,-0.4796 0.965,-0.8222 z m -2.6194,-1.3703 c 0,0.5481 -0.0689,0.7537 -0.5514,1.0962 -0.3447,0.2056 -0.6893,0.2741 -1.034,0.3426 -0.5514,0 -0.965,-0.4111 -1.0339,-0.8907 -0.0689,-0.2055 -0.0689,-0.3425 -0.0689,-0.5481 v -0.0685 c 0,-0.2055 0,-0.4111 0.0689,-0.5481 0.2068,-0.6166 0.7582,-1.3703 2.6883,-2.0554 z"
         inkscape:connector-curvature="0"
         style="fill:#ffffff" />
      <path
         id="path865"
         d="m 40.6685,20.7578 c -0.6203,0 -1.2407,0.3426 -1.9989,1.7128 v -1.6443 l -0.1379,-0.0685 c -0.8272,0.3426 -1.6543,0.6851 -2.4815,1.0277 v 0.3426 c 0.2068,-0.1371 0.4136,-0.1371 0.5514,-0.1371 0.2758,0 0.6204,0 0.6204,1.0963 v 4.6589 c 0,0.5481 -0.0689,0.8221 -0.2757,0.9591 -0.2757,0.2056 -0.6204,0.2741 -0.965,0.3426 v 0.2741 h 4.0669 v -0.2741 c -0.8272,-0.0685 -1.4476,-0.137 -1.4476,-1.3703 v -4.1793 c 0,-0.6166 0.7583,-1.5073 1.1718,-1.5073 0.4136,0 0.5515,0.6852 1.1719,0.6852 0.4136,0 0.6203,-0.3426 0.6203,-0.8222 0,-0.6851 -0.3446,-1.0962 -0.8961,-1.0962 z"
         inkscape:connector-curvature="0"
         style="fill:#ffffff" />
      <path
         id="path867"
         d="M 48.2519,27.2016 V 16.6505 L 48.183,16.582 c -0.8272,0.3426 -1.6544,0.5481 -2.4815,0.8222 v 0.3426 c 0.1378,0 0.2757,0 0.4135,0 0.7583,0 0.7583,0.411 0.7583,0.9591 v 2.8776 c -0.4825,-0.4796 -1.1029,-0.8222 -1.7922,-0.8222 -1.8612,0 -3.5155,2.1239 -3.5155,4.5904 0,3.8367 2.4126,4.1793 3.1019,4.1793 0.8961,0.0685 1.7233,-0.4111 2.2058,-1.1647 v 1.1647 l 0.0689,0.0685 c 0.8961,-0.3425 1.6543,-0.6851 2.4815,-0.9592 v -0.3425 c -1.1718,0.0685 -1.1718,-0.3426 -1.1718,-1.0962 z m -1.4476,0.2055 c -0.2067,0.6851 -0.8271,1.1647 -1.5164,1.0962 -1.1029,0 -2.3437,-1.0277 -2.3437,-3.8367 0,-2.535 1.1718,-3.4257 2.0679,-3.4257 0.8272,0 1.6544,0.6166 1.7233,1.8499 z"
         inkscape:connector-curvature="0"
         style="fill:#ffffff" />
    </g>
  </g>
</svg>
