<svg xmlns="http://www.w3.org/2000/svg" fill="none" viewBox="0 0 465 287" height="287" width="465">
<g clip-path="url(#clip0_4988_26436)">
<path fill="black" d="M346.844 185.881C340.337 185.881 335.701 179.537 337.409 169.776L342.777 139.358C344.323 129.923 348.633 123.986 357.987 123.986H359.613C370.593 123.986 374.416 129.598 372.545 139.683L371.976 142.936H361.809L362.379 139.683C363.111 135.372 361.891 133.258 358.556 133.258C355.384 133.258 354.001 135.698 353.351 139.52L348.064 169.776C347.332 173.924 348.552 176.527 352.131 176.527C355.628 176.527 357.336 173.68 357.987 169.858L359.939 158.471H354.245L355.872 149.28H371.407L365.063 185.067H358.8C358.719 183.197 358.393 180.675 358.068 179.13C356.767 181.407 353.351 185.881 347.332 185.881H346.844Z"></path>
<path fill="black" d="M320.551 151.477C321.283 157.089 321.689 160.912 321.933 164.409C322.34 160.912 322.828 157.333 324.374 148.386L333.398 103.976H342.507L327.058 185.068H317.867L313.475 156.276C312.58 150.176 312.255 146.109 312.011 142.856C311.604 146.19 311.197 150.664 309.652 159.367L301.377 207.084H292.186L306.561 124.555H316.891L320.551 151.477Z"></path>
<path fill="black" d="M287.991 185.066H277.418L288.072 124.554H298.646L287.991 185.066Z"></path>
<path fill="black" d="M249.174 124.554H259.747L255.518 148.547H265.278L269.507 124.554H280.081L269.426 185.066H258.853L263.489 158.633H253.729L249.093 185.066H238.519L249.174 124.554Z"></path>
<path fill="black" d="M218.292 176.365C221.87 176.365 222.928 173.762 223.66 169.614L225.368 159.935H235.616L233.745 170.59C232.444 178.398 229.516 185.799 219.105 185.799H217.153C206.986 185.799 201.944 179.781 203.814 169.37L209.101 139.358C210.809 129.191 214.957 123.986 224.473 123.986H226.1C236.917 123.986 241.065 129.354 239.194 139.764L237.974 146.678H227.726L228.946 139.846C229.678 135.454 228.377 133.258 224.88 133.258C221.708 133.258 220.406 135.698 219.674 139.846L214.388 169.695C213.656 174.169 214.957 176.365 218.292 176.365Z"></path>
<path fill="black" d="M179.548 164.977H187.519L187.682 151.313C187.763 145.131 187.926 140.821 188.17 136.835C187.275 140.007 185.974 144.725 183.94 151.231L179.548 164.977ZM187.438 173.923H176.62L173.042 185.066H163.526L183.778 124.554H196.954L197.198 185.066H187.275L187.438 173.923Z"></path>
<path fill="black" d="M161.855 169.369C160.147 179.78 156.162 185.798 146.239 185.798H144.694C135.259 185.798 128.671 181.081 130.623 169.369L135.747 140.17C137.455 130.166 140.952 123.903 151.282 123.903H152.827C163.238 123.903 168.931 128.783 166.979 140.17L161.855 169.369ZM156.324 140.251C157.219 135.046 155.186 133.257 152.014 133.257C148.842 133.257 147.296 135.127 146.402 140.251L141.278 169.45C140.383 174.005 142.01 176.364 145.507 176.364C148.842 176.364 150.306 174.33 151.2 169.45L156.324 140.251Z"></path>
<path fill="black" d="M107.862 176.365C111.44 176.365 112.498 173.762 113.23 169.614L114.938 159.935H125.186L123.315 170.59C122.014 178.398 119.086 185.799 108.675 185.799H106.723C96.5562 185.799 91.5135 179.781 93.3842 169.37L98.6709 139.358C100.379 129.191 104.527 123.986 114.043 123.986H115.67C126.487 123.986 130.635 129.354 128.764 139.764L127.544 146.678H117.296L118.516 139.846C119.248 135.454 117.947 133.258 114.45 133.258C111.278 133.258 109.976 135.698 109.244 139.846L103.958 169.695C103.226 174.169 104.527 176.365 107.862 176.365Z"></path>
<path fill="black" d="M149.54 109.608V98.378H145.5V95.7871H156.524V98.378H152.505V109.608H149.54Z"></path>
<path fill="black" d="M159.527 102.709C159.527 98.5446 162.572 95.5601 166.758 95.5601C170.943 95.5601 173.969 98.5446 173.969 102.709C173.969 106.872 170.923 109.857 166.758 109.857C162.592 109.857 159.527 106.872 159.527 102.709ZM170.943 102.709C170.943 100.118 169.306 98.1707 166.758 98.1707C164.21 98.1707 162.551 100.118 162.551 102.709C162.551 105.299 164.188 107.246 166.758 107.246C169.327 107.246 170.943 105.278 170.943 102.709Z"></path>
<path fill="black" d="M187.849 109.608L181.26 100.595V109.608H178.318V95.7871H181.344L187.746 104.469V95.7871H190.688V109.608H187.849Z"></path>
<path fill="black" d="M199.553 109.608V103.952L194.248 95.7871H197.604L201.024 101.32L204.443 95.7871H207.779L202.495 103.952V109.608H199.553Z"></path>
<path fill="black" d="M226.755 109.608L224.04 104.696H221.886V109.608H218.943V95.7871H225.407C228.288 95.7871 230.069 97.673 230.069 100.242C230.069 102.667 228.516 103.993 227.023 104.345L230.153 109.608H226.755ZM227.045 100.221C227.045 99.0813 226.154 98.3763 224.994 98.3763H221.886V102.105H224.994C226.154 102.105 227.045 101.4 227.045 100.219V100.221Z"></path>
<path fill="black" d="M233.881 102.709C233.881 98.5446 236.926 95.5601 241.111 95.5601C245.297 95.5601 248.322 98.5446 248.322 102.709C248.322 106.872 245.277 109.857 241.111 109.857C236.946 109.857 233.881 106.872 233.881 102.709ZM245.297 102.709C245.297 100.118 243.659 98.1707 241.111 98.1707C238.563 98.1707 236.905 100.118 236.905 102.709C236.905 105.299 238.542 107.246 241.111 107.246C243.681 107.246 245.297 105.278 245.297 102.709Z"></path>
<path fill="black" d="M252.671 95.7871H259.944C262.576 95.7871 263.922 97.4655 263.922 99.3102C263.922 101.03 262.845 102.211 261.539 102.481C263.031 102.708 264.191 104.14 264.191 105.859C264.191 107.951 262.824 109.61 260.172 109.61H252.671V95.7871ZM260.918 99.8274C260.918 98.9775 260.297 98.378 259.302 98.378H255.614V101.279H259.302C260.297 101.279 260.918 100.719 260.918 99.8274ZM261.188 105.442C261.188 104.573 260.567 103.868 259.427 103.868H255.614V107.017H259.427C260.526 107.017 261.188 106.437 261.188 105.442Z"></path>
<path fill="black" d="M268.686 95.7871H275.959C278.591 95.7871 279.937 97.4655 279.937 99.3102C279.937 101.03 278.86 102.211 277.554 102.481C279.046 102.708 280.205 104.14 280.205 105.859C280.205 107.951 278.838 109.61 276.186 109.61H268.686V95.7871ZM276.933 99.8274C276.933 98.9775 276.312 98.378 275.317 98.378H271.629V101.279H275.317C276.312 101.279 276.933 100.719 276.933 99.8274ZM277.203 105.442C277.203 104.573 276.582 103.868 275.442 103.868H271.629V107.017H275.442C276.541 107.017 277.203 106.437 277.203 105.442Z"></path>
<path fill="black" d="M284.7 109.608V95.7871H287.642V109.608H284.7Z"></path>
<path fill="black" d="M302.188 109.608L295.599 100.595V109.608H292.657V95.7871H295.683L302.085 104.469V95.7871H305.027V109.608H302.188Z"></path>
<path fill="black" d="M309.084 107.661L310.7 105.362C311.673 106.377 313.187 107.248 315.093 107.248C316.73 107.248 317.496 106.523 317.496 105.715C317.496 103.311 309.539 104.99 309.539 99.7883C309.539 97.4889 311.528 95.5816 314.781 95.5816C316.978 95.5816 318.802 96.2454 320.169 97.5087L318.532 99.7043C317.413 98.6683 315.921 98.1923 314.513 98.1923C313.269 98.1923 312.564 98.7309 312.564 99.5594C312.564 101.735 320.5 100.264 320.5 105.423C320.5 107.951 318.677 109.857 314.967 109.857C312.294 109.857 310.388 108.966 309.082 107.66L309.084 107.661Z"></path>
</g>
<defs>
<clipPath id="clip0_4988_26436">
<rect fill="white" rx="20" height="287" width="465"></rect>
</clipPath>
</defs>
</svg>
